<ttFont>
    <TTGlyph name=".notdef" xMin="256" yMin="0" xMax="1280" yMax="1280">
      <contour>
        <pt x="256" y="0" on="1"/>
        <pt x="256" y="1280" on="1"/>
        <pt x="1280" y="1280" on="1"/>
        <pt x="1280" y="0" on="1"/>
      </contour>
      <contour>
        <pt x="288" y="32" on="1"/>
        <pt x="1248" y="32" on="1"/>
        <pt x="1248" y="1248" on="1"/>
        <pt x="288" y="1248" on="1"/>
      </contour>
    </TTGlyph>
    <TTGlyph name="ampersand" xMin="106" yMin="-47" xMax="1304" yMax="1452">
      <contour>
        <pt x="1009" y="684" on="1"/>
        <pt x="1173" y="684" on="1"/>
        <pt x="1173" y="492" on="0"/>
        <pt x="1054" y="309" on="1"/>
        <pt x="1304" y="0" on="1"/>
        <pt x="1081" y="0" on="1"/>
        <pt x="954" y="160" on="1"/>
        <pt x="854" y="61" on="0"/>
        <pt x="796" y="27" on="1"/>
        <pt x="681" y="-47" on="0"/>
        <pt x="526" y="-47" on="1"/>
        <pt x="288" y="-47" on="0"/>
        <pt x="174" y="121" on="1"/>
        <pt x="106" y="221" on="0"/>
        <pt x="106" y="360" on="1"/>
        <pt x="106" y="526" on="0"/>
        <pt x="212" y="635" on="1"/>
        <pt x="286" y="709" on="0"/>
        <pt x="438" y="797" on="1"/>
        <pt x="294" y="977" on="0"/>
        <pt x="276" y="1075" on="1"/>
        <pt x="272" y="1102" on="0"/>
        <pt x="272" y="1130" on="1"/>
        <pt x="272" y="1288" on="0"/>
        <pt x="405" y="1384" on="1"/>
        <pt x="499" y="1452" on="0"/>
        <pt x="622" y="1452" on="1"/>
        <pt x="806" y="1452" on="0"/>
        <pt x="901" y="1317" on="1"/>
        <pt x="931" y="1260" on="1"/>
        <pt x="950" y="1217" on="0"/>
        <pt x="954" y="1167" on="1"/>
        <pt x="956" y="1149" on="0"/>
        <pt x="956" y="1130" on="1"/>
        <pt x="956" y="989" on="0"/>
        <pt x="843" y="889" on="1"/>
        <pt x="784" y="836" on="0"/>
        <pt x="673" y="774" on="1"/>
        <pt x="946" y="440" on="1"/>
        <pt x="1009" y="552" on="0"/>
        <pt x="1009" y="676" on="1"/>
      </contour>
      <contour>
        <pt x="583" y="883" on="1"/>
        <pt x="749" y="987" on="0"/>
        <pt x="780" y="1063" on="1"/>
        <pt x="794" y="1094" on="0"/>
        <pt x="794" y="1135" on="1"/>
        <pt x="794" y="1241" on="0"/>
        <pt x="702" y="1288" on="1"/>
        <pt x="663" y="1309" on="0"/>
        <pt x="616" y="1309" on="1"/>
        <pt x="493" y="1309" on="0"/>
        <pt x="452" y="1206" on="1"/>
        <pt x="440" y="1174" on="0"/>
        <pt x="440" y="1133" on="1"/>
        <pt x="440" y="1065" on="0"/>
        <pt x="491" y="993" on="1"/>
      </contour>
      <contour>
        <pt x="856" y="281" on="1"/>
        <pt x="528" y="690" on="1"/>
        <pt x="335" y="567" on="0"/>
        <pt x="294" y="465" on="1"/>
        <pt x="278" y="424" on="0"/>
        <pt x="278" y="375" on="1"/>
        <pt x="278" y="242" on="0"/>
        <pt x="389" y="164" on="1"/>
        <pt x="460" y="113" on="0"/>
        <pt x="546" y="113" on="1"/>
        <pt x="684" y="113" on="0"/>
        <pt x="823" y="246" on="1"/>
        <pt x="839" y="262" on="0"/>
      </contour>
    </TTGlyph>
    <TTGlyph name="asterisk" xMin="450" yMin="903" xMax="1071" yMax="1493">
      <contour>
        <pt x="696" y="1493" on="1"/>
        <pt x="825" y="1493" on="1"/>
        <pt x="815" y="1264" on="1"/>
        <pt x="1032" y="1341" on="1"/>
        <pt x="1071" y="1221" on="1"/>
        <pt x="849" y="1159" on="1"/>
        <pt x="993" y="977" on="1"/>
        <pt x="888" y="903" on="1"/>
        <pt x="761" y="1094" on="1"/>
        <pt x="632" y="903" on="1"/>
        <pt x="530" y="977" on="1"/>
        <pt x="671" y="1159" on="1"/>
        <pt x="450" y="1221" on="1"/>
        <pt x="489" y="1341" on="1"/>
        <pt x="706" y="1264" on="1"/>
      </contour>
    </TTGlyph>
    <TTGlyph name="at" xMin="69" yMin="-290" xMax="1947" yMax="1518">
      <contour>
        <pt x="1361" y="1026" on="1"/>
        <pt x="1531" y="1026" on="1"/>
        <pt x="1347" y="453" on="1"/>
        <pt x="1322" y="381" on="0"/>
        <pt x="1322" y="350" on="1"/>
        <pt x="1322" y="295" on="0"/>
        <pt x="1382" y="268" on="1"/>
        <pt x="1402" y="260" on="0"/>
        <pt x="1425" y="260" on="1"/>
        <pt x="1556" y="260" on="0"/>
        <pt x="1664" y="408" on="1"/>
        <pt x="1769" y="553" on="0"/>
        <pt x="1769" y="731" on="1"/>
        <pt x="1769" y="977" on="0"/>
        <pt x="1570" y="1159" on="1"/>
        <pt x="1367" y="1348" on="0"/>
        <pt x="1079" y="1360" on="1"/>
        <pt x="1048" y="1360" on="1"/>
        <pt x="747" y="1360" on="0"/>
        <pt x="515" y="1151" on="1"/>
        <pt x="446" y="1081" on="1"/>
        <pt x="243" y="850" on="0"/>
        <pt x="243" y="559" on="1"/>
        <pt x="243" y="270" on="0"/>
        <pt x="458" y="72" on="1"/>
        <pt x="679" y="-133" on="0"/>
        <pt x="1011" y="-133" on="1"/>
        <pt x="1173" y="-133" on="0"/>
        <pt x="1406" y="-67" on="1"/>
        <pt x="1464" y="-204" on="1"/>
        <pt x="1234" y="-290" on="0"/>
        <pt x="1001" y="-290" on="1"/>
        <pt x="632" y="-290" on="0"/>
        <pt x="364" y="-71" on="1"/>
        <pt x="114" y="133" on="0"/>
        <pt x="75" y="434" on="1"/>
        <pt x="69" y="481" on="0"/>
        <pt x="69" y="528" on="1"/>
        <pt x="69" y="844" on="0"/>
        <pt x="264" y="1110" on="1"/>
        <pt x="321" y="1190" on="0"/>
        <pt x="393" y="1253" on="1"/>
        <pt x="614" y="1454" on="0"/>
        <pt x="923" y="1505" on="1"/>
        <pt x="999" y="1518" on="0"/>
        <pt x="1075" y="1518" on="1"/>
        <pt x="1415" y="1518" on="0"/>
        <pt x="1666" y="1311" on="1"/>
        <pt x="1904" y="1118" on="0"/>
        <pt x="1941" y="842" on="1"/>
        <pt x="1947" y="799" on="0"/>
        <pt x="1947" y="756" on="1"/>
        <pt x="1947" y="508" on="0"/>
        <pt x="1771" y="299" on="1"/>
        <pt x="1615" y="117" on="0"/>
        <pt x="1390" y="117" on="1"/>
        <pt x="1193" y="117" on="0"/>
        <pt x="1165" y="274" on="1"/>
        <pt x="1030" y="127" on="0"/>
        <pt x="874" y="127" on="1"/>
        <pt x="706" y="127" on="0"/>
        <pt x="610" y="268" on="1"/>
        <pt x="540" y="369" on="0"/>
        <pt x="540" y="502" on="1"/>
        <pt x="540" y="725" on="0"/>
        <pt x="702" y="897" on="1"/>
        <pt x="860" y="1067" on="0"/>
        <pt x="1066" y="1069" on="1"/>
        <pt x="1238" y="1069" on="0"/>
        <pt x="1316" y="891" on="1"/>
      </contour>
      <contour>
        <pt x="1054" y="938" on="1"/>
        <pt x="919" y="938" on="0"/>
        <pt x="817" y="793" on="1"/>
        <pt x="724" y="664" on="0"/>
        <pt x="724" y="500" on="1"/>
        <pt x="724" y="362" on="0"/>
        <pt x="821" y="293" on="1"/>
        <pt x="870" y="258" on="0"/>
        <pt x="927" y="258" on="1"/>
        <pt x="1046" y="258" on="0"/>
        <pt x="1136" y="391" on="1"/>
        <pt x="1204" y="489" on="0"/>
        <pt x="1236" y="662" on="1"/>
        <pt x="1245" y="707" on="0"/>
        <pt x="1247" y="741" on="1"/>
        <pt x="1247" y="755" on="1"/>
        <pt x="1247" y="856" on="0"/>
        <pt x="1163" y="909" on="1"/>
        <pt x="1113" y="938" on="0"/>
      </contour>
    </TTGlyph>
    <TTGlyph name="colon" xMin="225" yMin="0" xMax="438" yMax="1073">
      <contour>
        <pt x="438" y="213" on="1"/>
        <pt x="438" y="0" on="1"/>
        <pt x="225" y="0" on="1"/>
        <pt x="225" y="213" on="1"/>
      </contour>
      <contour>
        <pt x="438" y="1073" on="1"/>
        <pt x="438" y="860" on="1"/>
        <pt x="225" y="860" on="1"/>
        <pt x="225" y="1073" on="1"/>
      </contour>
    </TTGlyph>
    <TTGlyph name="comma" xMin="178" yMin="-301" xMax="393" yMax="213">
      <contour>
        <pt x="178" y="213" on="1"/>
        <pt x="393" y="213" on="1"/>
        <pt x="393" y="-32" on="1"/>
        <pt x="393" y="-301" on="0"/>
        <pt x="178" y="-301" on="1"/>
        <pt x="178" y="-223" on="1"/>
        <pt x="266" y="-219" on="0"/>
        <pt x="287" y="-155" on="1"/>
        <pt x="301" y="-116" on="0"/>
        <pt x="301" y="-36" on="1"/>
        <pt x="301" y="0" on="1"/>
        <pt x="178" y="0" on="1"/>
      </contour>
    </TTGlyph>
    <TTGlyph name="dollar" xMin="70" yMin="-258" xMax="1064" yMax="1577">
      <contour>
        <pt x="501" y="1577" on="1"/>
        <pt x="622" y="1577" on="1"/>
        <pt x="622" y="1466" on="1"/>
        <pt x="880" y="1448" on="0"/>
        <pt x="976" y="1257" on="1"/>
        <pt x="1015" y="1180" on="0"/>
        <pt x="1019" y="1083" on="1"/>
        <pt x="1019" y="1063" on="1"/>
        <pt x="858" y="1063" on="1"/>
        <pt x="856" y="1221" on="0"/>
        <pt x="739" y="1290" on="1"/>
        <pt x="698" y="1313" on="0"/>
        <pt x="649" y="1321" on="1"/>
        <pt x="636" y="1323" on="0"/>
        <pt x="622" y="1323" on="1"/>
        <pt x="622" y="813" on="1"/>
        <pt x="827" y="750" on="0"/>
        <pt x="890" y="715" on="1"/>
        <pt x="1064" y="616" on="0"/>
        <pt x="1064" y="399" on="1"/>
        <pt x="1064" y="186" on="0"/>
        <pt x="925" y="61" on="1"/>
        <pt x="903" y="41" on="0"/>
        <pt x="876" y="25" on="1"/>
        <pt x="776" y="-34" on="0"/>
        <pt x="622" y="-47" on="1"/>
        <pt x="622" y="-258" on="1"/>
        <pt x="501" y="-258" on="1"/>
        <pt x="501" y="-47" on="1"/>
        <pt x="186" y="-26" on="0"/>
        <pt x="98" y="213" on="1"/>
        <pt x="70" y="293" on="0"/>
        <pt x="70" y="390" on="1"/>
        <pt x="70" y="408" on="0"/>
        <pt x="71" y="426" on="1"/>
        <pt x="233" y="426" on="1"/>
        <pt x="247" y="274" on="0"/>
        <pt x="276" y="225" on="1"/>
        <pt x="280" y="219" on="0"/>
        <pt x="284" y="211" on="1"/>
        <pt x="356" y="113" on="0"/>
        <pt x="501" y="94" on="1"/>
        <pt x="501" y="651" on="1"/>
        <pt x="311" y="709" on="0"/>
        <pt x="243" y="758" on="1"/>
        <pt x="98" y="862" on="0"/>
        <pt x="98" y="1057" on="1"/>
        <pt x="98" y="1356" on="0"/>
        <pt x="384" y="1442" on="1"/>
        <pt x="438" y="1458" on="0"/>
        <pt x="501" y="1466" on="1"/>
      </contour>
      <contour>
        <pt x="501" y="829" on="1"/>
        <pt x="501" y="1321" on="1"/>
        <pt x="305" y="1294" on="0"/>
        <pt x="270" y="1139" on="1"/>
        <pt x="264" y="1110" on="0"/>
        <pt x="264" y="1077" on="1"/>
        <pt x="264" y="893" on="0"/>
      </contour>
      <contour>
        <pt x="622" y="633" on="1"/>
        <pt x="622" y="94" on="1"/>
        <pt x="747" y="109" on="0"/>
        <pt x="810" y="170" on="1"/>
        <pt x="896" y="252" on="0"/>
        <pt x="896" y="375" on="1"/>
        <pt x="896" y="500" on="0"/>
        <pt x="800" y="561" on="1"/>
        <pt x="741" y="598" on="0"/>
      </contour>
    </TTGlyph>
    <TTGlyph name="eight" xMin="74" yMin="0" xMax="1004" yMax="1500">
      <contour>
        <pt x="539" y="1350" on="1"/>
        <pt x="254" y="1350" on="0"/>
        <pt x="254" y="1100" on="1"/>
        <pt x="254" y="850" on="0"/>
        <pt x="539" y="850" on="1"/>
        <pt x="824" y="850" on="0"/>
        <pt x="824" y="1100" on="1"/>
        <pt x="824" y="1350" on="0"/>
      </contour>
      <contour>
        <pt x="539" y="700" on="1"/>
        <pt x="224" y="700" on="0"/>
        <pt x="224" y="425" on="1"/>
        <pt x="224" y="150" on="0"/>
        <pt x="539" y="150" on="1"/>
        <pt x="854" y="150" on="0"/>
        <pt x="854" y="425" on="1"/>
        <pt x="854" y="700" on="0"/>
      </contour>
      <contour>
        <pt x="237" y="780" on="1"/>
        <pt x="104" y="878" on="0"/>
        <pt x="104" y="1100" on="1"/>
        <pt x="104" y="1500" on="0"/>
        <pt x="539" y="1500" on="1"/>
        <pt x="974" y="1500" on="0"/>
        <pt x="974" y="1100" on="1"/>
        <pt x="974" y="878" on="0"/>
        <pt x="841" y="780" on="1"/>
        <pt x="1004" y="677" on="0"/>
        <pt x="1004" y="425" on="1"/>
        <pt x="1004" y="0" on="0"/>
        <pt x="539" y="0" on="1"/>
        <pt x="74" y="0" on="0"/>
        <pt x="74" y="425" on="1"/>
        <pt x="74" y="677" on="0"/>
      </contour>
    </TTGlyph>
    <TTGlyph name="equal" xMin="102" yMin="227" xMax="1093" yMax="723">
      <contour>
        <pt x="1093" y="723" on="1"/>
        <pt x="1093" y="580" on="1"/>
        <pt x="102" y="580" on="1"/>
        <pt x="102" y="723" on="1"/>
      </contour>
      <contour>
        <pt x="1093" y="371" on="1"/>
        <pt x="1093" y="227" on="1"/>
        <pt x="102" y="227" on="1"/>
        <pt x="102" y="371" on="1"/>
      </contour>
    </TTGlyph>
    <TTGlyph name="exclam" xMin="450" yMin="0" xMax="622" yMax="1493">
      <contour>
        <pt x="612" y="1493" on="1"/>
        <pt x="612" y="801" on="1"/>
        <pt x="572" y="344" on="1"/>
        <pt x="502" y="344" on="1"/>
        <pt x="462" y="801" on="1"/>
        <pt x="462" y="1493" on="1"/>
      </contour>
      <contour>
        <pt x="622" y="213" on="1"/>
        <pt x="622" y="0" on="1"/>
        <pt x="450" y="0" on="1"/>
        <pt x="450" y="213" on="1"/>
      </contour>
    </TTGlyph>
    <TTGlyph name="five" xMin="124" yMin="0" xMax="1039" yMax="1500">
      <contour>
        <pt x="1039" y="500" on="1"/>
        <pt x="1039" y="0" on="0"/>
        <pt x="602" y="0" on="1"/>
        <pt x="174" y="0" on="0"/>
        <pt x="124" y="397" on="1"/>
        <pt x="274" y="397" on="1"/>
        <pt x="324" y="150" on="0"/>
        <pt x="602" y="150" on="1"/>
        <pt x="889" y="150" on="0"/>
        <pt x="889" y="500" on="1"/>
        <pt x="889" y="850" on="0"/>
        <pt x="612" y="850" on="1"/>
        <pt x="410" y="850" on="0"/>
        <pt x="324" y="722" on="1"/>
        <pt x="179" y="722" on="1"/>
        <pt x="249" y="1500" on="1"/>
        <pt x="969" y="1500" on="1"/>
        <pt x="969" y="1350" on="1"/>
        <pt x="384" y="1350" on="1"/>
        <pt x="347" y="949" on="1"/>
        <pt x="454" y="1000" on="0"/>
        <pt x="612" y="1000" on="1"/>
        <pt x="1039" y="1000" on="0"/>
      </contour>
    </TTGlyph>
    <TTGlyph name="four" xMin="40" yMin="0" xMax="1040" yMax="1500">
      <contour>
        <pt x="698" y="1231" on="1"/>
        <pt x="221" y="519" on="1"/>
        <pt x="698" y="519" on="1"/>
      </contour>
      <contour>
        <pt x="698" y="1500" on="1"/>
        <pt x="848" y="1500" on="1"/>
        <pt x="848" y="519" on="1"/>
        <pt x="1040" y="519" on="1"/>
        <pt x="1040" y="369" on="1"/>
        <pt x="848" y="369" on="1"/>
        <pt x="848" y="0" on="1"/>
        <pt x="698" y="0" on="1"/>
        <pt x="698" y="369" on="1"/>
        <pt x="40" y="369" on="1"/>
        <pt x="40" y="519" on="1"/>
      </contour>
    </TTGlyph>
    <TTGlyph name="glyph139" xMin="-900" yMin="-700" xMax="350" yMax="1500">
      <contour>
        <pt x="-850" y="-220" on="1"/>
        <pt x="-900" y="-220" on="1"/>
        <pt x="-900" y="-100" on="1"/>
        <pt x="-650" y="-100" on="1"/>
        <pt x="-650" y="-350" on="1"/>
        <pt x="-650" y="-500" on="0"/>
        <pt x="-500" y="-500" on="1"/>
        <pt x="-350" y="-500" on="0"/>
        <pt x="-350" y="-350" on="1"/>
        <pt x="-350" y="-100" on="1"/>
        <pt x="-150" y="-100" on="1"/>
        <pt x="-150" y="-350" on="1"/>
        <pt x="-150" y="-500" on="0"/>
        <pt x="0" y="-500" on="1"/>
        <pt x="150" y="-500" on="0"/>
        <pt x="150" y="-350" on="1"/>
        <pt x="150" y="1500" on="1"/>
        <pt x="350" y="1500" on="1"/>
        <pt x="350" y="-350" on="1"/>
        <pt x="350" y="-700" on="0"/>
        <pt x="0" y="-700" on="1"/>
        <pt x="-162" y="-700" on="0"/>
        <pt x="-249" y="-624" on="1"/>
        <pt x="-337" y="-700" on="0"/>
        <pt x="-500" y="-700" on="1"/>
        <pt x="-850" y="-700" on="0"/>
        <pt x="-850" y="-350" on="1"/>
      </contour>
    </TTGlyph>
    <TTGlyph name="glyph144" xMin="-1150" yMin="-700" xMax="350" yMax="1500">
      <contour>
        <pt x="-750" y="-350" on="1"/>
        <pt x="-750" y="-250" on="0"/>
        <pt x="-850" y="-250" on="1"/>
        <pt x="-950" y="-250" on="0"/>
        <pt x="-950" y="-350" on="1"/>
        <pt x="-950" y="-550" on="1"/>
        <pt x="-850" y="-550" on="1"/>
        <pt x="-850" y="-700" on="1"/>
        <pt x="-1150" y="-700" on="1"/>
        <pt x="-1150" y="-350" on="1"/>
        <pt x="-1150" y="-100" on="0"/>
        <pt x="-850" y="-100" on="1"/>
        <pt x="-550" y="-100" on="0"/>
        <pt x="-550" y="-350" on="1"/>
        <pt x="-550" y="-500" on="0"/>
        <pt x="-425" y="-500" on="1"/>
        <pt x="-300" y="-500" on="0"/>
        <pt x="-300" y="-350" on="1"/>
        <pt x="-300" y="-100" on="1"/>
        <pt x="-100" y="-100" on="1"/>
        <pt x="-100" y="-350" on="1"/>
        <pt x="-100" y="-500" on="0"/>
        <pt x="25" y="-500" on="1"/>
        <pt x="150" y="-500" on="0"/>
        <pt x="150" y="-350" on="1"/>
        <pt x="150" y="1500" on="1"/>
        <pt x="350" y="1500" on="1"/>
        <pt x="350" y="-350" on="1"/>
        <pt x="350" y="-700" on="0"/>
        <pt x="20" y="-700" on="1"/>
        <pt x="-112" y="-700" on="0"/>
        <pt x="-199" y="-624" on="1"/>
        <pt x="-287" y="-700" on="0"/>
        <pt x="-430" y="-700" on="1"/>
        <pt x="-750" y="-700" on="0"/>
      </contour>
    </TTGlyph>
    <TTGlyph name="glyph146" xMin="-1800" yMin="-700" xMax="-150" yMax="-50">
      <contour>
        <pt x="-1800" y="-477" on="1"/>
        <pt x="-1500" y="-477" on="1"/>
        <pt x="-1152" y="-477" on="0"/>
        <pt x="-646" y="-610" on="0"/>
        <pt x="-498" y="-610" on="1"/>
        <pt x="-350" y="-610" on="0"/>
        <pt x="-350" y="-566" on="1"/>
        <pt x="-560" y="-566" on="1"/>
        <pt x="-560" y="-455" on="1"/>
        <pt x="-150" y="-455" on="1"/>
        <pt x="-150" y="-550" on="1"/>
        <pt x="-150" y="-700" on="0"/>
        <pt x="-550" y="-700" on="1"/>
        <pt x="-798" y="-700" on="0"/>
        <pt x="-1253" y="-618" on="0"/>
        <pt x="-1500" y="-618" on="1"/>
        <pt x="-1800" y="-618" on="1"/>
      </contour>
      <contour>
        <pt x="-150" y="-50" on="1"/>
        <pt x="-150" y="-410" on="1"/>
        <pt x="-350" y="-410" on="1"/>
        <pt x="-350" y="-201" on="1"/>
        <pt x="-800" y="-201" on="1"/>
        <pt x="-800" y="-410" on="1"/>
        <pt x="-1000" y="-410" on="1"/>
        <pt x="-1000" y="-200" on="1"/>
        <pt x="-1300" y="-325" on="1"/>
        <pt x="-1600" y="-200" on="1"/>
        <pt x="-1600" y="-277" on="1"/>
        <pt x="-1510" y="-277" on="1"/>
        <pt x="-1510" y="-410" on="1"/>
        <pt x="-1800" y="-410" on="1"/>
        <pt x="-1800" y="-50" on="1"/>
        <pt x="-1600" y="-50" on="1"/>
        <pt x="-1300" y="-175" on="1"/>
        <pt x="-1000" y="-50" on="1"/>
      </contour>
    </TTGlyph>
    <TTGlyph name="glyph150" xMin="-1100" yMin="-700" xMax="350" yMax="1500">
      <contour>
        <pt x="-200" y="-390" on="1"/>
        <pt x="-100" y="-390" on="1"/>
        <pt x="47" y="-390" on="0"/>
        <pt x="150" y="-479" on="1"/>
        <pt x="150" y="1500" on="1"/>
        <pt x="350" y="1500" on="1"/>
        <pt x="350" y="-700" on="1"/>
        <pt x="150" y="-700" on="1"/>
        <pt x="150" y="-643" on="0"/>
        <pt x="-4" y="-540" on="0"/>
        <pt x="-100" y="-540" on="1"/>
        <pt x="-200" y="-540" on="1"/>
        <pt x="-200" y="-700" on="1"/>
        <pt x="-400" y="-700" on="1"/>
        <pt x="-400" y="-285" on="1"/>
        <pt x="-650" y="-442" on="1"/>
        <pt x="-900" y="-285" on="1"/>
        <pt x="-900" y="-550" on="1"/>
        <pt x="-800" y="-550" on="1"/>
        <pt x="-800" y="-700" on="1"/>
        <pt x="-1100" y="-700" on="1"/>
        <pt x="-1100" y="-100" on="1"/>
        <pt x="-900" y="-100" on="1"/>
        <pt x="-650" y="-257" on="1"/>
        <pt x="-400" y="-100" on="1"/>
        <pt x="-200" y="-100" on="1"/>
      </contour>
    </TTGlyph>
    <TTGlyph name="glyph157" xMin="-400" yMin="-700" xMax="350" yMax="1500">
      <contour>
        <pt x="150" y="-443" on="1"/>
        <pt x="150" y="1500" on="1"/>
        <pt x="350" y="1500" on="1"/>
        <pt x="350" y="-700" on="1"/>
        <pt x="150" y="-700" on="1"/>
        <pt x="-25" y="-515" on="1"/>
        <pt x="-200" y="-700" on="1"/>
        <pt x="-400" y="-700" on="1"/>
        <pt x="-400" y="-100" on="1"/>
        <pt x="-150" y="-100" on="1"/>
        <pt x="-150" y="-300" on="1"/>
        <pt x="-200" y="-300" on="1"/>
        <pt x="-200" y="-443" on="1"/>
        <pt x="-25" y="-258" on="1"/>
      </contour>
    </TTGlyph>
    <TTGlyph name="glyph162" xMin="-400" yMin="-700" xMax="350" yMax="1500">
      <contour>
        <pt x="350" y="-400" on="1"/>
        <pt x="350" y="-700" on="0"/>
        <pt x="-25" y="-700" on="1"/>
        <pt x="-400" y="-700" on="0"/>
        <pt x="-400" y="-400" on="1"/>
        <pt x="-400" y="-100" on="1"/>
        <pt x="-150" y="-100" on="1"/>
        <pt x="-150" y="-300" on="1"/>
        <pt x="-200" y="-300" on="1"/>
        <pt x="-200" y="-400" on="1"/>
        <pt x="-200" y="-500" on="0"/>
        <pt x="-25" y="-500" on="1"/>
        <pt x="150" y="-500" on="0"/>
        <pt x="150" y="-400" on="1"/>
        <pt x="150" y="1500" on="1"/>
        <pt x="350" y="1500" on="1"/>
      </contour>
    </TTGlyph>
    <TTGlyph name="glyph166" xMin="-400" yMin="-700" xMax="450" yMax="1500">
      <contour>
        <pt x="350" y="0" on="1"/>
        <pt x="350" y="-400" on="1"/>
        <pt x="350" y="-700" on="0"/>
        <pt x="0" y="-700" on="1"/>
        <pt x="-350" y="-700" on="0"/>
        <pt x="-350" y="-400" on="1"/>
        <pt x="-350" y="-300" on="1"/>
        <pt x="-400" y="-300" on="1"/>
        <pt x="-400" y="-100" on="1"/>
        <pt x="-150" y="-100" on="1"/>
        <pt x="-150" y="-400" on="1"/>
        <pt x="-150" y="-500" on="0"/>
        <pt x="0" y="-500" on="1"/>
        <pt x="150" y="-500" on="0"/>
        <pt x="150" y="-400" on="1"/>
        <pt x="150" y="0" on="1"/>
        <pt x="0" y="0" on="1"/>
        <pt x="0" y="200" on="1"/>
        <pt x="150" y="200" on="1"/>
        <pt x="150" y="1500" on="1"/>
        <pt x="350" y="1500" on="1"/>
        <pt x="350" y="200" on="1"/>
        <pt x="450" y="200" on="1"/>
        <pt x="450" y="0" on="1"/>
      </contour>
    </TTGlyph>
    <TTGlyph name="glyph169" xMin="-400" yMin="-1200" xMax="-200" yMax="-750">
      <contour>
        <pt x="-200" y="-750" on="1"/>
        <pt x="-200" y="-1200" on="1"/>
        <pt x="-400" y="-1200" on="1"/>
        <pt x="-400" y="-750" on="1"/>
      </contour>
    </TTGlyph>
    <TTGlyph name="glyph170" xMin="-800" yMin="-1200" xMax="-200" yMax="-750">
      <contour>
        <pt x="-800" y="-750" on="1"/>
        <pt x="-600" y="-750" on="1"/>
        <pt x="-600" y="-950" on="1"/>
        <pt x="-600" y="-1050" on="0"/>
        <pt x="-500" y="-1050" on="1"/>
        <pt x="-400" y="-1050" on="0"/>
        <pt x="-400" y="-950" on="1"/>
        <pt x="-400" y="-750" on="1"/>
        <pt x="-200" y="-750" on="1"/>
        <pt x="-200" y="-950" on="1"/>
        <pt x="-200" y="-1200" on="0"/>
        <pt x="-500" y="-1200" on="1"/>
        <pt x="-800" y="-1200" on="0"/>
        <pt x="-800" y="-950" on="1"/>
      </contour>
    </TTGlyph>
    <TTGlyph name="glyph171" xMin="-850" yMin="-1200" xMax="-200" yMax="-750">
      <contour>
        <pt x="-850" y="-750" on="1"/>
        <pt x="-650" y="-750" on="1"/>
        <pt x="-650" y="-1045" on="1"/>
        <pt x="-525" y="-947" on="1"/>
        <pt x="-400" y="-1045" on="1"/>
        <pt x="-400" y="-750" on="1"/>
        <pt x="-200" y="-750" on="1"/>
        <pt x="-200" y="-1200" on="1"/>
        <pt x="-400" y="-1200" on="1"/>
        <pt x="-525" y="-1102" on="1"/>
        <pt x="-650" y="-1200" on="1"/>
        <pt x="-850" y="-1200" on="1"/>
      </contour>
    </TTGlyph>
    <TTGlyph name="glyph172" xMin="-1050" yMin="1950" xMax="-150" yMax="2350">
      <contour>
        <pt x="-1050" y="2100" on="1"/>
        <pt x="-1050" y="2200" on="0"/>
        <pt x="-960" y="2275" on="1"/>
        <pt x="-870" y="2350" on="0"/>
        <pt x="-690" y="2350" on="1"/>
        <pt x="-541" y="2350" on="0"/>
        <pt x="-400" y="2275" on="1"/>
        <pt x="-260" y="2200" on="0"/>
        <pt x="-150" y="2100" on="1"/>
        <pt x="-150" y="1950" on="1"/>
        <pt x="-900" y="1950" on="1"/>
        <pt x="-1050" y="1950" on="0"/>
      </contour>
      <contour>
        <pt x="-780" y="2200" on="0"/>
        <pt x="-815" y="2175" on="1"/>
        <pt x="-850" y="2150" on="0"/>
        <pt x="-850" y="2100" on="1"/>
        <pt x="-382" y="2100" on="1"/>
        <pt x="-454" y="2150" on="0"/>
        <pt x="-542" y="2175" on="1"/>
        <pt x="-630" y="2200" on="0"/>
        <pt x="-705" y="2200" on="1"/>
      </contour>
    </TTGlyph>
    <TTGlyph name="glyph173" xMin="-1050" yMin="1950" xMax="-150" yMax="2400">
      <contour>
        <pt x="-815" y="2175" on="1"/>
        <pt x="-850" y="2150" on="0"/>
        <pt x="-850" y="2100" on="1"/>
        <pt x="-382" y="2100" on="1"/>
        <pt x="-454" y="2150" on="0"/>
        <pt x="-542" y="2175" on="1"/>
        <pt x="-630" y="2200" on="0"/>
        <pt x="-705" y="2200" on="1"/>
        <pt x="-780" y="2200" on="0"/>
      </contour>
      <contour>
        <pt x="-330" y="2235" on="1"/>
        <pt x="-330" y="2400" on="1"/>
        <pt x="-150" y="2400" on="1"/>
        <pt x="-150" y="1950" on="1"/>
        <pt x="-900" y="1950" on="1"/>
        <pt x="-1050" y="1950" on="0"/>
        <pt x="-1050" y="2100" on="1"/>
        <pt x="-1050" y="2200" on="0"/>
        <pt x="-960" y="2275" on="1"/>
        <pt x="-870" y="2350" on="0"/>
        <pt x="-690" y="2350" on="1"/>
        <pt x="-541" y="2350" on="0"/>
        <pt x="-400" y="2275" on="1"/>
        <pt x="-364" y="2256" on="0"/>
      </contour>
    </TTGlyph>
    <TTGlyph name="glyph174" xMin="-1050" yMin="1950" xMax="-100" yMax="2399">
      <contour>
        <pt x="-815" y="2175" on="1"/>
        <pt x="-850" y="2150" on="0"/>
        <pt x="-850" y="2100" on="1"/>
        <pt x="-382" y="2100" on="1"/>
        <pt x="-454" y="2150" on="0"/>
        <pt x="-542" y="2175" on="1"/>
        <pt x="-630" y="2200" on="0"/>
        <pt x="-705" y="2200" on="1"/>
        <pt x="-780" y="2200" on="0"/>
      </contour>
      <contour>
        <pt x="-384" y="2267" on="1"/>
        <pt x="-305" y="2223" on="0"/>
        <pt x="-236" y="2171" on="1"/>
        <pt x="-218" y="2190" on="0"/>
        <pt x="-218" y="2224" on="1"/>
        <pt x="-218" y="2262" on="0"/>
        <pt x="-241" y="2280" on="1"/>
        <pt x="-263" y="2299" on="0"/>
        <pt x="-307" y="2299" on="1"/>
        <pt x="-365" y="2299" on="0"/>
      </contour>
      <contour>
        <pt x="-493" y="2316" on="1"/>
        <pt x="-449" y="2399" on="0"/>
        <pt x="-307" y="2399" on="1"/>
        <pt x="-204" y="2399" on="0"/>
        <pt x="-152" y="2355" on="1"/>
        <pt x="-100" y="2312" on="0"/>
        <pt x="-100" y="2224" on="1"/>
        <pt x="-100" y="2137" on="0"/>
        <pt x="-149" y="2093" on="1"/>
        <pt x="-150" y="1950" on="1"/>
        <pt x="-900" y="1950" on="1"/>
        <pt x="-1050" y="1950" on="0"/>
        <pt x="-1050" y="2100" on="1"/>
        <pt x="-1050" y="2200" on="0"/>
        <pt x="-960" y="2275" on="1"/>
        <pt x="-870" y="2350" on="0"/>
        <pt x="-690" y="2350" on="1"/>
        <pt x="-590" y="2350" on="0"/>
      </contour>
    </TTGlyph>
    <TTGlyph name="glyph175" xMin="-1050" yMin="1950" xMax="-150" yMax="2450">
      <contour>
        <pt x="-815" y="2175" on="1"/>
        <pt x="-850" y="2150" on="0"/>
        <pt x="-850" y="2100" on="1"/>
        <pt x="-382" y="2100" on="1"/>
        <pt x="-454" y="2150" on="0"/>
        <pt x="-542" y="2175" on="1"/>
        <pt x="-630" y="2200" on="0"/>
        <pt x="-705" y="2200" on="1"/>
        <pt x="-780" y="2200" on="0"/>
      </contour>
      <contour>
        <pt x="-509" y="2322" on="1"/>
        <pt x="-510" y="2450" on="1"/>
        <pt x="-390" y="2450" on="1"/>
        <pt x="-389" y="2270" on="1"/>
        <pt x="-326" y="2235" on="0"/>
        <pt x="-270" y="2195" on="1"/>
        <pt x="-270" y="2400" on="1"/>
        <pt x="-150" y="2400" on="1"/>
        <pt x="-150" y="1950" on="1"/>
        <pt x="-900" y="1950" on="1"/>
        <pt x="-1050" y="1950" on="0"/>
        <pt x="-1050" y="2100" on="1"/>
        <pt x="-1050" y="2200" on="0"/>
        <pt x="-960" y="2275" on="1"/>
        <pt x="-870" y="2350" on="0"/>
        <pt x="-690" y="2350" on="1"/>
        <pt x="-598" y="2350" on="0"/>
      </contour>
    </TTGlyph>
    <TTGlyph name="glyph176" xMin="-950" yMin="1900" xMax="-350" yMax="2500">
      <contour>
        <pt x="-675" y="2300" on="0"/>
        <pt x="-723" y="2274" on="0"/>
        <pt x="-750" y="2226" on="0"/>
        <pt x="-750" y="2200" on="1"/>
        <pt x="-750" y="2174" on="0"/>
        <pt x="-723" y="2126" on="0"/>
        <pt x="-675" y="2100" on="0"/>
        <pt x="-650" y="2100" on="1"/>
        <pt x="-624" y="2100" on="0"/>
        <pt x="-576" y="2126" on="0"/>
        <pt x="-550" y="2174" on="0"/>
        <pt x="-550" y="2200" on="1"/>
        <pt x="-550" y="2226" on="0"/>
        <pt x="-577" y="2274" on="0"/>
        <pt x="-624" y="2300" on="0"/>
        <pt x="-650" y="2300" on="1"/>
      </contour>
      <contour>
        <pt x="-650" y="2500" on="1"/>
        <pt x="-574" y="2500" on="0"/>
        <pt x="-431" y="2423" on="0"/>
        <pt x="-350" y="2278" on="0"/>
        <pt x="-350" y="2200" on="1"/>
        <pt x="-350" y="2122" on="0"/>
        <pt x="-429" y="1979" on="0"/>
        <pt x="-572" y="1900" on="0"/>
        <pt x="-650" y="1900" on="1"/>
        <pt x="-727" y="1900" on="0"/>
        <pt x="-870" y="1979" on="0"/>
        <pt x="-950" y="2122" on="0"/>
        <pt x="-950" y="2200" on="1"/>
        <pt x="-950" y="2278" on="0"/>
        <pt x="-869" y="2423" on="0"/>
        <pt x="-726" y="2500" on="0"/>
      </contour>
    </TTGlyph>
    <TTGlyph name="glyph177" xMin="-950" yMin="1900" xMax="-350" yMax="2500">
      <contour>
        <pt x="-550" y="2300" on="1"/>
        <pt x="-350" y="2300" on="1"/>
        <pt x="-350" y="2100" on="1"/>
        <pt x="-550" y="2100" on="1"/>
        <pt x="-550" y="1900" on="1"/>
        <pt x="-750" y="1900" on="1"/>
        <pt x="-750" y="2100" on="1"/>
        <pt x="-950" y="2100" on="1"/>
        <pt x="-950" y="2300" on="1"/>
        <pt x="-750" y="2300" on="1"/>
        <pt x="-750" y="2500" on="1"/>
        <pt x="-550" y="2500" on="1"/>
      </contour>
    </TTGlyph>
    <TTGlyph name="glyph178" xMin="-900" yMin="1950" xMax="0" yMax="2350">
      <contour>
        <pt x="-900" y="2150" on="1"/>
        <pt x="-900" y="2340" on="0"/>
        <pt x="-600" y="2340" on="1"/>
        <pt x="-550" y="2340" on="1"/>
        <pt x="-550" y="2200" on="1"/>
        <pt x="-603" y="2200" on="1"/>
        <pt x="-700" y="2200" on="0"/>
        <pt x="-700" y="2150" on="1"/>
        <pt x="-700" y="2100" on="0"/>
        <pt x="-460" y="2100" on="1"/>
        <pt x="-200" y="2100" on="0"/>
        <pt x="-200" y="2350" on="1"/>
        <pt x="0" y="2350" on="1"/>
        <pt x="0" y="1950" on="0"/>
        <pt x="-460" y="1950" on="1"/>
        <pt x="-900" y="1950" on="0"/>
      </contour>
    </TTGlyph>
    <TTGlyph name="glyph179" xMin="150" yMin="0" xMax="1800" yMax="1500">
      <contour>
        <pt x="1150" y="1300" on="1"/>
        <pt x="1150" y="0" on="1"/>
        <pt x="950" y="0" on="1"/>
        <pt x="950" y="1277" on="1"/>
        <pt x="741" y="1075" on="1"/>
        <pt x="559" y="1075" on="1"/>
        <pt x="350" y="1277" on="1"/>
        <pt x="350" y="1100" on="1"/>
        <pt x="350" y="990" on="0"/>
        <pt x="600" y="980" on="1"/>
        <pt x="600" y="780" on="1"/>
        <pt x="588" y="780" on="1"/>
        <pt x="350" y="780" on="0"/>
        <pt x="350" y="400" on="1"/>
        <pt x="350" y="297" on="0"/>
        <pt x="392" y="244" on="1"/>
        <pt x="415" y="214" on="0"/>
        <pt x="439" y="214" on="1"/>
        <pt x="458" y="214" on="0"/>
        <pt x="477" y="234" on="1"/>
        <pt x="494" y="250" on="0"/>
        <pt x="494" y="279" on="1"/>
        <pt x="494" y="326" on="0"/>
        <pt x="451" y="405" on="1"/>
        <pt x="392" y="503" on="1"/>
        <pt x="546" y="610" on="1"/>
        <pt x="613" y="526" on="1"/>
        <pt x="700" y="437" on="0"/>
        <pt x="700" y="260" on="1"/>
        <pt x="700" y="170" on="0"/>
        <pt x="610" y="82" on="1"/>
        <pt x="526" y="0" on="0"/>
        <pt x="439" y="0" on="1"/>
        <pt x="341" y="0" on="0"/>
        <pt x="150" y="206" on="0"/>
        <pt x="150" y="400" on="1"/>
        <pt x="150" y="733" on="0"/>
        <pt x="287" y="850" on="1"/>
        <pt x="150" y="917" on="0"/>
        <pt x="150" y="1100" on="1"/>
        <pt x="150" y="1500" on="1"/>
        <pt x="407" y="1500" on="1"/>
        <pt x="650" y="1265" on="1"/>
        <pt x="893" y="1500" on="1"/>
        <pt x="1450" y="1500" on="1"/>
        <pt x="1800" y="1500" on="0"/>
        <pt x="1800" y="1100" on="1"/>
        <pt x="1800" y="0" on="1"/>
        <pt x="1600" y="0" on="1"/>
        <pt x="1600" y="1100" on="1"/>
        <pt x="1600" y="1300" on="0"/>
        <pt x="1450" y="1300" on="1"/>
      </contour>
    </TTGlyph>
    <TTGlyph name="glyph180" xMin="-1750" yMin="-700" xMax="-850" yMax="-100">
      <contour>
        <pt x="-1050" y="-700" on="1"/>
        <pt x="-1050" y="-400" on="1"/>
        <pt x="-1050" y="-250" on="0"/>
        <pt x="-1300" y="-250" on="1"/>
        <pt x="-1550" y="-250" on="0"/>
        <pt x="-1550" y="-400" on="1"/>
        <pt x="-1550" y="-500" on="1"/>
        <pt x="-1400" y="-500" on="1"/>
        <pt x="-1400" y="-700" on="1"/>
        <pt x="-1750" y="-700" on="1"/>
        <pt x="-1750" y="-400" on="1"/>
        <pt x="-1750" y="-100" on="0"/>
        <pt x="-1300" y="-100" on="1"/>
        <pt x="-850" y="-100" on="0"/>
        <pt x="-850" y="-400" on="1"/>
        <pt x="-850" y="-700" on="1"/>
      </contour>
    </TTGlyph>
    <TTGlyph name="glyph181" xMin="-1050" yMin="-1200" xMax="-850" yMax="-750">
      <contour>
        <pt x="-850" y="-750" on="1"/>
        <pt x="-850" y="-1200" on="1"/>
        <pt x="-1050" y="-1200" on="1"/>
        <pt x="-1050" y="-750" on="1"/>
      </contour>
    </TTGlyph>
    <TTGlyph name="glyph182" xMin="-1450" yMin="-1200" xMax="-850" yMax="-750">
      <contour>
        <pt x="-1450" y="-750" on="1"/>
        <pt x="-1250" y="-750" on="1"/>
        <pt x="-1250" y="-950" on="1"/>
        <pt x="-1250" y="-1050" on="0"/>
        <pt x="-1150" y="-1050" on="1"/>
        <pt x="-1050" y="-1050" on="0"/>
        <pt x="-1050" y="-950" on="1"/>
        <pt x="-1050" y="-750" on="1"/>
        <pt x="-850" y="-750" on="1"/>
        <pt x="-850" y="-950" on="1"/>
        <pt x="-850" y="-1200" on="0"/>
        <pt x="-1150" y="-1200" on="1"/>
        <pt x="-1450" y="-1200" on="0"/>
        <pt x="-1450" y="-950" on="1"/>
      </contour>
    </TTGlyph>
    <TTGlyph name="glyph183" xMin="-1500" yMin="-1200" xMax="-850" yMax="-750">
      <contour>
        <pt x="-1500" y="-750" on="1"/>
        <pt x="-1300" y="-750" on="1"/>
        <pt x="-1300" y="-1025" on="1"/>
        <pt x="-1175" y="-927" on="1"/>
        <pt x="-1050" y="-1025" on="1"/>
        <pt x="-1050" y="-750" on="1"/>
        <pt x="-850" y="-750" on="1"/>
        <pt x="-850" y="-1200" on="1"/>
        <pt x="-1050" y="-1200" on="1"/>
        <pt x="-1175" y="-1102" on="1"/>
        <pt x="-1300" y="-1200" on="1"/>
        <pt x="-1500" y="-1200" on="1"/>
      </contour>
    </TTGlyph>
    <TTGlyph name="glyph185" xMin="-700" yMin="-1200" xMax="350" yMax="2200">
      <contour>
        <pt x="-465" y="1975" on="1"/>
        <pt x="-500" y="1950" on="0"/>
        <pt x="-500" y="1900" on="1"/>
        <pt x="-32" y="1900" on="1"/>
        <pt x="-104" y="1950" on="0"/>
        <pt x="-192" y="1975" on="1"/>
        <pt x="-280" y="2000" on="0"/>
        <pt x="-355" y="2000" on="1"/>
        <pt x="-430" y="2000" on="0"/>
      </contour>
      <contour>
        <pt x="350" y="-900" on="1"/>
        <pt x="350" y="-1200" on="0"/>
        <pt x="-25" y="-1200" on="1"/>
        <pt x="-400" y="-1200" on="0"/>
        <pt x="-400" y="-900" on="1"/>
        <pt x="-400" y="-750" on="1"/>
        <pt x="-150" y="-750" on="1"/>
        <pt x="-150" y="-850" on="1"/>
        <pt x="-200" y="-850" on="1"/>
        <pt x="-200" y="-900" on="1"/>
        <pt x="-200" y="-1000" on="0"/>
        <pt x="-25" y="-1000" on="1"/>
        <pt x="150" y="-1000" on="0"/>
        <pt x="150" y="-900" on="1"/>
        <pt x="150" y="1550" on="1"/>
        <pt x="150" y="1750" on="0"/>
        <pt x="0" y="1750" on="1"/>
        <pt x="-550" y="1750" on="1"/>
        <pt x="-700" y="1750" on="0"/>
        <pt x="-700" y="1900" on="1"/>
        <pt x="-700" y="2000" on="0"/>
        <pt x="-610" y="2075" on="1"/>
        <pt x="-520" y="2150" on="0"/>
        <pt x="-340" y="2150" on="1"/>
        <pt x="-248" y="2150" on="0"/>
        <pt x="-159" y="2122" on="1"/>
        <pt x="-160" y="2200" on="1"/>
        <pt x="-40" y="2200" on="1"/>
        <pt x="-39" y="2070" on="1"/>
        <pt x="23" y="2035" on="0"/>
        <pt x="80" y="1995" on="1"/>
        <pt x="80" y="2200" on="1"/>
        <pt x="200" y="2200" on="1"/>
        <pt x="200" y="1902" on="1"/>
        <pt x="350" y="1812" on="0"/>
        <pt x="350" y="1550" on="1"/>
      </contour>
    </TTGlyph>
    <TTGlyph name="glyph186" xMin="-400" yMin="-1200" xMax="350" yMax="2350">
      <contour>
        <pt x="150" y="1600" on="1"/>
        <pt x="150" y="1800" on="0"/>
        <pt x="0" y="1800" on="1"/>
        <pt x="-150" y="1800" on="0"/>
        <pt x="-150" y="1700" on="1"/>
        <pt x="-350" y="1700" on="1"/>
        <pt x="-350" y="2350" on="1"/>
        <pt x="-150" y="2350" on="1"/>
        <pt x="-150" y="1982" on="1"/>
        <pt x="-85" y="2000" on="0"/>
        <pt x="0" y="2000" on="1"/>
        <pt x="350" y="2000" on="0"/>
        <pt x="350" y="1600" on="1"/>
        <pt x="350" y="-900" on="1"/>
        <pt x="350" y="-1200" on="0"/>
        <pt x="-25" y="-1200" on="1"/>
        <pt x="-400" y="-1200" on="0"/>
        <pt x="-400" y="-900" on="1"/>
        <pt x="-400" y="-750" on="1"/>
        <pt x="-150" y="-750" on="1"/>
        <pt x="-150" y="-850" on="1"/>
        <pt x="-200" y="-850" on="1"/>
        <pt x="-200" y="-900" on="1"/>
        <pt x="-200" y="-1000" on="0"/>
        <pt x="-25" y="-1000" on="1"/>
        <pt x="150" y="-1000" on="0"/>
        <pt x="150" y="-900" on="1"/>
      </contour>
    </TTGlyph>
    <TTGlyph name="glyph187" xMin="-900" yMin="-1200" xMax="350" yMax="1500">
      <contour>
        <pt x="350" y="-900" on="1"/>
        <pt x="350" y="-1200" on="0"/>
        <pt x="0" y="-1200" on="1"/>
        <pt x="-162" y="-1200" on="0"/>
        <pt x="-249" y="-1124" on="1"/>
        <pt x="-337" y="-1200" on="0"/>
        <pt x="-500" y="-1200" on="1"/>
        <pt x="-850" y="-1200" on="0"/>
        <pt x="-850" y="-900" on="1"/>
        <pt x="-850" y="-860" on="1"/>
        <pt x="-900" y="-860" on="1"/>
        <pt x="-900" y="-750" on="1"/>
        <pt x="-650" y="-750" on="1"/>
        <pt x="-650" y="-900" on="1"/>
        <pt x="-650" y="-1000" on="0"/>
        <pt x="-500" y="-1000" on="1"/>
        <pt x="-350" y="-1000" on="0"/>
        <pt x="-350" y="-900" on="1"/>
        <pt x="-350" y="-750" on="1"/>
        <pt x="-150" y="-750" on="1"/>
        <pt x="-150" y="-900" on="1"/>
        <pt x="-150" y="-1000" on="0"/>
        <pt x="0" y="-1000" on="1"/>
        <pt x="150" y="-1000" on="0"/>
        <pt x="150" y="-900" on="1"/>
        <pt x="150" y="1500" on="1"/>
        <pt x="350" y="1500" on="1"/>
      </contour>
    </TTGlyph>
    <TTGlyph name="glyph188" xMin="-1150" yMin="-1200" xMax="350" yMax="1500">
      <contour>
        <pt x="350" y="-930" on="1"/>
        <pt x="350" y="-1200" on="0"/>
        <pt x="20" y="-1200" on="1"/>
        <pt x="-112" y="-1200" on="0"/>
        <pt x="-199" y="-1131" on="1"/>
        <pt x="-287" y="-1200" on="0"/>
        <pt x="-430" y="-1200" on="1"/>
        <pt x="-750" y="-1200" on="0"/>
        <pt x="-750" y="-930" on="1"/>
        <pt x="-750" y="-885" on="0"/>
        <pt x="-850" y="-885" on="1"/>
        <pt x="-950" y="-885" on="0"/>
        <pt x="-950" y="-930" on="1"/>
        <pt x="-950" y="-1065" on="1"/>
        <pt x="-850" y="-1065" on="1"/>
        <pt x="-850" y="-1200" on="1"/>
        <pt x="-1150" y="-1200" on="1"/>
        <pt x="-1150" y="-930" on="1"/>
        <pt x="-1150" y="-750" on="0"/>
        <pt x="-850" y="-750" on="1"/>
        <pt x="-550" y="-750" on="0"/>
        <pt x="-550" y="-930" on="1"/>
        <pt x="-550" y="-1020" on="0"/>
        <pt x="-425" y="-1020" on="1"/>
        <pt x="-300" y="-1020" on="0"/>
        <pt x="-300" y="-930" on="1"/>
        <pt x="-300" y="-750" on="1"/>
        <pt x="-100" y="-750" on="1"/>
        <pt x="-100" y="-930" on="1"/>
        <pt x="-100" y="-1020" on="0"/>
        <pt x="25" y="-1020" on="1"/>
        <pt x="150" y="-1020" on="0"/>
        <pt x="150" y="-930" on="1"/>
        <pt x="150" y="1500" on="1"/>
        <pt x="350" y="1500" on="1"/>
      </contour>
    </TTGlyph>
    <TTGlyph name="glyph189" xMin="-1100" yMin="-1200" xMax="350" yMax="1500">
      <contour>
        <pt x="350" y="-1200" on="1"/>
        <pt x="150" y="-1200" on="1"/>
        <pt x="150" y="-1149" on="0"/>
        <pt x="-4" y="-1102" on="0"/>
        <pt x="-100" y="-1102" on="1"/>
        <pt x="-200" y="-1102" on="1"/>
        <pt x="-200" y="-1200" on="1"/>
        <pt x="-400" y="-1200" on="1"/>
        <pt x="-400" y="-913" on="1"/>
        <pt x="-650" y="-1060" on="1"/>
        <pt x="-900" y="-922" on="1"/>
        <pt x="-900" y="-1067" on="1"/>
        <pt x="-800" y="-1067" on="1"/>
        <pt x="-800" y="-1200" on="1"/>
        <pt x="-1100" y="-1200" on="1"/>
        <pt x="-1100" y="-758" on="1"/>
        <pt x="-900" y="-758" on="1"/>
        <pt x="-650" y="-897" on="1"/>
        <pt x="-400" y="-750" on="1"/>
        <pt x="-200" y="-750" on="1"/>
        <pt x="-200" y="-970" on="1"/>
        <pt x="-100" y="-970" on="1"/>
        <pt x="47" y="-970" on="0"/>
        <pt x="150" y="-1019" on="1"/>
        <pt x="150" y="1500" on="1"/>
        <pt x="350" y="1500" on="1"/>
      </contour>
    </TTGlyph>
    <TTGlyph name="glyph190" xMin="-400" yMin="-1200" xMax="350" yMax="1500">
      <contour>
        <pt x="350" y="-1200" on="1"/>
        <pt x="150" y="-1200" on="1"/>
        <pt x="-25" y="-1045" on="1"/>
        <pt x="-200" y="-1200" on="1"/>
        <pt x="-400" y="-1200" on="1"/>
        <pt x="-400" y="-750" on="1"/>
        <pt x="-150" y="-750" on="1"/>
        <pt x="-150" y="-850" on="1"/>
        <pt x="-200" y="-850" on="1"/>
        <pt x="-200" y="-993" on="1"/>
        <pt x="-25" y="-838" on="1"/>
        <pt x="150" y="-993" on="1"/>
        <pt x="150" y="1500" on="1"/>
        <pt x="350" y="1500" on="1"/>
      </contour>
    </TTGlyph>
    <TTGlyph name="glyph191" xMin="-400" yMin="-1200" xMax="350" yMax="1500">
      <contour>
        <pt x="350" y="-950" on="1"/>
        <pt x="350" y="-1200" on="0"/>
        <pt x="-25" y="-1200" on="1"/>
        <pt x="-400" y="-1200" on="0"/>
        <pt x="-400" y="-950" on="1"/>
        <pt x="-400" y="-750" on="1"/>
        <pt x="-150" y="-750" on="1"/>
        <pt x="-150" y="-900" on="1"/>
        <pt x="-200" y="-900" on="1"/>
        <pt x="-200" y="-950" on="1"/>
        <pt x="-200" y="-1030" on="0"/>
        <pt x="-25" y="-1030" on="1"/>
        <pt x="150" y="-1030" on="0"/>
        <pt x="150" y="-950" on="1"/>
        <pt x="150" y="1500" on="1"/>
        <pt x="350" y="1500" on="1"/>
      </contour>
    </TTGlyph>
    <TTGlyph name="glyph192" xMin="150" yMin="-1200" xMax="900" yMax="1500">
      <contour>
        <pt x="350" y="-900" on="1"/>
        <pt x="350" y="-1000" on="0"/>
        <pt x="525" y="-1000" on="1"/>
        <pt x="700" y="-1000" on="0"/>
        <pt x="700" y="-900" on="1"/>
        <pt x="700" y="-850" on="1"/>
        <pt x="650" y="-850" on="1"/>
        <pt x="650" y="-750" on="1"/>
        <pt x="900" y="-750" on="1"/>
        <pt x="900" y="-900" on="1"/>
        <pt x="900" y="-1200" on="0"/>
        <pt x="525" y="-1200" on="1"/>
        <pt x="150" y="-1200" on="0"/>
        <pt x="150" y="-900" on="1"/>
        <pt x="150" y="1500" on="1"/>
        <pt x="350" y="1500" on="1"/>
      </contour>
    </TTGlyph>
    <TTGlyph name="glyph193" xMin="-400" yMin="-1200" xMax="450" yMax="1500">
      <contour>
        <pt x="350" y="-900" on="1"/>
        <pt x="350" y="-1200" on="0"/>
        <pt x="0" y="-1200" on="1"/>
        <pt x="-350" y="-1200" on="0"/>
        <pt x="-350" y="-900" on="1"/>
        <pt x="-350" y="-850" on="1"/>
        <pt x="-400" y="-850" on="1"/>
        <pt x="-400" y="-750" on="1"/>
        <pt x="-150" y="-750" on="1"/>
        <pt x="-150" y="-900" on="1"/>
        <pt x="-150" y="-1000" on="0"/>
        <pt x="0" y="-1000" on="1"/>
        <pt x="150" y="-1000" on="0"/>
        <pt x="150" y="-900" on="1"/>
        <pt x="150" y="0" on="1"/>
        <pt x="0" y="0" on="1"/>
        <pt x="0" y="200" on="1"/>
        <pt x="150" y="200" on="1"/>
        <pt x="150" y="1500" on="1"/>
        <pt x="350" y="1500" on="1"/>
        <pt x="350" y="200" on="1"/>
        <pt x="450" y="200" on="1"/>
        <pt x="450" y="0" on="1"/>
        <pt x="350" y="0" on="1"/>
      </contour>
    </TTGlyph>
    <TTGlyph name="glyph194" xMin="-800" yMin="1700" xMax="0" yMax="2100">
      <contour>
        <pt x="-800" y="1850" on="1"/>
        <pt x="-800" y="1950" on="0"/>
        <pt x="-720" y="2025" on="1"/>
        <pt x="-640" y="2100" on="0"/>
        <pt x="-480" y="2100" on="1"/>
        <pt x="-347" y="2100" on="0"/>
        <pt x="-222" y="2025" on="1"/>
        <pt x="-97" y="1950" on="0"/>
        <pt x="0" y="1850" on="1"/>
        <pt x="0" y="1700" on="1"/>
        <pt x="-666" y="1700" on="1"/>
        <pt x="-800" y="1700" on="0"/>
      </contour>
      <contour>
        <pt x="-560" y="1950" on="0"/>
        <pt x="-591" y="1925" on="1"/>
        <pt x="-622" y="1900" on="0"/>
        <pt x="-622" y="1850" on="1"/>
        <pt x="-206" y="1850" on="1"/>
        <pt x="-270" y="1900" on="0"/>
        <pt x="-348" y="1925" on="1"/>
        <pt x="-426" y="1950" on="0"/>
        <pt x="-493" y="1950" on="1"/>
      </contour>
    </TTGlyph>
    <TTGlyph name="glyph195" xMin="-800" yMin="1700" xMax="0" yMax="2150">
      <contour>
        <pt x="-591" y="1925" on="1"/>
        <pt x="-622" y="1900" on="0"/>
        <pt x="-622" y="1850" on="1"/>
        <pt x="-206" y="1850" on="1"/>
        <pt x="-270" y="1900" on="0"/>
        <pt x="-348" y="1925" on="1"/>
        <pt x="-426" y="1950" on="0"/>
        <pt x="-493" y="1950" on="1"/>
        <pt x="-560" y="1950" on="0"/>
      </contour>
      <contour>
        <pt x="-160" y="1985" on="1"/>
        <pt x="-160" y="2150" on="1"/>
        <pt x="0" y="2150" on="1"/>
        <pt x="0" y="1700" on="1"/>
        <pt x="-666" y="1700" on="1"/>
        <pt x="-800" y="1700" on="0"/>
        <pt x="-800" y="1850" on="1"/>
        <pt x="-800" y="1950" on="0"/>
        <pt x="-720" y="2025" on="1"/>
        <pt x="-640" y="2100" on="0"/>
        <pt x="-480" y="2100" on="1"/>
        <pt x="-347" y="2100" on="0"/>
        <pt x="-222" y="2025" on="1"/>
        <pt x="-190" y="2006" on="0"/>
      </contour>
    </TTGlyph>
    <TTGlyph name="glyph196" xMin="-800" yMin="1700" xMax="45" yMax="2149">
      <contour>
        <pt x="-590" y="1925" on="1"/>
        <pt x="-622" y="1900" on="0"/>
        <pt x="-622" y="1850" on="1"/>
        <pt x="-205" y="1850" on="1"/>
        <pt x="-269" y="1900" on="0"/>
        <pt x="-348" y="1925" on="1"/>
        <pt x="-426" y="1950" on="0"/>
        <pt x="-493" y="1950" on="1"/>
        <pt x="-559" y="1950" on="0"/>
      </contour>
      <contour>
        <pt x="-207" y="2017" on="1"/>
        <pt x="-137" y="1973" on="0"/>
        <pt x="-75" y="1921" on="1"/>
        <pt x="-59" y="1940" on="0"/>
        <pt x="-59" y="1974" on="1"/>
        <pt x="-59" y="2012" on="0"/>
        <pt x="-80" y="2030" on="1"/>
        <pt x="-99" y="2049" on="0"/>
        <pt x="-139" y="2049" on="1"/>
        <pt x="-190" y="2049" on="0"/>
      </contour>
      <contour>
        <pt x="-304" y="2066" on="1"/>
        <pt x="-265" y="2149" on="0"/>
        <pt x="-139" y="2149" on="1"/>
        <pt x="-47" y="2149" on="0"/>
        <pt x="-1" y="2105" on="1"/>
        <pt x="45" y="2062" on="0"/>
        <pt x="45" y="1974" on="1"/>
        <pt x="45" y="1887" on="0"/>
        <pt x="1" y="1843" on="1"/>
        <pt x="1" y="1700" on="1"/>
        <pt x="-666" y="1700" on="1"/>
        <pt x="-800" y="1700" on="0"/>
        <pt x="-800" y="1850" on="1"/>
        <pt x="-800" y="1950" on="0"/>
        <pt x="-719" y="2025" on="1"/>
        <pt x="-639" y="2100" on="0"/>
        <pt x="-479" y="2100" on="1"/>
        <pt x="-390" y="2100" on="0"/>
      </contour>
    </TTGlyph>
    <TTGlyph name="glyph197" xMin="-800" yMin="1700" xMax="0" yMax="2200">
      <contour>
        <pt x="-591" y="1925" on="1"/>
        <pt x="-622" y="1900" on="0"/>
        <pt x="-622" y="1850" on="1"/>
        <pt x="-206" y="1850" on="1"/>
        <pt x="-270" y="1900" on="0"/>
        <pt x="-348" y="1925" on="1"/>
        <pt x="-426" y="1950" on="0"/>
        <pt x="-493" y="1950" on="1"/>
        <pt x="-560" y="1950" on="0"/>
      </contour>
      <contour>
        <pt x="-319" y="2072" on="1"/>
        <pt x="-320" y="2200" on="1"/>
        <pt x="-213" y="2200" on="1"/>
        <pt x="-212" y="2020" on="1"/>
        <pt x="-156" y="1985" on="0"/>
        <pt x="-106" y="1945" on="1"/>
        <pt x="-106" y="2150" on="1"/>
        <pt x="0" y="2150" on="1"/>
        <pt x="0" y="1700" on="1"/>
        <pt x="-666" y="1700" on="1"/>
        <pt x="-800" y="1700" on="0"/>
        <pt x="-800" y="1850" on="1"/>
        <pt x="-800" y="1950" on="0"/>
        <pt x="-720" y="2025" on="1"/>
        <pt x="-640" y="2100" on="0"/>
        <pt x="-480" y="2100" on="1"/>
        <pt x="-398" y="2100" on="0"/>
      </contour>
    </TTGlyph>
    <TTGlyph name="glyph198" xMin="-700" yMin="1700" xMax="-100" yMax="2300">
      <contour>
        <pt x="-425" y="2100" on="0"/>
        <pt x="-473" y="2074" on="0"/>
        <pt x="-500" y="2026" on="0"/>
        <pt x="-500" y="2000" on="1"/>
        <pt x="-500" y="1974" on="0"/>
        <pt x="-473" y="1926" on="0"/>
        <pt x="-425" y="1900" on="0"/>
        <pt x="-400" y="1900" on="1"/>
        <pt x="-374" y="1900" on="0"/>
        <pt x="-326" y="1926" on="0"/>
        <pt x="-300" y="1974" on="0"/>
        <pt x="-300" y="2000" on="1"/>
        <pt x="-300" y="2026" on="0"/>
        <pt x="-327" y="2074" on="0"/>
        <pt x="-374" y="2100" on="0"/>
        <pt x="-400" y="2100" on="1"/>
      </contour>
      <contour>
        <pt x="-400" y="2300" on="1"/>
        <pt x="-324" y="2300" on="0"/>
        <pt x="-181" y="2223" on="0"/>
        <pt x="-100" y="2078" on="0"/>
        <pt x="-100" y="2000" on="1"/>
        <pt x="-100" y="1922" on="0"/>
        <pt x="-179" y="1779" on="0"/>
        <pt x="-322" y="1700" on="0"/>
        <pt x="-400" y="1700" on="1"/>
        <pt x="-477" y="1700" on="0"/>
        <pt x="-620" y="1779" on="0"/>
        <pt x="-700" y="1922" on="0"/>
        <pt x="-700" y="2000" on="1"/>
        <pt x="-700" y="2078" on="0"/>
        <pt x="-619" y="2223" on="0"/>
        <pt x="-476" y="2300" on="0"/>
      </contour>
    </TTGlyph>
    <TTGlyph name="glyph199" xMin="-675" yMin="1700" xMax="-125" yMax="2300">
      <contour>
        <pt x="-675" y="1700" on="1"/>
        <pt x="-675" y="2300" on="1"/>
        <pt x="-495" y="2300" on="1"/>
        <pt x="-495" y="1700" on="1"/>
      </contour>
      <contour>
        <pt x="-305" y="1700" on="1"/>
        <pt x="-305" y="2300" on="1"/>
        <pt x="-125" y="2300" on="1"/>
        <pt x="-125" y="1700" on="1"/>
      </contour>
    </TTGlyph>
    <TTGlyph name="glyph200" xMin="-900" yMin="1700" xMax="0" yMax="2200">
      <contour>
        <pt x="-700" y="1810" on="0"/>
        <pt x="-627" y="1810" on="1"/>
        <pt x="-554" y="1810" on="1"/>
        <pt x="-554" y="1700" on="1"/>
        <pt x="-627" y="1700" on="1"/>
        <pt x="-900" y="1700" on="0"/>
        <pt x="-900" y="1855" on="1"/>
        <pt x="-900" y="2050" on="0"/>
        <pt x="-600" y="2050" on="1"/>
        <pt x="-350" y="2050" on="1"/>
        <pt x="-199" y="2050" on="0"/>
        <pt x="-199" y="2200" on="1"/>
        <pt x="0" y="2200" on="1"/>
        <pt x="0" y="2150" on="1"/>
        <pt x="0" y="1900" on="0"/>
        <pt x="-350" y="1900" on="1"/>
        <pt x="-600" y="1900" on="1"/>
        <pt x="-700" y="1900" on="0"/>
        <pt x="-700" y="1855" on="1"/>
      </contour>
    </TTGlyph>
    <TTGlyph name="glyph201" xMin="-820" yMin="1700" xMax="76" yMax="2250">
      <contour>
        <pt x="-607" y="1925" on="1"/>
        <pt x="-638" y="1900" on="0"/>
        <pt x="-638" y="1850" on="1"/>
        <pt x="-215" y="1850" on="1"/>
        <pt x="-280" y="1900" on="0"/>
        <pt x="-360" y="1925" on="1"/>
        <pt x="-439" y="1950" on="0"/>
        <pt x="-507" y="1950" on="1"/>
        <pt x="-575" y="1950" on="0"/>
      </contour>
      <contour>
        <pt x="-274" y="2048" on="1"/>
        <pt x="-274" y="2100" on="1"/>
        <pt x="-214" y="2100" on="1"/>
        <pt x="-94" y="2100" on="0"/>
        <pt x="-94" y="2250" on="1"/>
        <pt x="76" y="2250" on="1"/>
        <pt x="76" y="2100" on="1"/>
        <pt x="76" y="2000" on="0"/>
        <pt x="-72" y="2000" on="1"/>
        <pt x="-126" y="2000" on="1"/>
        <pt x="-126" y="1955" on="1"/>
        <pt x="-61" y="1907" on="0"/>
        <pt x="-5" y="1850" on="1"/>
        <pt x="-5" y="1700" on="1"/>
        <pt x="-684" y="1700" on="1"/>
        <pt x="-820" y="1700" on="0"/>
        <pt x="-820" y="1850" on="1"/>
        <pt x="-820" y="1950" on="0"/>
        <pt x="-738" y="2025" on="1"/>
        <pt x="-657" y="2100" on="0"/>
        <pt x="-494" y="2100" on="1"/>
        <pt x="-381" y="2100" on="0"/>
      </contour>
    </TTGlyph>
    <TTGlyph name="glyph202" xMin="-850" yMin="-700" xMax="50" yMax="-100">
      <contour>
        <pt x="-150" y="-700" on="1"/>
        <pt x="-150" y="-400" on="1"/>
        <pt x="-150" y="-250" on="0"/>
        <pt x="-400" y="-250" on="1"/>
        <pt x="-650" y="-250" on="0"/>
        <pt x="-650" y="-400" on="1"/>
        <pt x="-650" y="-700" on="1"/>
        <pt x="-850" y="-700" on="1"/>
        <pt x="-850" y="-400" on="1"/>
        <pt x="-850" y="-100" on="0"/>
        <pt x="-400" y="-100" on="1"/>
        <pt x="50" y="-100" on="0"/>
        <pt x="50" y="-400" on="1"/>
        <pt x="50" y="-700" on="1"/>
      </contour>
    </TTGlyph>
    <TTGlyph name="glyph203" xMin="-850" yMin="-700" xMax="50" yMax="-100">
      <contour>
        <pt x="-650" y="-308" on="1"/>
        <pt x="-767" y="-308" on="1"/>
        <pt x="-850" y="-308" on="0"/>
        <pt x="-850" y="-274" on="1"/>
        <pt x="-850" y="-240" on="1"/>
        <pt x="-850" y="-100" on="0"/>
        <pt x="-400" y="-100" on="1"/>
        <pt x="50" y="-100" on="0"/>
        <pt x="50" y="-259" on="1"/>
        <pt x="50" y="-387" on="0"/>
        <pt x="-650" y="-495" on="0"/>
        <pt x="-650" y="-532" on="1"/>
        <pt x="-650" y="-600" on="0"/>
        <pt x="-400" y="-600" on="1"/>
        <pt x="-150" y="-600" on="0"/>
        <pt x="-150" y="-491" on="1"/>
        <pt x="50" y="-437" on="1"/>
        <pt x="50" y="-520" on="1"/>
        <pt x="50" y="-700" on="0"/>
        <pt x="-400" y="-700" on="1"/>
        <pt x="-850" y="-700" on="0"/>
        <pt x="-850" y="-550" on="1"/>
        <pt x="-850" y="-481" on="1"/>
        <pt x="-850" y="-412" on="0"/>
        <pt x="-150" y="-324" on="0"/>
        <pt x="-150" y="-267" on="1"/>
        <pt x="-150" y="-200" on="0"/>
        <pt x="-400" y="-200" on="1"/>
        <pt x="-650" y="-200" on="0"/>
      </contour>
    </TTGlyph>
    <TTGlyph name="glyph204" xMin="-850" yMin="-700" xMax="50" yMax="-100">
      <contour>
        <pt x="-850" y="-700" on="1"/>
        <pt x="-850" y="-400" on="1"/>
        <pt x="-850" y="-100" on="0"/>
        <pt x="-400" y="-100" on="1"/>
        <pt x="50" y="-100" on="0"/>
        <pt x="50" y="-400" on="1"/>
        <pt x="50" y="-700" on="1"/>
        <pt x="-150" y="-700" on="1"/>
        <pt x="-150" y="-400" on="1"/>
        <pt x="-150" y="-250" on="0"/>
        <pt x="-400" y="-250" on="1"/>
        <pt x="-650" y="-250" on="0"/>
        <pt x="-650" y="-400" on="1"/>
        <pt x="-650" y="-482" on="1"/>
        <pt x="-452" y="-375" on="1"/>
        <pt x="-380" y="-502" on="1"/>
        <pt x="-650" y="-685" on="1"/>
        <pt x="-650" y="-700" on="1"/>
      </contour>
    </TTGlyph>
    <TTGlyph name="glyph205" xMin="-850" yMin="-700" xMax="50" yMax="-100">
      <contour>
        <pt x="-452" y="-700" on="1"/>
        <pt x="-850" y="-700" on="0"/>
        <pt x="-850" y="-420" on="1"/>
        <pt x="-850" y="-160" on="0"/>
        <pt x="-550" y="-160" on="1"/>
        <pt x="-450" y="-160" on="1"/>
        <pt x="-450" y="-320" on="1"/>
        <pt x="-650" y="-320" on="0"/>
        <pt x="-650" y="-420" on="1"/>
        <pt x="-650" y="-500" on="0"/>
        <pt x="-452" y="-500" on="1"/>
        <pt x="-150" y="-500" on="0"/>
        <pt x="-150" y="-100" on="1"/>
        <pt x="50" y="-100" on="1"/>
        <pt x="50" y="-700" on="0"/>
      </contour>
    </TTGlyph>
    <TTGlyph name="glyph206" xMin="-1003" yMin="-692" xMax="100" yMax="-107">
      <contour>
        <pt x="-38" y="-428" on="1"/>
        <pt x="22" y="-451" on="0"/>
        <pt x="58" y="-479" on="1"/>
        <pt x="100" y="-515" on="0"/>
        <pt x="100" y="-671" on="1"/>
        <pt x="-83" y="-692" on="1"/>
        <pt x="-82" y="-680" on="0"/>
        <pt x="-82" y="-668" on="1"/>
        <pt x="-82" y="-574" on="0"/>
        <pt x="-163" y="-543" on="1"/>
        <pt x="-204" y="-571" on="0"/>
        <pt x="-255" y="-601" on="1"/>
        <pt x="-331" y="-645" on="0"/>
        <pt x="-422" y="-668" on="1"/>
        <pt x="-512" y="-690" on="0"/>
        <pt x="-616" y="-690" on="1"/>
        <pt x="-625" y="-690" on="1"/>
        <pt x="-743" y="-690" on="0"/>
        <pt x="-817" y="-671" on="1"/>
        <pt x="-943" y="-651" on="0"/>
        <pt x="-972" y="-613" on="1"/>
        <pt x="-1003" y="-570" on="0"/>
        <pt x="-1003" y="-531" on="1"/>
        <pt x="-1003" y="-512" on="0"/>
        <pt x="-996" y="-494" on="1"/>
        <pt x="-973" y="-439" on="0"/>
        <pt x="-879" y="-393" on="1"/>
        <pt x="-765" y="-337" on="0"/>
        <pt x="-658" y="-236" on="0"/>
        <pt x="-644" y="-192" on="1"/>
        <pt x="-625" y="-107" on="1"/>
        <pt x="-421" y="-183" on="1"/>
        <pt x="-437" y="-244" on="1"/>
        <pt x="-456" y="-310" on="0"/>
        <pt x="-588" y="-465" on="0"/>
        <pt x="-696" y="-510" on="1"/>
        <pt x="-645" y="-521" on="0"/>
        <pt x="-593" y="-521" on="1"/>
        <pt x="-548" y="-521" on="0"/>
        <pt x="-501" y="-512" on="1"/>
        <pt x="-402" y="-495" on="0"/>
        <pt x="-341" y="-460" on="1"/>
        <pt x="-323" y="-450" on="0"/>
        <pt x="-307" y="-439" on="1"/>
        <pt x="-331" y="-427" on="0"/>
        <pt x="-341" y="-416" on="1"/>
        <pt x="-386" y="-390" on="0"/>
        <pt x="-386" y="-345" on="1"/>
        <pt x="-386" y="-316" on="0"/>
        <pt x="-366" y="-278" on="1"/>
        <pt x="-317" y="-187" on="0"/>
        <pt x="-193" y="-187" on="1"/>
        <pt x="-185" y="-187" on="1"/>
        <pt x="-117" y="-187" on="0"/>
        <pt x="-42" y="-227" on="1"/>
        <pt x="21" y="-260" on="0"/>
        <pt x="24" y="-311" on="1"/>
        <pt x="24" y="-318" on="1"/>
        <pt x="24" y="-365" on="0"/>
        <pt x="-12" y="-400" on="1"/>
        <pt x="-24" y="-414" on="0"/>
      </contour>
    </TTGlyph>
    <TTGlyph name="glyph207" xMin="-1020" yMin="-700" xMax="50" yMax="-100">
      <contour>
        <pt x="-850" y="-100" on="1"/>
        <pt x="-650" y="-100" on="1"/>
        <pt x="-650" y="-370" on="1"/>
        <pt x="-586" y="-370" on="0"/>
        <pt x="-521" y="-397" on="1"/>
        <pt x="-455" y="-425" on="0"/>
        <pt x="-385" y="-482" on="1"/>
        <pt x="-319" y="-537" on="0"/>
        <pt x="-242" y="-537" on="1"/>
        <pt x="-237" y="-537" on="0"/>
        <pt x="-232" y="-536" on="1"/>
        <pt x="-150" y="-533" on="0"/>
        <pt x="-150" y="-450" on="1"/>
        <pt x="-150" y="-250" on="1"/>
        <pt x="-250" y="-250" on="1"/>
        <pt x="-250" y="-100" on="1"/>
        <pt x="50" y="-100" on="1"/>
        <pt x="50" y="-450" on="1"/>
        <pt x="50" y="-598" on="0"/>
        <pt x="-94" y="-700" on="0"/>
        <pt x="-202" y="-700" on="1"/>
        <pt x="-272" y="-700" on="0"/>
        <pt x="-437" y="-622" on="0"/>
        <pt x="-569" y="-530" on="0"/>
        <pt x="-621" y="-530" on="1"/>
        <pt x="-650" y="-530" on="1"/>
        <pt x="-650" y="-614" on="1"/>
        <pt x="-650" y="-700" on="0"/>
        <pt x="-767" y="-700" on="1"/>
        <pt x="-867" y="-700" on="0"/>
        <pt x="-927" y="-663" on="1"/>
        <pt x="-988" y="-626" on="0"/>
        <pt x="-1010" y="-553" on="1"/>
        <pt x="-1014" y="-539" on="0"/>
        <pt x="-1016" y="-527" on="1"/>
        <pt x="-1020" y="-505" on="0"/>
        <pt x="-1020" y="-487" on="1"/>
        <pt x="-1020" y="-442" on="0"/>
        <pt x="-994" y="-415" on="1"/>
        <pt x="-951" y="-370" on="0"/>
        <pt x="-905" y="-370" on="1"/>
        <pt x="-850" y="-370" on="1"/>
      </contour>
    </TTGlyph>
    <TTGlyph name="glyph208" xMin="-928" yMin="-699" xMax="220" yMax="-100">
      <contour>
        <pt x="62" y="-263" on="1"/>
        <pt x="220" y="-263" on="1"/>
        <pt x="220" y="-481" on="1"/>
        <pt x="52" y="-481" on="1"/>
        <pt x="38" y="-547" on="0"/>
        <pt x="7" y="-603" on="1"/>
        <pt x="-44" y="-697" on="0"/>
        <pt x="-143" y="-697" on="1"/>
        <pt x="-147" y="-697" on="1"/>
        <pt x="-293" y="-697" on="0"/>
        <pt x="-407" y="-579" on="1"/>
        <pt x="-480" y="-699" on="0"/>
        <pt x="-633" y="-699" on="1"/>
        <pt x="-780" y="-699" on="0"/>
        <pt x="-853" y="-608" on="1"/>
        <pt x="-891" y="-561" on="0"/>
        <pt x="-909" y="-493" on="1"/>
        <pt x="-915" y="-472" on="0"/>
        <pt x="-919" y="-450" on="1"/>
        <pt x="-928" y="-403" on="0"/>
        <pt x="-928" y="-350" on="1"/>
        <pt x="-928" y="-328" on="1"/>
        <pt x="-928" y="-216" on="0"/>
        <pt x="-871" y="-159" on="1"/>
        <pt x="-813" y="-100" on="0"/>
        <pt x="-695" y="-100" on="1"/>
        <pt x="-580" y="-100" on="1"/>
        <pt x="-580" y="-274" on="1"/>
        <pt x="-651" y="-274" on="1"/>
        <pt x="-709" y="-274" on="0"/>
        <pt x="-727" y="-312" on="1"/>
        <pt x="-737" y="-333" on="0"/>
        <pt x="-737" y="-362" on="1"/>
        <pt x="-737" y="-386" on="0"/>
        <pt x="-730" y="-415" on="1"/>
        <pt x="-715" y="-481" on="0"/>
        <pt x="-678" y="-481" on="1"/>
        <pt x="-635" y="-481" on="0"/>
        <pt x="-509" y="-388" on="0"/>
        <pt x="-453" y="-345" on="1"/>
        <pt x="-397" y="-388" on="0"/>
        <pt x="-273" y="-481" on="0"/>
        <pt x="-223" y="-481" on="1"/>
        <pt x="-173" y="-481" on="0"/>
        <pt x="-154" y="-453" on="1"/>
        <pt x="-226" y="-441" on="0"/>
        <pt x="-358" y="-310" on="0"/>
        <pt x="-358" y="-230" on="1"/>
        <pt x="-358" y="-227" on="1"/>
        <pt x="-358" y="-164" on="0"/>
        <pt x="-312" y="-132" on="1"/>
        <pt x="-265" y="-100" on="0"/>
        <pt x="-169" y="-100" on="1"/>
        <pt x="-73" y="-100" on="0"/>
        <pt x="-10" y="-154" on="1"/>
        <pt x="56" y="-209" on="0"/>
      </contour>
    </TTGlyph>
    <TTGlyph name="glyph209" xMin="-950" yMin="-650" xMax="50" yMax="-150">
      <contour>
        <pt x="-950" y="-200" on="1"/>
        <pt x="-867" y="-200" on="1"/>
        <pt x="-662" y="-200" on="0"/>
        <pt x="-531" y="-335" on="1"/>
        <pt x="-400" y="-480" on="0"/>
        <pt x="-313" y="-480" on="1"/>
        <pt x="-150" y="-480" on="0"/>
        <pt x="-150" y="-350" on="1"/>
        <pt x="-338" y="-350" on="1"/>
        <pt x="-338" y="-150" on="1"/>
        <pt x="50" y="-150" on="1"/>
        <pt x="50" y="-350" on="1"/>
        <pt x="50" y="-650" on="0"/>
        <pt x="-260" y="-650" on="1"/>
        <pt x="-446" y="-650" on="0"/>
        <pt x="-713" y="-400" on="0"/>
        <pt x="-823" y="-400" on="1"/>
        <pt x="-950" y="-400" on="1"/>
      </contour>
    </TTGlyph>
    <TTGlyph name="glyph210" xMin="-850" yMin="-700" xMax="50" yMax="-100">
      <contour>
        <pt x="-150" y="-700" on="1"/>
        <pt x="-150" y="-400" on="1"/>
        <pt x="-150" y="-250" on="0"/>
        <pt x="-400" y="-250" on="1"/>
        <pt x="-650" y="-250" on="0"/>
        <pt x="-650" y="-400" on="1"/>
        <pt x="-650" y="-500" on="1"/>
        <pt x="-500" y="-500" on="1"/>
        <pt x="-500" y="-700" on="1"/>
        <pt x="-850" y="-700" on="1"/>
        <pt x="-850" y="-400" on="1"/>
        <pt x="-850" y="-100" on="0"/>
        <pt x="-400" y="-100" on="1"/>
        <pt x="50" y="-100" on="0"/>
        <pt x="50" y="-400" on="1"/>
        <pt x="50" y="-700" on="1"/>
      </contour>
    </TTGlyph>
    <TTGlyph name="glyph211" xMin="-850" yMin="-670" xMax="150" yMax="-70">
      <contour>
        <pt x="-850" y="-170" on="1"/>
        <pt x="-150" y="-170" on="1"/>
        <pt x="-150" y="-70" on="1"/>
        <pt x="50" y="-70" on="1"/>
        <pt x="50" y="-170" on="1"/>
        <pt x="150" y="-170" on="1"/>
        <pt x="150" y="-320" on="1"/>
        <pt x="50" y="-320" on="1"/>
        <pt x="50" y="-670" on="1"/>
        <pt x="-150" y="-670" on="1"/>
        <pt x="-400" y="-540" on="1"/>
        <pt x="-650" y="-670" on="1"/>
        <pt x="-850" y="-670" on="1"/>
      </contour>
      <contour>
        <pt x="-150" y="-480" on="1"/>
        <pt x="-150" y="-320" on="1"/>
        <pt x="-650" y="-320" on="1"/>
        <pt x="-650" y="-480" on="1"/>
        <pt x="-400" y="-370" on="1"/>
      </contour>
    </TTGlyph>
    <TTGlyph name="glyph212" xMin="-850" yMin="-700" xMax="50" yMax="-100">
      <contour>
        <pt x="50" y="-338" on="1"/>
        <pt x="50" y="-407" on="0"/>
        <pt x="-650" y="-505" on="1"/>
        <pt x="-650" y="-570" on="1"/>
        <pt x="-150" y="-503" on="1"/>
        <pt x="-150" y="-450" on="1"/>
        <pt x="50" y="-450" on="1"/>
        <pt x="50" y="-700" on="1"/>
        <pt x="-150" y="-700" on="1"/>
        <pt x="-150" y="-620" on="1"/>
        <pt x="-650" y="-700" on="1"/>
        <pt x="-850" y="-700" on="1"/>
        <pt x="-850" y="-412" on="1"/>
        <pt x="-150" y="-324" on="0"/>
        <pt x="-150" y="-277" on="1"/>
        <pt x="-150" y="-240" on="1"/>
        <pt x="-400" y="-306" on="1"/>
        <pt x="-650" y="-240" on="1"/>
        <pt x="-650" y="-328" on="1"/>
        <pt x="-850" y="-328" on="1"/>
        <pt x="-850" y="-100" on="1"/>
        <pt x="-650" y="-100" on="1"/>
        <pt x="-400" y="-188" on="1"/>
        <pt x="-150" y="-100" on="1"/>
        <pt x="50" y="-100" on="1"/>
      </contour>
    </TTGlyph>
    <TTGlyph name="glyph213" xMin="-850" yMin="-700" xMax="50" yMax="-100">
      <contour>
        <pt x="-150" y="-700" on="1"/>
        <pt x="-150" y="-400" on="1"/>
        <pt x="-150" y="-250" on="0"/>
        <pt x="-400" y="-250" on="1"/>
        <pt x="-650" y="-250" on="0"/>
        <pt x="-650" y="-400" on="1"/>
        <pt x="-650" y="-500" on="1"/>
        <pt x="-500" y="-500" on="1"/>
        <pt x="-500" y="-700" on="1"/>
        <pt x="-850" y="-700" on="1"/>
        <pt x="-850" y="-400" on="1"/>
        <pt x="-850" y="-100" on="0"/>
        <pt x="-400" y="-100" on="1"/>
        <pt x="50" y="-100" on="0"/>
        <pt x="50" y="-400" on="1"/>
        <pt x="50" y="-700" on="1"/>
      </contour>
    </TTGlyph>
    <TTGlyph name="glyph214" xMin="-900" yMin="-650" xMax="100" yMax="-100">
      <contour>
        <pt x="100" y="-650" on="1"/>
        <pt x="-20" y="-650" on="1"/>
        <pt x="-214" y="-650" on="0"/>
        <pt x="-408" y="-360" on="1"/>
        <pt x="-473" y="-270" on="0"/>
        <pt x="-554" y="-270" on="1"/>
        <pt x="-700" y="-270" on="0"/>
        <pt x="-700" y="-360" on="1"/>
        <pt x="-700" y="-440" on="1"/>
        <pt x="-531" y="-440" on="1"/>
        <pt x="-531" y="-600" on="1"/>
        <pt x="-900" y="-600" on="1"/>
        <pt x="-900" y="-360" on="1"/>
        <pt x="-900" y="-100" on="0"/>
        <pt x="-543" y="-100" on="1"/>
        <pt x="-387" y="-100" on="0"/>
        <pt x="-255" y="-275" on="1"/>
        <pt x="-124" y="-450" on="0"/>
        <pt x="-20" y="-450" on="1"/>
        <pt x="100" y="-450" on="1"/>
      </contour>
    </TTGlyph>
    <TTGlyph name="glyph215" xMin="-850" yMin="-700" xMax="50" yMax="-100">
      <contour>
        <pt x="-150" y="-247" on="0"/>
        <pt x="-150" y="-200" on="1"/>
        <pt x="-263" y="-200" on="1"/>
        <pt x="-263" y="-100" on="1"/>
        <pt x="50" y="-100" on="1"/>
        <pt x="50" y="-199" on="1"/>
        <pt x="50" y="-338" on="0"/>
        <pt x="-180" y="-366" on="1"/>
        <pt x="-650" y="-434" on="1"/>
        <pt x="-650" y="-514" on="1"/>
        <pt x="50" y="-427" on="1"/>
        <pt x="50" y="-590" on="1"/>
        <pt x="50" y="-700" on="0"/>
        <pt x="-96" y="-700" on="1"/>
        <pt x="-226" y="-700" on="1"/>
        <pt x="-160" y="-645" on="1"/>
        <pt x="-160" y="-590" on="1"/>
        <pt x="-651" y="-645" on="1"/>
        <pt x="-850" y="-645" on="1"/>
        <pt x="-850" y="-318" on="1"/>
        <pt x="-325" y="-267" on="1"/>
      </contour>
    </TTGlyph>
    <TTGlyph name="glyph216" xMin="-850" yMin="-700" xMax="50" yMax="-100">
      <contour>
        <pt x="-150" y="-100" on="1"/>
        <pt x="50" y="-100" on="1"/>
        <pt x="50" y="-400" on="1"/>
        <pt x="50" y="-476" on="0"/>
        <pt x="-69" y="-552" on="0"/>
        <pt x="-234" y="-552" on="1"/>
        <pt x="-344" y="-518" on="1"/>
        <pt x="-344" y="-580" on="0"/>
        <pt x="-400" y="-640" on="1"/>
        <pt x="-454" y="-700" on="0"/>
        <pt x="-564" y="-700" on="1"/>
        <pt x="-850" y="-700" on="1"/>
        <pt x="-850" y="-326" on="1"/>
        <pt x="-564" y="-258" on="0"/>
        <pt x="-150" y="-145" on="0"/>
      </contour>
      <contour>
        <pt x="-380" y="-362" on="1"/>
        <pt x="-150" y="-409" on="1"/>
        <pt x="-150" y="-280" on="1"/>
      </contour>
      <contour>
        <pt x="-654" y="-455" on="1"/>
        <pt x="-654" y="-560" on="1"/>
        <pt x="-509" y="-560" on="0"/>
        <pt x="-481" y="-530" on="1"/>
        <pt x="-454" y="-501" on="0"/>
        <pt x="-454" y="-462" on="1"/>
        <pt x="-454" y="-387" on="1"/>
      </contour>
    </TTGlyph>
    <TTGlyph name="glyph217" xMin="-850" yMin="-700" xMax="100" yMax="-100">
      <contour>
        <pt x="-850" y="-600" on="0"/>
        <pt x="-850" y="-400" on="1"/>
        <pt x="-850" y="-200" on="0"/>
        <pt x="-550" y="-200" on="1"/>
        <pt x="-200" y="-200" on="1"/>
        <pt x="-200" y="-100" on="1"/>
        <pt x="0" y="-100" on="1"/>
        <pt x="0" y="-200" on="1"/>
        <pt x="100" y="-200" on="1"/>
        <pt x="100" y="-350" on="1"/>
        <pt x="0" y="-350" on="1"/>
        <pt x="0" y="-450" on="1"/>
        <pt x="100" y="-450" on="0"/>
        <pt x="100" y="-575" on="1"/>
        <pt x="100" y="-700" on="0"/>
        <pt x="-50" y="-700" on="1"/>
        <pt x="-200" y="-700" on="0"/>
        <pt x="-200" y="-600" on="1"/>
        <pt x="-550" y="-600" on="1"/>
      </contour>
      <contour>
        <pt x="-650" y="-450" on="0"/>
        <pt x="-550" y="-450" on="1"/>
        <pt x="-200" y="-450" on="1"/>
        <pt x="-200" y="-350" on="1"/>
        <pt x="-550" y="-350" on="1"/>
        <pt x="-650" y="-350" on="0"/>
        <pt x="-650" y="-400" on="1"/>
      </contour>
    </TTGlyph>
    <TTGlyph name="glyph218" xMin="-850" yMin="-700" xMax="50" yMax="-100">
      <contour>
        <pt x="50" y="-700" on="1"/>
        <pt x="-150" y="-700" on="1"/>
        <pt x="-400" y="-524" on="1"/>
        <pt x="-650" y="-700" on="1"/>
        <pt x="-850" y="-700" on="1"/>
        <pt x="-850" y="-100" on="1"/>
        <pt x="-650" y="-100" on="1"/>
        <pt x="-650" y="-507" on="1"/>
        <pt x="-400" y="-331" on="1"/>
        <pt x="-150" y="-507" on="1"/>
        <pt x="-150" y="-300" on="1"/>
        <pt x="-300" y="-300" on="1"/>
        <pt x="-300" y="-100" on="1"/>
        <pt x="50" y="-100" on="1"/>
      </contour>
    </TTGlyph>
    <TTGlyph name="glyph219" xMin="-850" yMin="-700" xMax="50" yMax="-100">
      <contour>
        <pt x="50" y="-700" on="1"/>
        <pt x="-150" y="-700" on="1"/>
        <pt x="-150" y="-285" on="1"/>
        <pt x="-400" y="-442" on="1"/>
        <pt x="-650" y="-285" on="1"/>
        <pt x="-650" y="-550" on="1"/>
        <pt x="-550" y="-550" on="1"/>
        <pt x="-550" y="-700" on="1"/>
        <pt x="-850" y="-700" on="1"/>
        <pt x="-850" y="-100" on="1"/>
        <pt x="-650" y="-100" on="1"/>
        <pt x="-400" y="-257" on="1"/>
        <pt x="-150" y="-100" on="1"/>
        <pt x="50" y="-100" on="1"/>
      </contour>
    </TTGlyph>
    <TTGlyph name="glyph220" xMin="-950" yMin="-700" xMax="50" yMax="-100">
      <contour>
        <pt x="-650" y="-700" on="1"/>
        <pt x="-950" y="-700" on="1"/>
        <pt x="-950" y="-540" on="1"/>
        <pt x="-850" y="-540" on="1"/>
        <pt x="-850" y="-400" on="1"/>
        <pt x="-850" y="-100" on="0"/>
        <pt x="-400" y="-100" on="1"/>
        <pt x="50" y="-100" on="0"/>
        <pt x="50" y="-400" on="1"/>
        <pt x="50" y="-700" on="1"/>
        <pt x="-150" y="-700" on="1"/>
        <pt x="-150" y="-400" on="1"/>
        <pt x="-150" y="-250" on="0"/>
        <pt x="-400" y="-250" on="1"/>
        <pt x="-650" y="-250" on="0"/>
        <pt x="-650" y="-400" on="1"/>
      </contour>
    </TTGlyph>
    <TTGlyph name="glyph221" xMin="-950" yMin="-650" xMax="150" yMax="-50">
      <contour>
        <pt x="-200" y="-300" on="1"/>
        <pt x="-200" y="-50" on="1"/>
        <pt x="0" y="-50" on="1"/>
        <pt x="0" y="-300" on="1"/>
        <pt x="96" y="-331" on="0"/>
        <pt x="150" y="-427" on="0"/>
        <pt x="150" y="-500" on="1"/>
        <pt x="150" y="-650" on="0"/>
        <pt x="-18" y="-650" on="1"/>
        <pt x="-186" y="-650" on="0"/>
        <pt x="-193" y="-500" on="1"/>
        <pt x="-950" y="-500" on="1"/>
        <pt x="-950" y="-300" on="1"/>
      </contour>
    </TTGlyph>
    <TTGlyph name="glyph222" xMin="-850" yMin="-650" xMax="50" yMax="-150">
      <contour>
        <pt x="-150" y="-650" on="1"/>
        <pt x="-650" y="-370" on="1"/>
        <pt x="-650" y="-650" on="1"/>
        <pt x="-850" y="-650" on="1"/>
        <pt x="-850" y="-150" on="1"/>
        <pt x="-650" y="-150" on="1"/>
        <pt x="-150" y="-429" on="1"/>
        <pt x="-150" y="-150" on="1"/>
        <pt x="50" y="-150" on="1"/>
        <pt x="50" y="-650" on="1"/>
      </contour>
    </TTGlyph>
    <TTGlyph name="glyph223" xMin="-850" yMin="-700" xMax="50" yMax="-100">
      <contour>
        <pt x="-461" y="-700" on="1"/>
        <pt x="-705" y="-700" on="0"/>
        <pt x="-850" y="-570" on="0"/>
        <pt x="-850" y="-451" on="1"/>
        <pt x="-850" y="-350" on="1"/>
        <pt x="-736" y="-324" on="0"/>
        <pt x="-369" y="-199" on="0"/>
        <pt x="-150" y="-100" on="1"/>
        <pt x="50" y="-100" on="1"/>
        <pt x="50" y="-201" on="1"/>
        <pt x="50" y="-448" on="0"/>
        <pt x="-252" y="-700" on="0"/>
      </contour>
      <contour>
        <pt x="-650" y="-457" on="1"/>
        <pt x="-650" y="-507" on="0"/>
        <pt x="-495" y="-529" on="0"/>
        <pt x="-440" y="-529" on="1"/>
        <pt x="-329" y="-529" on="0"/>
        <pt x="-150" y="-377" on="0"/>
        <pt x="-150" y="-276" on="1"/>
        <pt x="-302" y="-338" on="0"/>
        <pt x="-467" y="-403" on="0"/>
      </contour>
    </TTGlyph>
    <TTGlyph name="glyph224" xMin="-850" yMin="-650" xMax="50" yMax="-150">
      <contour>
        <pt x="-650" y="-500" on="1"/>
        <pt x="-490" y="-500" on="1"/>
        <pt x="-490" y="-150" on="1"/>
        <pt x="-115" y="-150" on="1"/>
        <pt x="-32" y="-150" on="0"/>
        <pt x="9" y="-188" on="1"/>
        <pt x="50" y="-225" on="0"/>
        <pt x="50" y="-275" on="1"/>
        <pt x="50" y="-650" on="1"/>
        <pt x="-150" y="-650" on="1"/>
        <pt x="-150" y="-300" on="1"/>
        <pt x="-310" y="-300" on="1"/>
        <pt x="-310" y="-650" on="1"/>
        <pt x="-685" y="-650" on="1"/>
        <pt x="-767" y="-650" on="0"/>
        <pt x="-808" y="-612" on="1"/>
        <pt x="-850" y="-575" on="0"/>
        <pt x="-850" y="-525" on="1"/>
        <pt x="-850" y="-150" on="1"/>
        <pt x="-650" y="-150" on="1"/>
      </contour>
    </TTGlyph>
    <TTGlyph name="glyph225" xMin="-950" yMin="-700" xMax="50" yMax="-100">
      <contour>
        <pt x="-650" y="-100" on="1"/>
        <pt x="-650" y="-700" on="1"/>
        <pt x="-950" y="-700" on="1"/>
        <pt x="-950" y="-550" on="1"/>
        <pt x="-850" y="-550" on="1"/>
        <pt x="-850" y="-100" on="1"/>
      </contour>
      <contour>
        <pt x="-150" y="-250" on="1"/>
        <pt x="-150" y="-100" on="1"/>
        <pt x="50" y="-100" on="1"/>
        <pt x="50" y="-700" on="1"/>
        <pt x="-250" y="-700" on="1"/>
        <pt x="-250" y="-550" on="1"/>
        <pt x="-150" y="-550" on="1"/>
        <pt x="-150" y="-400" on="1"/>
        <pt x="-600" y="-400" on="1"/>
        <pt x="-600" y="-250" on="1"/>
      </contour>
    </TTGlyph>
    <TTGlyph name="glyph226" xMin="-1750" yMin="-700" xMax="-850" yMax="-100">
      <contour>
        <pt x="-1050" y="-700" on="1"/>
        <pt x="-1050" y="-400" on="1"/>
        <pt x="-1050" y="-250" on="0"/>
        <pt x="-1300" y="-250" on="1"/>
        <pt x="-1550" y="-250" on="0"/>
        <pt x="-1550" y="-400" on="1"/>
        <pt x="-1550" y="-700" on="1"/>
        <pt x="-1750" y="-700" on="1"/>
        <pt x="-1750" y="-400" on="1"/>
        <pt x="-1750" y="-100" on="0"/>
        <pt x="-1300" y="-100" on="1"/>
        <pt x="-850" y="-100" on="0"/>
        <pt x="-850" y="-400" on="1"/>
        <pt x="-850" y="-700" on="1"/>
      </contour>
    </TTGlyph>
    <TTGlyph name="glyph227" xMin="-1750" yMin="-700" xMax="-850" yMax="-100">
      <contour>
        <pt x="-1550" y="-308" on="1"/>
        <pt x="-1667" y="-308" on="1"/>
        <pt x="-1750" y="-308" on="0"/>
        <pt x="-1750" y="-274" on="1"/>
        <pt x="-1750" y="-240" on="1"/>
        <pt x="-1750" y="-100" on="0"/>
        <pt x="-1300" y="-100" on="1"/>
        <pt x="-850" y="-100" on="0"/>
        <pt x="-850" y="-259" on="1"/>
        <pt x="-850" y="-387" on="0"/>
        <pt x="-1550" y="-495" on="0"/>
        <pt x="-1550" y="-532" on="1"/>
        <pt x="-1550" y="-600" on="0"/>
        <pt x="-1300" y="-600" on="1"/>
        <pt x="-1050" y="-600" on="0"/>
        <pt x="-1050" y="-491" on="1"/>
        <pt x="-850" y="-437" on="1"/>
        <pt x="-850" y="-520" on="1"/>
        <pt x="-850" y="-700" on="0"/>
        <pt x="-1300" y="-700" on="1"/>
        <pt x="-1750" y="-700" on="0"/>
        <pt x="-1750" y="-550" on="1"/>
        <pt x="-1750" y="-481" on="1"/>
        <pt x="-1750" y="-412" on="0"/>
        <pt x="-1050" y="-324" on="0"/>
        <pt x="-1050" y="-267" on="1"/>
        <pt x="-1050" y="-200" on="0"/>
        <pt x="-1300" y="-200" on="1"/>
        <pt x="-1550" y="-200" on="0"/>
      </contour>
    </TTGlyph>
    <TTGlyph name="glyph228" xMin="-1750" yMin="-700" xMax="-850" yMax="-100">
      <contour>
        <pt x="-1750" y="-700" on="1"/>
        <pt x="-1750" y="-400" on="1"/>
        <pt x="-1750" y="-100" on="0"/>
        <pt x="-1300" y="-100" on="1"/>
        <pt x="-850" y="-100" on="0"/>
        <pt x="-850" y="-400" on="1"/>
        <pt x="-850" y="-700" on="1"/>
        <pt x="-1050" y="-700" on="1"/>
        <pt x="-1050" y="-400" on="1"/>
        <pt x="-1050" y="-250" on="0"/>
        <pt x="-1300" y="-250" on="1"/>
        <pt x="-1550" y="-250" on="0"/>
        <pt x="-1550" y="-400" on="1"/>
        <pt x="-1550" y="-482" on="1"/>
        <pt x="-1352" y="-375" on="1"/>
        <pt x="-1280" y="-502" on="1"/>
        <pt x="-1550" y="-685" on="1"/>
        <pt x="-1550" y="-700" on="1"/>
      </contour>
    </TTGlyph>
    <TTGlyph name="glyph229" xMin="-1750" yMin="-700" xMax="-850" yMax="-100">
      <contour>
        <pt x="-1352" y="-700" on="1"/>
        <pt x="-1750" y="-700" on="0"/>
        <pt x="-1750" y="-420" on="1"/>
        <pt x="-1750" y="-160" on="0"/>
        <pt x="-1450" y="-160" on="1"/>
        <pt x="-1350" y="-160" on="1"/>
        <pt x="-1350" y="-320" on="1"/>
        <pt x="-1550" y="-320" on="0"/>
        <pt x="-1550" y="-420" on="1"/>
        <pt x="-1550" y="-500" on="0"/>
        <pt x="-1352" y="-500" on="1"/>
        <pt x="-1050" y="-500" on="0"/>
        <pt x="-1050" y="-100" on="1"/>
        <pt x="-850" y="-100" on="1"/>
        <pt x="-850" y="-700" on="0"/>
      </contour>
    </TTGlyph>
    <TTGlyph name="glyph230" xMin="-1851" yMin="-692" xMax="-748" yMax="-107">
      <contour>
        <pt x="-886" y="-428" on="1"/>
        <pt x="-826" y="-451" on="0"/>
        <pt x="-790" y="-479" on="1"/>
        <pt x="-748" y="-515" on="0"/>
        <pt x="-748" y="-671" on="1"/>
        <pt x="-931" y="-692" on="1"/>
        <pt x="-930" y="-680" on="0"/>
        <pt x="-930" y="-668" on="1"/>
        <pt x="-930" y="-574" on="0"/>
        <pt x="-1011" y="-543" on="1"/>
        <pt x="-1052" y="-571" on="0"/>
        <pt x="-1103" y="-601" on="1"/>
        <pt x="-1179" y="-645" on="0"/>
        <pt x="-1270" y="-668" on="1"/>
        <pt x="-1360" y="-690" on="0"/>
        <pt x="-1464" y="-690" on="1"/>
        <pt x="-1473" y="-690" on="1"/>
        <pt x="-1591" y="-690" on="0"/>
        <pt x="-1665" y="-671" on="1"/>
        <pt x="-1791" y="-651" on="0"/>
        <pt x="-1820" y="-613" on="1"/>
        <pt x="-1851" y="-570" on="0"/>
        <pt x="-1851" y="-531" on="1"/>
        <pt x="-1851" y="-512" on="0"/>
        <pt x="-1844" y="-494" on="1"/>
        <pt x="-1821" y="-439" on="0"/>
        <pt x="-1727" y="-393" on="1"/>
        <pt x="-1613" y="-337" on="0"/>
        <pt x="-1506" y="-236" on="0"/>
        <pt x="-1492" y="-192" on="1"/>
        <pt x="-1473" y="-107" on="1"/>
        <pt x="-1269" y="-183" on="1"/>
        <pt x="-1285" y="-244" on="1"/>
        <pt x="-1304" y="-310" on="0"/>
        <pt x="-1436" y="-465" on="0"/>
        <pt x="-1544" y="-510" on="1"/>
        <pt x="-1493" y="-521" on="0"/>
        <pt x="-1441" y="-521" on="1"/>
        <pt x="-1396" y="-521" on="0"/>
        <pt x="-1349" y="-512" on="1"/>
        <pt x="-1250" y="-495" on="0"/>
        <pt x="-1189" y="-460" on="1"/>
        <pt x="-1171" y="-450" on="0"/>
        <pt x="-1155" y="-439" on="1"/>
        <pt x="-1179" y="-427" on="0"/>
        <pt x="-1189" y="-416" on="1"/>
        <pt x="-1234" y="-390" on="0"/>
        <pt x="-1234" y="-345" on="1"/>
        <pt x="-1234" y="-316" on="0"/>
        <pt x="-1214" y="-278" on="1"/>
        <pt x="-1165" y="-187" on="0"/>
        <pt x="-1041" y="-187" on="1"/>
        <pt x="-1033" y="-187" on="1"/>
        <pt x="-965" y="-187" on="0"/>
        <pt x="-890" y="-227" on="1"/>
        <pt x="-827" y="-260" on="0"/>
        <pt x="-824" y="-311" on="1"/>
        <pt x="-824" y="-318" on="1"/>
        <pt x="-824" y="-365" on="0"/>
        <pt x="-860" y="-400" on="1"/>
        <pt x="-872" y="-414" on="0"/>
      </contour>
    </TTGlyph>
    <TTGlyph name="glyph231" xMin="-1835" yMin="-700" xMax="-765" yMax="-100">
      <contour>
        <pt x="-1665" y="-100" on="1"/>
        <pt x="-1465" y="-100" on="1"/>
        <pt x="-1465" y="-370" on="1"/>
        <pt x="-1401" y="-370" on="0"/>
        <pt x="-1336" y="-397" on="1"/>
        <pt x="-1270" y="-425" on="0"/>
        <pt x="-1200" y="-482" on="1"/>
        <pt x="-1134" y="-537" on="0"/>
        <pt x="-1057" y="-537" on="1"/>
        <pt x="-1052" y="-537" on="0"/>
        <pt x="-1047" y="-536" on="1"/>
        <pt x="-965" y="-533" on="0"/>
        <pt x="-965" y="-450" on="1"/>
        <pt x="-965" y="-250" on="1"/>
        <pt x="-1065" y="-250" on="1"/>
        <pt x="-1065" y="-100" on="1"/>
        <pt x="-765" y="-100" on="1"/>
        <pt x="-765" y="-450" on="1"/>
        <pt x="-765" y="-598" on="0"/>
        <pt x="-909" y="-700" on="0"/>
        <pt x="-1017" y="-700" on="1"/>
        <pt x="-1087" y="-700" on="0"/>
        <pt x="-1252" y="-622" on="0"/>
        <pt x="-1384" y="-530" on="0"/>
        <pt x="-1436" y="-530" on="1"/>
        <pt x="-1465" y="-530" on="1"/>
        <pt x="-1465" y="-614" on="1"/>
        <pt x="-1465" y="-700" on="0"/>
        <pt x="-1582" y="-700" on="1"/>
        <pt x="-1682" y="-700" on="0"/>
        <pt x="-1742" y="-663" on="1"/>
        <pt x="-1803" y="-626" on="0"/>
        <pt x="-1825" y="-553" on="1"/>
        <pt x="-1829" y="-539" on="0"/>
        <pt x="-1831" y="-527" on="1"/>
        <pt x="-1835" y="-505" on="0"/>
        <pt x="-1835" y="-487" on="1"/>
        <pt x="-1835" y="-442" on="0"/>
        <pt x="-1809" y="-415" on="1"/>
        <pt x="-1766" y="-370" on="0"/>
        <pt x="-1720" y="-370" on="1"/>
        <pt x="-1665" y="-370" on="1"/>
      </contour>
    </TTGlyph>
    <TTGlyph name="glyph232" xMin="-1750" yMin="-699" xMax="-602" yMax="-100">
      <contour>
        <pt x="-760" y="-263" on="1"/>
        <pt x="-602" y="-263" on="1"/>
        <pt x="-602" y="-481" on="1"/>
        <pt x="-770" y="-481" on="1"/>
        <pt x="-784" y="-547" on="0"/>
        <pt x="-815" y="-603" on="1"/>
        <pt x="-866" y="-697" on="0"/>
        <pt x="-965" y="-697" on="1"/>
        <pt x="-969" y="-697" on="1"/>
        <pt x="-1115" y="-697" on="0"/>
        <pt x="-1229" y="-579" on="1"/>
        <pt x="-1302" y="-699" on="0"/>
        <pt x="-1455" y="-699" on="1"/>
        <pt x="-1602" y="-699" on="0"/>
        <pt x="-1675" y="-608" on="1"/>
        <pt x="-1713" y="-561" on="0"/>
        <pt x="-1731" y="-493" on="1"/>
        <pt x="-1737" y="-472" on="0"/>
        <pt x="-1741" y="-450" on="1"/>
        <pt x="-1750" y="-403" on="0"/>
        <pt x="-1750" y="-350" on="1"/>
        <pt x="-1750" y="-328" on="1"/>
        <pt x="-1750" y="-216" on="0"/>
        <pt x="-1693" y="-159" on="1"/>
        <pt x="-1635" y="-100" on="0"/>
        <pt x="-1517" y="-100" on="1"/>
        <pt x="-1402" y="-100" on="1"/>
        <pt x="-1402" y="-274" on="1"/>
        <pt x="-1473" y="-274" on="1"/>
        <pt x="-1531" y="-274" on="0"/>
        <pt x="-1549" y="-312" on="1"/>
        <pt x="-1559" y="-333" on="0"/>
        <pt x="-1559" y="-362" on="1"/>
        <pt x="-1559" y="-386" on="0"/>
        <pt x="-1552" y="-415" on="1"/>
        <pt x="-1537" y="-481" on="0"/>
        <pt x="-1500" y="-481" on="1"/>
        <pt x="-1457" y="-481" on="0"/>
        <pt x="-1331" y="-388" on="0"/>
        <pt x="-1275" y="-345" on="1"/>
        <pt x="-1219" y="-388" on="0"/>
        <pt x="-1095" y="-481" on="0"/>
        <pt x="-1045" y="-481" on="1"/>
        <pt x="-995" y="-481" on="0"/>
        <pt x="-976" y="-453" on="1"/>
        <pt x="-1048" y="-441" on="0"/>
        <pt x="-1180" y="-310" on="0"/>
        <pt x="-1180" y="-230" on="1"/>
        <pt x="-1180" y="-227" on="1"/>
        <pt x="-1180" y="-164" on="0"/>
        <pt x="-1134" y="-132" on="1"/>
        <pt x="-1087" y="-100" on="0"/>
        <pt x="-991" y="-100" on="1"/>
        <pt x="-895" y="-100" on="0"/>
        <pt x="-832" y="-154" on="1"/>
        <pt x="-766" y="-209" on="0"/>
      </contour>
    </TTGlyph>
    <TTGlyph name="glyph233" xMin="-1750" yMin="-650" xMax="-750" yMax="-150">
      <contour>
        <pt x="-1750" y="-200" on="1"/>
        <pt x="-1667" y="-200" on="1"/>
        <pt x="-1462" y="-200" on="0"/>
        <pt x="-1331" y="-335" on="1"/>
        <pt x="-1200" y="-480" on="0"/>
        <pt x="-1113" y="-480" on="1"/>
        <pt x="-950" y="-480" on="0"/>
        <pt x="-950" y="-350" on="1"/>
        <pt x="-1138" y="-350" on="1"/>
        <pt x="-1138" y="-150" on="1"/>
        <pt x="-750" y="-150" on="1"/>
        <pt x="-750" y="-350" on="1"/>
        <pt x="-750" y="-650" on="0"/>
        <pt x="-1060" y="-650" on="1"/>
        <pt x="-1246" y="-650" on="0"/>
        <pt x="-1513" y="-400" on="0"/>
        <pt x="-1623" y="-400" on="1"/>
        <pt x="-1750" y="-400" on="1"/>
      </contour>
    </TTGlyph>
    <TTGlyph name="glyph234" xMin="-1750" yMin="-700" xMax="-850" yMax="-100">
      <contour>
        <pt x="-1050" y="-700" on="1"/>
        <pt x="-1050" y="-400" on="1"/>
        <pt x="-1050" y="-250" on="0"/>
        <pt x="-1300" y="-250" on="1"/>
        <pt x="-1550" y="-250" on="0"/>
        <pt x="-1550" y="-400" on="1"/>
        <pt x="-1550" y="-500" on="1"/>
        <pt x="-1400" y="-500" on="1"/>
        <pt x="-1400" y="-700" on="1"/>
        <pt x="-1750" y="-700" on="1"/>
        <pt x="-1750" y="-400" on="1"/>
        <pt x="-1750" y="-100" on="0"/>
        <pt x="-1300" y="-100" on="1"/>
        <pt x="-850" y="-100" on="0"/>
        <pt x="-850" y="-400" on="1"/>
        <pt x="-850" y="-700" on="1"/>
      </contour>
    </TTGlyph>
    <TTGlyph name="glyph235" xMin="-1750" yMin="-670" xMax="-750" yMax="-70">
      <contour>
        <pt x="-1750" y="-170" on="1"/>
        <pt x="-1050" y="-170" on="1"/>
        <pt x="-1050" y="-70" on="1"/>
        <pt x="-850" y="-70" on="1"/>
        <pt x="-850" y="-170" on="1"/>
        <pt x="-750" y="-170" on="1"/>
        <pt x="-750" y="-320" on="1"/>
        <pt x="-850" y="-320" on="1"/>
        <pt x="-850" y="-670" on="1"/>
        <pt x="-1050" y="-670" on="1"/>
        <pt x="-1300" y="-540" on="1"/>
        <pt x="-1550" y="-670" on="1"/>
        <pt x="-1750" y="-670" on="1"/>
      </contour>
      <contour>
        <pt x="-1050" y="-480" on="1"/>
        <pt x="-1050" y="-320" on="1"/>
        <pt x="-1550" y="-320" on="1"/>
        <pt x="-1550" y="-480" on="1"/>
        <pt x="-1300" y="-370" on="1"/>
      </contour>
    </TTGlyph>
    <TTGlyph name="glyph236" xMin="-1750" yMin="-700" xMax="-850" yMax="-100">
      <contour>
        <pt x="-850" y="-338" on="1"/>
        <pt x="-850" y="-407" on="0"/>
        <pt x="-1550" y="-505" on="1"/>
        <pt x="-1550" y="-570" on="1"/>
        <pt x="-1050" y="-503" on="1"/>
        <pt x="-1050" y="-450" on="1"/>
        <pt x="-850" y="-450" on="1"/>
        <pt x="-850" y="-700" on="1"/>
        <pt x="-1050" y="-700" on="1"/>
        <pt x="-1050" y="-620" on="1"/>
        <pt x="-1550" y="-700" on="1"/>
        <pt x="-1750" y="-700" on="1"/>
        <pt x="-1750" y="-412" on="1"/>
        <pt x="-1050" y="-324" on="0"/>
        <pt x="-1050" y="-277" on="1"/>
        <pt x="-1050" y="-240" on="1"/>
        <pt x="-1300" y="-306" on="1"/>
        <pt x="-1550" y="-240" on="1"/>
        <pt x="-1550" y="-328" on="1"/>
        <pt x="-1750" y="-328" on="1"/>
        <pt x="-1750" y="-100" on="1"/>
        <pt x="-1550" y="-100" on="1"/>
        <pt x="-1300" y="-188" on="1"/>
        <pt x="-1050" y="-100" on="1"/>
        <pt x="-850" y="-100" on="1"/>
      </contour>
    </TTGlyph>
    <TTGlyph name="glyph237" xMin="-1750" yMin="-700" xMax="-850" yMax="-100">
      <contour>
        <pt x="-1050" y="-700" on="1"/>
        <pt x="-1050" y="-400" on="1"/>
        <pt x="-1050" y="-250" on="0"/>
        <pt x="-1300" y="-250" on="1"/>
        <pt x="-1550" y="-250" on="0"/>
        <pt x="-1550" y="-400" on="1"/>
        <pt x="-1550" y="-500" on="1"/>
        <pt x="-1400" y="-500" on="1"/>
        <pt x="-1400" y="-700" on="1"/>
        <pt x="-1750" y="-700" on="1"/>
        <pt x="-1750" y="-400" on="1"/>
        <pt x="-1750" y="-100" on="0"/>
        <pt x="-1300" y="-100" on="1"/>
        <pt x="-850" y="-100" on="0"/>
        <pt x="-850" y="-400" on="1"/>
        <pt x="-850" y="-700" on="1"/>
      </contour>
    </TTGlyph>
    <TTGlyph name="glyph238" xMin="-1750" yMin="-650" xMax="-750" yMax="-100">
      <contour>
        <pt x="-750" y="-650" on="1"/>
        <pt x="-870" y="-650" on="1"/>
        <pt x="-1064" y="-650" on="0"/>
        <pt x="-1258" y="-360" on="1"/>
        <pt x="-1323" y="-270" on="0"/>
        <pt x="-1404" y="-270" on="1"/>
        <pt x="-1550" y="-270" on="0"/>
        <pt x="-1550" y="-360" on="1"/>
        <pt x="-1550" y="-440" on="1"/>
        <pt x="-1381" y="-440" on="1"/>
        <pt x="-1381" y="-600" on="1"/>
        <pt x="-1750" y="-600" on="1"/>
        <pt x="-1750" y="-360" on="1"/>
        <pt x="-1750" y="-100" on="0"/>
        <pt x="-1393" y="-100" on="1"/>
        <pt x="-1237" y="-100" on="0"/>
        <pt x="-1105" y="-275" on="1"/>
        <pt x="-974" y="-450" on="0"/>
        <pt x="-870" y="-450" on="1"/>
        <pt x="-750" y="-450" on="1"/>
      </contour>
    </TTGlyph>
    <TTGlyph name="glyph239" xMin="-1750" yMin="-700" xMax="-850" yMax="-100">
      <contour>
        <pt x="-1050" y="-247" on="0"/>
        <pt x="-1050" y="-200" on="1"/>
        <pt x="-1163" y="-200" on="1"/>
        <pt x="-1163" y="-100" on="1"/>
        <pt x="-850" y="-100" on="1"/>
        <pt x="-850" y="-199" on="1"/>
        <pt x="-850" y="-338" on="0"/>
        <pt x="-1080" y="-366" on="1"/>
        <pt x="-1550" y="-434" on="1"/>
        <pt x="-1550" y="-514" on="1"/>
        <pt x="-850" y="-427" on="1"/>
        <pt x="-850" y="-590" on="1"/>
        <pt x="-850" y="-700" on="0"/>
        <pt x="-996" y="-700" on="1"/>
        <pt x="-1126" y="-700" on="1"/>
        <pt x="-1060" y="-645" on="1"/>
        <pt x="-1060" y="-590" on="1"/>
        <pt x="-1551" y="-645" on="1"/>
        <pt x="-1750" y="-645" on="1"/>
        <pt x="-1750" y="-318" on="1"/>
        <pt x="-1225" y="-267" on="1"/>
      </contour>
    </TTGlyph>
    <TTGlyph name="glyph240" xMin="-1750" yMin="-700" xMax="-850" yMax="-100">
      <contour>
        <pt x="-1050" y="-100" on="1"/>
        <pt x="-850" y="-100" on="1"/>
        <pt x="-850" y="-400" on="1"/>
        <pt x="-850" y="-476" on="0"/>
        <pt x="-969" y="-552" on="0"/>
        <pt x="-1134" y="-552" on="1"/>
        <pt x="-1244" y="-518" on="1"/>
        <pt x="-1244" y="-580" on="0"/>
        <pt x="-1300" y="-640" on="1"/>
        <pt x="-1354" y="-700" on="0"/>
        <pt x="-1464" y="-700" on="1"/>
        <pt x="-1750" y="-700" on="1"/>
        <pt x="-1750" y="-326" on="1"/>
        <pt x="-1464" y="-258" on="0"/>
        <pt x="-1050" y="-145" on="0"/>
      </contour>
      <contour>
        <pt x="-1280" y="-362" on="1"/>
        <pt x="-1050" y="-409" on="1"/>
        <pt x="-1050" y="-280" on="1"/>
      </contour>
      <contour>
        <pt x="-1554" y="-455" on="1"/>
        <pt x="-1554" y="-560" on="1"/>
        <pt x="-1409" y="-560" on="0"/>
        <pt x="-1381" y="-530" on="1"/>
        <pt x="-1354" y="-501" on="0"/>
        <pt x="-1354" y="-462" on="1"/>
        <pt x="-1354" y="-387" on="1"/>
      </contour>
    </TTGlyph>
    <TTGlyph name="glyph241" xMin="-1775" yMin="-700" xMax="-825" yMax="-100">
      <contour>
        <pt x="-1775" y="-600" on="0"/>
        <pt x="-1775" y="-400" on="1"/>
        <pt x="-1775" y="-200" on="0"/>
        <pt x="-1475" y="-200" on="1"/>
        <pt x="-1125" y="-200" on="1"/>
        <pt x="-1125" y="-100" on="1"/>
        <pt x="-925" y="-100" on="1"/>
        <pt x="-925" y="-200" on="1"/>
        <pt x="-825" y="-200" on="1"/>
        <pt x="-825" y="-350" on="1"/>
        <pt x="-925" y="-350" on="1"/>
        <pt x="-925" y="-450" on="1"/>
        <pt x="-825" y="-450" on="0"/>
        <pt x="-825" y="-575" on="1"/>
        <pt x="-825" y="-700" on="0"/>
        <pt x="-975" y="-700" on="1"/>
        <pt x="-1125" y="-700" on="0"/>
        <pt x="-1125" y="-600" on="1"/>
        <pt x="-1475" y="-600" on="1"/>
      </contour>
      <contour>
        <pt x="-1575" y="-450" on="0"/>
        <pt x="-1475" y="-450" on="1"/>
        <pt x="-1125" y="-450" on="1"/>
        <pt x="-1125" y="-350" on="1"/>
        <pt x="-1475" y="-350" on="1"/>
        <pt x="-1575" y="-350" on="0"/>
        <pt x="-1575" y="-400" on="1"/>
      </contour>
    </TTGlyph>
    <TTGlyph name="glyph242" xMin="-1750" yMin="-700" xMax="-850" yMax="-100">
      <contour>
        <pt x="-850" y="-700" on="1"/>
        <pt x="-1050" y="-700" on="1"/>
        <pt x="-1300" y="-524" on="1"/>
        <pt x="-1550" y="-700" on="1"/>
        <pt x="-1750" y="-700" on="1"/>
        <pt x="-1750" y="-100" on="1"/>
        <pt x="-1550" y="-100" on="1"/>
        <pt x="-1550" y="-507" on="1"/>
        <pt x="-1300" y="-331" on="1"/>
        <pt x="-1050" y="-507" on="1"/>
        <pt x="-1050" y="-300" on="1"/>
        <pt x="-1200" y="-300" on="1"/>
        <pt x="-1200" y="-100" on="1"/>
        <pt x="-850" y="-100" on="1"/>
      </contour>
    </TTGlyph>
    <TTGlyph name="glyph243" xMin="-1750" yMin="-700" xMax="-850" yMax="-100">
      <contour>
        <pt x="-850" y="-700" on="1"/>
        <pt x="-1050" y="-700" on="1"/>
        <pt x="-1050" y="-285" on="1"/>
        <pt x="-1300" y="-442" on="1"/>
        <pt x="-1550" y="-285" on="1"/>
        <pt x="-1550" y="-550" on="1"/>
        <pt x="-1450" y="-550" on="1"/>
        <pt x="-1450" y="-700" on="1"/>
        <pt x="-1750" y="-700" on="1"/>
        <pt x="-1750" y="-100" on="1"/>
        <pt x="-1550" y="-100" on="1"/>
        <pt x="-1300" y="-257" on="1"/>
        <pt x="-1050" y="-100" on="1"/>
        <pt x="-850" y="-100" on="1"/>
      </contour>
    </TTGlyph>
    <TTGlyph name="glyph244" xMin="-1850" yMin="-700" xMax="-850" yMax="-100">
      <contour>
        <pt x="-1550" y="-700" on="1"/>
        <pt x="-1850" y="-700" on="1"/>
        <pt x="-1850" y="-540" on="1"/>
        <pt x="-1750" y="-540" on="1"/>
        <pt x="-1750" y="-400" on="1"/>
        <pt x="-1750" y="-100" on="0"/>
        <pt x="-1300" y="-100" on="1"/>
        <pt x="-850" y="-100" on="0"/>
        <pt x="-850" y="-400" on="1"/>
        <pt x="-850" y="-700" on="1"/>
        <pt x="-1050" y="-700" on="1"/>
        <pt x="-1050" y="-400" on="1"/>
        <pt x="-1050" y="-250" on="0"/>
        <pt x="-1300" y="-250" on="1"/>
        <pt x="-1550" y="-250" on="0"/>
        <pt x="-1550" y="-400" on="1"/>
      </contour>
    </TTGlyph>
    <TTGlyph name="glyph245" xMin="-1850" yMin="-650" xMax="-750" yMax="-50">
      <contour>
        <pt x="-1100" y="-300" on="1"/>
        <pt x="-1100" y="-50" on="1"/>
        <pt x="-900" y="-50" on="1"/>
        <pt x="-900" y="-300" on="1"/>
        <pt x="-804" y="-331" on="0"/>
        <pt x="-750" y="-427" on="0"/>
        <pt x="-750" y="-500" on="1"/>
        <pt x="-750" y="-650" on="0"/>
        <pt x="-918" y="-650" on="1"/>
        <pt x="-1086" y="-650" on="0"/>
        <pt x="-1093" y="-500" on="1"/>
        <pt x="-1850" y="-500" on="1"/>
        <pt x="-1850" y="-300" on="1"/>
      </contour>
    </TTGlyph>
    <TTGlyph name="glyph246" xMin="-1750" yMin="-650" xMax="-850" yMax="-150">
      <contour>
        <pt x="-1050" y="-650" on="1"/>
        <pt x="-1550" y="-370" on="1"/>
        <pt x="-1550" y="-650" on="1"/>
        <pt x="-1750" y="-650" on="1"/>
        <pt x="-1750" y="-150" on="1"/>
        <pt x="-1550" y="-150" on="1"/>
        <pt x="-1050" y="-429" on="1"/>
        <pt x="-1050" y="-150" on="1"/>
        <pt x="-850" y="-150" on="1"/>
        <pt x="-850" y="-650" on="1"/>
      </contour>
    </TTGlyph>
    <TTGlyph name="glyph247" xMin="-1750" yMin="-700" xMax="-850" yMax="-100">
      <contour>
        <pt x="-1361" y="-700" on="1"/>
        <pt x="-1605" y="-700" on="0"/>
        <pt x="-1750" y="-570" on="0"/>
        <pt x="-1750" y="-451" on="1"/>
        <pt x="-1750" y="-350" on="1"/>
        <pt x="-1636" y="-324" on="0"/>
        <pt x="-1269" y="-199" on="0"/>
        <pt x="-1050" y="-100" on="1"/>
        <pt x="-850" y="-100" on="1"/>
        <pt x="-850" y="-201" on="1"/>
        <pt x="-850" y="-448" on="0"/>
        <pt x="-1152" y="-700" on="0"/>
      </contour>
      <contour>
        <pt x="-1550" y="-457" on="1"/>
        <pt x="-1550" y="-507" on="0"/>
        <pt x="-1395" y="-529" on="0"/>
        <pt x="-1340" y="-529" on="1"/>
        <pt x="-1229" y="-529" on="0"/>
        <pt x="-1050" y="-377" on="0"/>
        <pt x="-1050" y="-276" on="1"/>
        <pt x="-1202" y="-338" on="0"/>
        <pt x="-1367" y="-403" on="0"/>
      </contour>
    </TTGlyph>
    <TTGlyph name="glyph248" xMin="-1750" yMin="-650" xMax="-850" yMax="-150">
      <contour>
        <pt x="-1550" y="-500" on="1"/>
        <pt x="-1390" y="-500" on="1"/>
        <pt x="-1390" y="-150" on="1"/>
        <pt x="-1015" y="-150" on="1"/>
        <pt x="-932" y="-150" on="0"/>
        <pt x="-891" y="-188" on="1"/>
        <pt x="-850" y="-225" on="0"/>
        <pt x="-850" y="-275" on="1"/>
        <pt x="-850" y="-650" on="1"/>
        <pt x="-1050" y="-650" on="1"/>
        <pt x="-1050" y="-300" on="1"/>
        <pt x="-1210" y="-300" on="1"/>
        <pt x="-1210" y="-650" on="1"/>
        <pt x="-1585" y="-650" on="1"/>
        <pt x="-1667" y="-650" on="0"/>
        <pt x="-1708" y="-612" on="1"/>
        <pt x="-1750" y="-575" on="0"/>
        <pt x="-1750" y="-525" on="1"/>
        <pt x="-1750" y="-150" on="1"/>
        <pt x="-1550" y="-150" on="1"/>
      </contour>
    </TTGlyph>
    <TTGlyph name="glyph249" xMin="-1850" yMin="-700" xMax="-850" yMax="-100">
      <contour>
        <pt x="-1550" y="-100" on="1"/>
        <pt x="-1550" y="-700" on="1"/>
        <pt x="-1850" y="-700" on="1"/>
        <pt x="-1850" y="-550" on="1"/>
        <pt x="-1750" y="-550" on="1"/>
        <pt x="-1750" y="-100" on="1"/>
      </contour>
      <contour>
        <pt x="-1050" y="-250" on="1"/>
        <pt x="-1050" y="-100" on="1"/>
        <pt x="-850" y="-100" on="1"/>
        <pt x="-850" y="-700" on="1"/>
        <pt x="-1150" y="-700" on="1"/>
        <pt x="-1150" y="-550" on="1"/>
        <pt x="-1050" y="-550" on="1"/>
        <pt x="-1050" y="-400" on="1"/>
        <pt x="-1500" y="-400" on="1"/>
        <pt x="-1500" y="-250" on="1"/>
      </contour>
    </TTGlyph>
    <TTGlyph name="glyph250" xMin="-1575" yMin="1650" xMax="-1025" yMax="2250">
      <contour>
        <pt x="-1575" y="1650" on="1"/>
        <pt x="-1575" y="2250" on="1"/>
        <pt x="-1395" y="2250" on="1"/>
        <pt x="-1395" y="1650" on="1"/>
      </contour>
      <contour>
        <pt x="-1205" y="1650" on="1"/>
        <pt x="-1205" y="2250" on="1"/>
        <pt x="-1025" y="2250" on="1"/>
        <pt x="-1025" y="1650" on="1"/>
      </contour>
    </TTGlyph>
    <TTGlyph name="glyph251" xMin="-1800" yMin="1600" xMax="-800" yMax="1800">
      <contour>
        <pt x="-1800" y="1600" on="1"/>
        <pt x="-1800" y="1800" on="1"/>
        <pt x="-1377" y="1800" on="1"/>
        <pt x="-1300" y="1750" on="1"/>
        <pt x="-1222" y="1800" on="1"/>
        <pt x="-800" y="1800" on="1"/>
        <pt x="-800" y="1600" on="1"/>
      </contour>
    </TTGlyph>
    <TTGlyph name="glyph252" xMin="-1685" yMin="1700" xMax="-915" yMax="2334">
      <contour>
        <pt x="-1573" y="1711" on="1"/>
        <pt x="-1685" y="1868" on="1"/>
        <pt x="-1530" y="1969" on="0"/>
        <pt x="-1327" y="2222" on="0"/>
        <pt x="-1296" y="2334" on="1"/>
        <pt x="-1145" y="2288" on="1"/>
        <pt x="-1189" y="2149" on="0"/>
        <pt x="-1244" y="2053" on="0"/>
        <pt x="-1295" y="1994" on="1"/>
        <pt x="-1270" y="1998" on="0"/>
        <pt x="-1244" y="1998" on="1"/>
        <pt x="-1188" y="1998" on="0"/>
        <pt x="-1122" y="1981" on="1"/>
        <pt x="-1026" y="1956" on="0"/>
        <pt x="-915" y="1839" on="1"/>
        <pt x="-1060" y="1700" on="1"/>
        <pt x="-1141" y="1819" on="0"/>
        <pt x="-1267" y="1835" on="1"/>
        <pt x="-1309" y="1840" on="0"/>
        <pt x="-1343" y="1840" on="1"/>
        <pt x="-1412" y="1840" on="0"/>
        <pt x="-1450" y="1819" on="1"/>
        <pt x="-1507" y="1787" on="0"/>
      </contour>
    </TTGlyph>
    <TTGlyph name="glyph253" xMin="-1600" yMin="1700" xMax="-1000" yMax="2300">
      <contour>
        <pt x="-1200" y="2100" on="1"/>
        <pt x="-1000" y="2100" on="1"/>
        <pt x="-1000" y="1900" on="1"/>
        <pt x="-1200" y="1900" on="1"/>
        <pt x="-1200" y="1700" on="1"/>
        <pt x="-1400" y="1700" on="1"/>
        <pt x="-1400" y="1900" on="1"/>
        <pt x="-1600" y="1900" on="1"/>
        <pt x="-1600" y="2100" on="1"/>
        <pt x="-1400" y="2100" on="1"/>
        <pt x="-1400" y="2300" on="1"/>
        <pt x="-1200" y="2300" on="1"/>
      </contour>
    </TTGlyph>
    <TTGlyph name="glyph254" xMin="150" yMin="0" xMax="1900" yMax="1500">
      <contour>
        <pt x="900" y="1300" on="1"/>
        <pt x="900" y="1500" on="1"/>
        <pt x="1900" y="1500" on="1"/>
        <pt x="1900" y="1300" on="1"/>
      </contour>
      <contour>
        <pt x="1700" y="0" on="1"/>
        <pt x="1700" y="700" on="1"/>
        <pt x="1700" y="900" on="0"/>
        <pt x="1400" y="900" on="1"/>
        <pt x="1100" y="900" on="0"/>
        <pt x="1100" y="700" on="1"/>
        <pt x="1100" y="0" on="1"/>
        <pt x="900" y="0" on="1"/>
        <pt x="900" y="700" on="1"/>
        <pt x="900" y="1100" on="0"/>
        <pt x="1400" y="1100" on="1"/>
        <pt x="1900" y="1100" on="0"/>
        <pt x="1900" y="700" on="1"/>
        <pt x="1900" y="0" on="1"/>
      </contour>
      <contour>
        <pt x="150" y="1100" on="1"/>
        <pt x="150" y="1500" on="0"/>
        <pt x="650" y="1500" on="1"/>
        <pt x="650" y="1300" on="1"/>
        <pt x="350" y="1300" on="0"/>
        <pt x="350" y="1100" on="1"/>
        <pt x="350" y="400" on="1"/>
        <pt x="350" y="297" on="0"/>
        <pt x="392" y="244" on="1"/>
        <pt x="415" y="214" on="0"/>
        <pt x="439" y="214" on="1"/>
        <pt x="458" y="214" on="0"/>
        <pt x="477" y="234" on="1"/>
        <pt x="494" y="250" on="0"/>
        <pt x="494" y="279" on="1"/>
        <pt x="494" y="326" on="0"/>
        <pt x="451" y="405" on="1"/>
        <pt x="392" y="503" on="1"/>
        <pt x="546" y="610" on="1"/>
        <pt x="613" y="526" on="1"/>
        <pt x="700" y="437" on="0"/>
        <pt x="700" y="260" on="1"/>
        <pt x="700" y="170" on="0"/>
        <pt x="610" y="82" on="1"/>
        <pt x="526" y="0" on="0"/>
        <pt x="439" y="0" on="1"/>
        <pt x="341" y="0" on="0"/>
        <pt x="150" y="206" on="0"/>
        <pt x="150" y="400" on="1"/>
      </contour>
    </TTGlyph>
    <TTGlyph name="glyph255" xMin="150" yMin="0" xMax="1900" yMax="1500">
      <contour>
        <pt x="1900" y="707" on="0"/>
        <pt x="1200" y="536" on="1"/>
        <pt x="1100" y="511" on="1"/>
        <pt x="1100" y="400" on="1"/>
        <pt x="1100" y="200" on="0"/>
        <pt x="1400" y="200" on="1"/>
        <pt x="1700" y="200" on="0"/>
        <pt x="1700" y="400" on="1"/>
        <pt x="1700" y="600" on="1"/>
        <pt x="1900" y="600" on="1"/>
        <pt x="1900" y="400" on="1"/>
        <pt x="1900" y="0" on="0"/>
        <pt x="1400" y="0" on="1"/>
        <pt x="900" y="0" on="0"/>
        <pt x="900" y="400" on="1"/>
        <pt x="900" y="668" on="1"/>
        <pt x="1150" y="729" on="1"/>
        <pt x="1700" y="863" on="0"/>
        <pt x="1700" y="1100" on="1"/>
        <pt x="1700" y="1300" on="0"/>
        <pt x="1400" y="1300" on="1"/>
        <pt x="1100" y="1300" on="0"/>
        <pt x="1100" y="1100" on="1"/>
        <pt x="1200" y="1100" on="1"/>
        <pt x="1200" y="900" on="1"/>
        <pt x="1050" y="900" on="1"/>
        <pt x="900" y="900" on="0"/>
        <pt x="900" y="1050" on="1"/>
        <pt x="900" y="1100" on="1"/>
        <pt x="900" y="1500" on="0"/>
        <pt x="1400" y="1500" on="1"/>
        <pt x="1900" y="1500" on="0"/>
        <pt x="1900" y="1100" on="1"/>
      </contour>
      <contour>
        <pt x="150" y="1100" on="1"/>
        <pt x="150" y="1500" on="0"/>
        <pt x="650" y="1500" on="1"/>
        <pt x="650" y="1300" on="1"/>
        <pt x="350" y="1300" on="0"/>
        <pt x="350" y="1100" on="1"/>
        <pt x="350" y="400" on="1"/>
        <pt x="350" y="297" on="0"/>
        <pt x="392" y="244" on="1"/>
        <pt x="415" y="214" on="0"/>
        <pt x="439" y="214" on="1"/>
        <pt x="458" y="214" on="0"/>
        <pt x="477" y="234" on="1"/>
        <pt x="494" y="250" on="0"/>
        <pt x="494" y="279" on="1"/>
        <pt x="494" y="326" on="0"/>
        <pt x="451" y="405" on="1"/>
        <pt x="392" y="503" on="1"/>
        <pt x="546" y="610" on="1"/>
        <pt x="613" y="526" on="1"/>
        <pt x="700" y="437" on="0"/>
        <pt x="700" y="260" on="1"/>
        <pt x="700" y="170" on="0"/>
        <pt x="610" y="82" on="1"/>
        <pt x="526" y="0" on="0"/>
        <pt x="439" y="0" on="1"/>
        <pt x="341" y="0" on="0"/>
        <pt x="150" y="206" on="0"/>
        <pt x="150" y="400" on="1"/>
      </contour>
    </TTGlyph>
    <TTGlyph name="glyph256" xMin="150" yMin="0" xMax="1900" yMax="1500">
      <contour>
        <pt x="900" y="1300" on="1"/>
        <pt x="900" y="1500" on="1"/>
        <pt x="1900" y="1500" on="1"/>
        <pt x="1900" y="1300" on="1"/>
      </contour>
      <contour>
        <pt x="1100" y="30" on="1"/>
        <pt x="1100" y="0" on="1"/>
        <pt x="900" y="0" on="1"/>
        <pt x="900" y="700" on="1"/>
        <pt x="900" y="1100" on="0"/>
        <pt x="1400" y="1100" on="1"/>
        <pt x="1900" y="1100" on="0"/>
        <pt x="1900" y="700" on="1"/>
        <pt x="1900" y="0" on="1"/>
        <pt x="1700" y="0" on="1"/>
        <pt x="1700" y="700" on="1"/>
        <pt x="1700" y="900" on="0"/>
        <pt x="1400" y="900" on="1"/>
        <pt x="1100" y="900" on="0"/>
        <pt x="1100" y="700" on="1"/>
        <pt x="1100" y="354" on="1"/>
        <pt x="1293" y="600" on="1"/>
        <pt x="1450" y="476" on="1"/>
      </contour>
      <contour>
        <pt x="150" y="1100" on="1"/>
        <pt x="150" y="1500" on="0"/>
        <pt x="650" y="1500" on="1"/>
        <pt x="650" y="1300" on="1"/>
        <pt x="350" y="1300" on="0"/>
        <pt x="350" y="1100" on="1"/>
        <pt x="350" y="400" on="1"/>
        <pt x="350" y="297" on="0"/>
        <pt x="392" y="244" on="1"/>
        <pt x="415" y="214" on="0"/>
        <pt x="439" y="214" on="1"/>
        <pt x="458" y="214" on="0"/>
        <pt x="477" y="234" on="1"/>
        <pt x="494" y="250" on="0"/>
        <pt x="494" y="279" on="1"/>
        <pt x="494" y="326" on="0"/>
        <pt x="451" y="405" on="1"/>
        <pt x="392" y="503" on="1"/>
        <pt x="546" y="610" on="1"/>
        <pt x="613" y="526" on="1"/>
        <pt x="700" y="437" on="0"/>
        <pt x="700" y="260" on="1"/>
        <pt x="700" y="170" on="0"/>
        <pt x="610" y="82" on="1"/>
        <pt x="526" y="0" on="0"/>
        <pt x="439" y="0" on="1"/>
        <pt x="341" y="0" on="0"/>
        <pt x="150" y="206" on="0"/>
        <pt x="150" y="400" on="1"/>
      </contour>
    </TTGlyph>
    <TTGlyph name="glyph257" xMin="150" yMin="0" xMax="2625" yMax="1500">
      <contour>
        <pt x="1900" y="400" on="1"/>
        <pt x="1900" y="200" on="0"/>
        <pt x="2163" y="200" on="1"/>
        <pt x="2425" y="200" on="0"/>
        <pt x="2425" y="400" on="1"/>
        <pt x="2425" y="1500" on="1"/>
        <pt x="2625" y="1500" on="1"/>
        <pt x="2625" y="400" on="1"/>
        <pt x="2625" y="0" on="0"/>
        <pt x="2163" y="0" on="1"/>
        <pt x="1911" y="0" on="0"/>
        <pt x="1796" y="118" on="1"/>
        <pt x="1672" y="0" on="0"/>
        <pt x="1400" y="0" on="1"/>
        <pt x="900" y="0" on="0"/>
        <pt x="900" y="400" on="1"/>
        <pt x="900" y="470" on="1"/>
        <pt x="1200" y="780" on="0"/>
        <pt x="1200" y="1100" on="1"/>
        <pt x="1200" y="1203" on="0"/>
        <pt x="1158" y="1257" on="1"/>
        <pt x="1135" y="1286" on="0"/>
        <pt x="1111" y="1286" on="1"/>
        <pt x="1092" y="1286" on="0"/>
        <pt x="1073" y="1267" on="1"/>
        <pt x="1056" y="1250" on="0"/>
        <pt x="1056" y="1221" on="1"/>
        <pt x="1056" y="1174" on="0"/>
        <pt x="1099" y="1095" on="1"/>
        <pt x="1158" y="997" on="1"/>
        <pt x="1004" y="890" on="1"/>
        <pt x="937" y="974" on="1"/>
        <pt x="850" y="1063" on="0"/>
        <pt x="850" y="1240" on="1"/>
        <pt x="850" y="1330" on="0"/>
        <pt x="940" y="1418" on="1"/>
        <pt x="1024" y="1500" on="0"/>
        <pt x="1111" y="1500" on="1"/>
        <pt x="1209" y="1500" on="0"/>
        <pt x="1400" y="1294" on="0"/>
        <pt x="1400" y="1100" on="1"/>
        <pt x="1400" y="669" on="0"/>
        <pt x="1100" y="392" on="1"/>
        <pt x="1106" y="200" on="0"/>
        <pt x="1400" y="200" on="1"/>
        <pt x="1700" y="200" on="0"/>
        <pt x="1700" y="400" on="1"/>
        <pt x="1700" y="1500" on="1"/>
        <pt x="1900" y="1500" on="1"/>
      </contour>
      <contour>
        <pt x="150" y="1100" on="1"/>
        <pt x="150" y="1500" on="0"/>
        <pt x="650" y="1500" on="1"/>
        <pt x="650" y="1300" on="1"/>
        <pt x="350" y="1300" on="0"/>
        <pt x="350" y="1100" on="1"/>
        <pt x="350" y="400" on="1"/>
        <pt x="350" y="297" on="0"/>
        <pt x="392" y="244" on="1"/>
        <pt x="415" y="214" on="0"/>
        <pt x="439" y="214" on="1"/>
        <pt x="458" y="214" on="0"/>
        <pt x="477" y="234" on="1"/>
        <pt x="494" y="250" on="0"/>
        <pt x="494" y="279" on="1"/>
        <pt x="494" y="326" on="0"/>
        <pt x="451" y="405" on="1"/>
        <pt x="392" y="503" on="1"/>
        <pt x="546" y="610" on="1"/>
        <pt x="613" y="526" on="1"/>
        <pt x="700" y="437" on="0"/>
        <pt x="700" y="260" on="1"/>
        <pt x="700" y="170" on="0"/>
        <pt x="610" y="82" on="1"/>
        <pt x="526" y="0" on="0"/>
        <pt x="439" y="0" on="1"/>
        <pt x="341" y="0" on="0"/>
        <pt x="150" y="206" on="0"/>
        <pt x="150" y="400" on="1"/>
      </contour>
    </TTGlyph>
    <TTGlyph name="glyph258" xMin="150" yMin="0" xMax="1900" yMax="1600">
      <contour>
        <pt x="1593" y="1101" on="1"/>
        <pt x="1572" y="1100" on="0"/>
        <pt x="1550" y="1100" on="1"/>
        <pt x="1250" y="1100" on="1"/>
        <pt x="900" y="1100" on="0"/>
        <pt x="900" y="1400" on="1"/>
        <pt x="900" y="1600" on="1"/>
        <pt x="1100" y="1600" on="1"/>
        <pt x="1100" y="1400" on="1"/>
        <pt x="1100" y="1300" on="0"/>
        <pt x="1250" y="1300" on="1"/>
        <pt x="1550" y="1300" on="1"/>
        <pt x="1550" y="1500" on="0"/>
        <pt x="1725" y="1500" on="1"/>
        <pt x="1900" y="1500" on="0"/>
        <pt x="1900" y="1300" on="1"/>
        <pt x="1900" y="1198" on="0"/>
        <pt x="1809" y="1148" on="1"/>
        <pt x="1900" y="1044" on="0"/>
        <pt x="1900" y="900" on="1"/>
        <pt x="1900" y="0" on="1"/>
        <pt x="1700" y="0" on="1"/>
        <pt x="1400" y="309" on="1"/>
        <pt x="1100" y="0" on="1"/>
        <pt x="900" y="0" on="1"/>
        <pt x="900" y="800" on="1"/>
        <pt x="850" y="800" on="1"/>
        <pt x="850" y="1000" on="1"/>
        <pt x="1100" y="1000" on="1"/>
        <pt x="1100" y="287" on="1"/>
        <pt x="1400" y="596" on="1"/>
        <pt x="1700" y="287" on="1"/>
        <pt x="1700" y="900" on="1"/>
        <pt x="1700" y="1017" on="0"/>
      </contour>
      <contour>
        <pt x="150" y="1100" on="1"/>
        <pt x="150" y="1500" on="0"/>
        <pt x="650" y="1500" on="1"/>
        <pt x="650" y="1300" on="1"/>
        <pt x="350" y="1300" on="0"/>
        <pt x="350" y="1100" on="1"/>
        <pt x="350" y="400" on="1"/>
        <pt x="350" y="297" on="0"/>
        <pt x="392" y="244" on="1"/>
        <pt x="415" y="214" on="0"/>
        <pt x="439" y="214" on="1"/>
        <pt x="458" y="214" on="0"/>
        <pt x="477" y="234" on="1"/>
        <pt x="494" y="250" on="0"/>
        <pt x="494" y="279" on="1"/>
        <pt x="494" y="326" on="0"/>
        <pt x="451" y="405" on="1"/>
        <pt x="392" y="503" on="1"/>
        <pt x="546" y="610" on="1"/>
        <pt x="613" y="526" on="1"/>
        <pt x="700" y="437" on="0"/>
        <pt x="700" y="260" on="1"/>
        <pt x="700" y="170" on="0"/>
        <pt x="610" y="82" on="1"/>
        <pt x="526" y="0" on="0"/>
        <pt x="439" y="0" on="1"/>
        <pt x="341" y="0" on="0"/>
        <pt x="150" y="206" on="0"/>
        <pt x="150" y="400" on="1"/>
      </contour>
    </TTGlyph>
    <TTGlyph name="glyph259" xMin="150" yMin="0" xMax="1900" yMax="1500">
      <contour>
        <pt x="150" y="1100" on="1"/>
        <pt x="150" y="1500" on="0"/>
        <pt x="650" y="1500" on="1"/>
        <pt x="650" y="1300" on="1"/>
        <pt x="350" y="1300" on="0"/>
        <pt x="350" y="1100" on="1"/>
        <pt x="350" y="400" on="1"/>
        <pt x="350" y="297" on="0"/>
        <pt x="392" y="244" on="1"/>
        <pt x="415" y="214" on="0"/>
        <pt x="439" y="214" on="1"/>
        <pt x="458" y="214" on="0"/>
        <pt x="477" y="234" on="1"/>
        <pt x="494" y="250" on="0"/>
        <pt x="494" y="279" on="1"/>
        <pt x="494" y="326" on="0"/>
        <pt x="451" y="405" on="1"/>
        <pt x="392" y="503" on="1"/>
        <pt x="546" y="610" on="1"/>
        <pt x="613" y="526" on="1"/>
        <pt x="700" y="437" on="0"/>
        <pt x="700" y="260" on="1"/>
        <pt x="700" y="170" on="0"/>
        <pt x="610" y="82" on="1"/>
        <pt x="526" y="0" on="0"/>
        <pt x="439" y="0" on="1"/>
        <pt x="341" y="0" on="0"/>
        <pt x="150" y="206" on="0"/>
        <pt x="150" y="400" on="1"/>
      </contour>
      <contour>
        <pt x="1675" y="800" on="1"/>
        <pt x="1750" y="800" on="0"/>
        <pt x="1750" y="875" on="1"/>
        <pt x="1750" y="950" on="0"/>
        <pt x="1675" y="950" on="1"/>
        <pt x="1600" y="950" on="0"/>
        <pt x="1600" y="875" on="1"/>
        <pt x="1600" y="800" on="0"/>
      </contour>
      <contour>
        <pt x="1900" y="400" on="1"/>
        <pt x="1900" y="0" on="0"/>
        <pt x="1400" y="0" on="1"/>
        <pt x="900" y="0" on="0"/>
        <pt x="900" y="400" on="1"/>
        <pt x="900" y="760" on="1"/>
        <pt x="900" y="878" on="0"/>
        <pt x="983" y="981" on="1"/>
        <pt x="850" y="1042" on="0"/>
        <pt x="850" y="1225" on="1"/>
        <pt x="850" y="1500" on="1"/>
        <pt x="1900" y="1500" on="1"/>
        <pt x="1900" y="1300" on="1"/>
        <pt x="1050" y="1300" on="1"/>
        <pt x="1050" y="1225" on="1"/>
        <pt x="1050" y="1150" on="0"/>
        <pt x="1150" y="1130" on="1"/>
        <pt x="1250" y="1110" on="1"/>
        <pt x="1250" y="990" on="1"/>
        <pt x="1100" y="899" on="0"/>
        <pt x="1100" y="760" on="1"/>
        <pt x="1100" y="400" on="1"/>
        <pt x="1100" y="200" on="0"/>
        <pt x="1400" y="200" on="1"/>
        <pt x="1700" y="200" on="0"/>
        <pt x="1700" y="400" on="1"/>
        <pt x="1700" y="651" on="1"/>
        <pt x="1688" y="650" on="0"/>
        <pt x="1675" y="650" on="1"/>
        <pt x="1450" y="650" on="0"/>
        <pt x="1450" y="875" on="1"/>
        <pt x="1450" y="1100" on="0"/>
        <pt x="1675" y="1100" on="1"/>
        <pt x="1900" y="1100" on="0"/>
        <pt x="1900" y="875" on="1"/>
      </contour>
    </TTGlyph>
    <TTGlyph name="glyph260" xMin="150" yMin="0" xMax="2150" yMax="1500">
      <contour>
        <pt x="1150" y="460" on="1"/>
        <pt x="1077" y="445" on="0"/>
        <pt x="1049" y="405" on="1"/>
        <pt x="1006" y="326" on="0"/>
        <pt x="1006" y="279" on="1"/>
        <pt x="1006" y="250" on="0"/>
        <pt x="1023" y="234" on="1"/>
        <pt x="1042" y="214" on="0"/>
        <pt x="1061" y="214" on="1"/>
        <pt x="1085" y="214" on="0"/>
        <pt x="1108" y="244" on="1"/>
        <pt x="1150" y="297" on="0"/>
        <pt x="1150" y="400" on="1"/>
      </contour>
      <contour>
        <pt x="2150" y="1500" on="1"/>
        <pt x="2150" y="1300" on="1"/>
        <pt x="1185" y="1300" on="1"/>
        <pt x="1350" y="1053" on="0"/>
        <pt x="1350" y="400" on="1"/>
        <pt x="1350" y="206" on="0"/>
        <pt x="1159" y="0" on="0"/>
        <pt x="1061" y="0" on="1"/>
        <pt x="974" y="0" on="0"/>
        <pt x="890" y="82" on="1"/>
        <pt x="800" y="170" on="0"/>
        <pt x="800" y="260" on="1"/>
        <pt x="800" y="437" on="0"/>
        <pt x="887" y="526" on="1"/>
        <pt x="958" y="616" on="0"/>
        <pt x="1142" y="650" on="1"/>
        <pt x="1099" y="1300" on="0"/>
        <pt x="810" y="1300" on="1"/>
        <pt x="800" y="1300" on="1"/>
        <pt x="800" y="1500" on="1"/>
      </contour>
      <contour>
        <pt x="150" y="1100" on="1"/>
        <pt x="150" y="1500" on="0"/>
        <pt x="650" y="1500" on="1"/>
        <pt x="650" y="1300" on="1"/>
        <pt x="350" y="1300" on="0"/>
        <pt x="350" y="1100" on="1"/>
        <pt x="350" y="400" on="1"/>
        <pt x="350" y="297" on="0"/>
        <pt x="392" y="244" on="1"/>
        <pt x="415" y="214" on="0"/>
        <pt x="439" y="214" on="1"/>
        <pt x="458" y="214" on="0"/>
        <pt x="477" y="234" on="1"/>
        <pt x="494" y="250" on="0"/>
        <pt x="494" y="279" on="1"/>
        <pt x="494" y="326" on="0"/>
        <pt x="451" y="405" on="1"/>
        <pt x="392" y="503" on="1"/>
        <pt x="546" y="610" on="1"/>
        <pt x="613" y="526" on="1"/>
        <pt x="700" y="437" on="0"/>
        <pt x="700" y="260" on="1"/>
        <pt x="700" y="170" on="0"/>
        <pt x="610" y="82" on="1"/>
        <pt x="526" y="0" on="0"/>
        <pt x="439" y="0" on="1"/>
        <pt x="341" y="0" on="0"/>
        <pt x="150" y="206" on="0"/>
        <pt x="150" y="400" on="1"/>
      </contour>
      <contour>
        <pt x="1925" y="800" on="1"/>
        <pt x="2000" y="800" on="0"/>
        <pt x="2000" y="875" on="1"/>
        <pt x="2000" y="950" on="0"/>
        <pt x="1925" y="950" on="1"/>
        <pt x="1850" y="950" on="0"/>
        <pt x="1850" y="875" on="1"/>
        <pt x="1850" y="800" on="0"/>
      </contour>
      <contour>
        <pt x="2150" y="0" on="1"/>
        <pt x="1950" y="0" on="1"/>
        <pt x="1950" y="470" on="0"/>
        <pt x="1400" y="470" on="1"/>
        <pt x="1400" y="670" on="1"/>
        <pt x="1763" y="670" on="0"/>
        <pt x="1950" y="513" on="1"/>
        <pt x="1950" y="651" on="1"/>
        <pt x="1938" y="650" on="0"/>
        <pt x="1925" y="650" on="1"/>
        <pt x="1700" y="650" on="0"/>
        <pt x="1700" y="875" on="1"/>
        <pt x="1700" y="1100" on="0"/>
        <pt x="1925" y="1100" on="1"/>
        <pt x="2150" y="1100" on="0"/>
        <pt x="2150" y="875" on="1"/>
      </contour>
    </TTGlyph>
    <TTGlyph name="glyph261" xMin="150" yMin="0" xMax="1900" yMax="1600">
      <contour>
        <pt x="150" y="1100" on="1"/>
        <pt x="150" y="1500" on="0"/>
        <pt x="650" y="1500" on="1"/>
        <pt x="650" y="1300" on="1"/>
        <pt x="350" y="1300" on="0"/>
        <pt x="350" y="1100" on="1"/>
        <pt x="350" y="400" on="1"/>
        <pt x="350" y="297" on="0"/>
        <pt x="392" y="244" on="1"/>
        <pt x="415" y="214" on="0"/>
        <pt x="439" y="214" on="1"/>
        <pt x="458" y="214" on="0"/>
        <pt x="477" y="234" on="1"/>
        <pt x="494" y="250" on="0"/>
        <pt x="494" y="279" on="1"/>
        <pt x="494" y="326" on="0"/>
        <pt x="451" y="405" on="1"/>
        <pt x="392" y="503" on="1"/>
        <pt x="546" y="610" on="1"/>
        <pt x="613" y="526" on="1"/>
        <pt x="700" y="437" on="0"/>
        <pt x="700" y="260" on="1"/>
        <pt x="700" y="170" on="0"/>
        <pt x="610" y="82" on="1"/>
        <pt x="526" y="0" on="0"/>
        <pt x="439" y="0" on="1"/>
        <pt x="341" y="0" on="0"/>
        <pt x="150" y="206" on="0"/>
        <pt x="150" y="400" on="1"/>
      </contour>
      <contour>
        <pt x="1100" y="287" on="1"/>
        <pt x="1400" y="596" on="1"/>
        <pt x="1700" y="287" on="1"/>
        <pt x="1700" y="1100" on="1"/>
        <pt x="1900" y="1100" on="1"/>
        <pt x="1900" y="0" on="1"/>
        <pt x="1700" y="0" on="1"/>
        <pt x="1400" y="309" on="1"/>
        <pt x="1100" y="0" on="1"/>
        <pt x="900" y="0" on="1"/>
        <pt x="900" y="760" on="1"/>
        <pt x="900" y="878" on="0"/>
        <pt x="983" y="981" on="1"/>
        <pt x="850" y="1042" on="0"/>
        <pt x="850" y="1225" on="1"/>
        <pt x="850" y="1500" on="1"/>
        <pt x="1070" y="1500" on="1"/>
        <pt x="1125" y="1500" on="0"/>
        <pt x="1333" y="1450" on="0"/>
        <pt x="1500" y="1450" on="1"/>
        <pt x="1700" y="1450" on="0"/>
        <pt x="1700" y="1550" on="1"/>
        <pt x="1700" y="1600" on="1"/>
        <pt x="1900" y="1600" on="1"/>
        <pt x="1900" y="1550" on="1"/>
        <pt x="1900" y="1250" on="0"/>
        <pt x="1500" y="1250" on="1"/>
        <pt x="1383" y="1250" on="0"/>
        <pt x="1177" y="1279" on="0"/>
        <pt x="1110" y="1300" on="1"/>
        <pt x="1050" y="1300" on="1"/>
        <pt x="1050" y="1225" on="1"/>
        <pt x="1050" y="1150" on="0"/>
        <pt x="1150" y="1130" on="1"/>
        <pt x="1250" y="1110" on="1"/>
        <pt x="1250" y="990" on="1"/>
        <pt x="1100" y="899" on="0"/>
        <pt x="1100" y="760" on="1"/>
      </contour>
    </TTGlyph>
    <TTGlyph name="glyph262" xMin="150" yMin="0" xMax="3275" yMax="1500">
      <contour>
        <pt x="1900" y="400" on="1"/>
        <pt x="1900" y="200" on="0"/>
        <pt x="2144" y="200" on="1"/>
        <pt x="2388" y="200" on="0"/>
        <pt x="2388" y="400" on="1"/>
        <pt x="2388" y="1500" on="1"/>
        <pt x="2588" y="1500" on="1"/>
        <pt x="2588" y="400" on="1"/>
        <pt x="2588" y="200" on="0"/>
        <pt x="2831" y="200" on="1"/>
        <pt x="3075" y="200" on="0"/>
        <pt x="3075" y="400" on="1"/>
        <pt x="3075" y="1500" on="1"/>
        <pt x="3275" y="1500" on="1"/>
        <pt x="3275" y="400" on="1"/>
        <pt x="3275" y="0" on="0"/>
        <pt x="2831" y="0" on="1"/>
        <pt x="2598" y="0" on="0"/>
        <pt x="2488" y="110" on="1"/>
        <pt x="2377" y="0" on="0"/>
        <pt x="2144" y="0" on="1"/>
        <pt x="1700" y="0" on="0"/>
        <pt x="1700" y="400" on="1"/>
        <pt x="1700" y="1100" on="1"/>
        <pt x="1700" y="1300" on="0"/>
        <pt x="1400" y="1300" on="1"/>
        <pt x="1100" y="1300" on="0"/>
        <pt x="1100" y="1100" on="1"/>
        <pt x="1100" y="1030" on="0"/>
        <pt x="1390" y="1030" on="1"/>
        <pt x="1390" y="830" on="1"/>
        <pt x="1100" y="830" on="0"/>
        <pt x="1100" y="400" on="1"/>
        <pt x="1100" y="297" on="0"/>
        <pt x="1142" y="244" on="1"/>
        <pt x="1165" y="214" on="0"/>
        <pt x="1189" y="214" on="1"/>
        <pt x="1208" y="214" on="0"/>
        <pt x="1227" y="234" on="1"/>
        <pt x="1244" y="250" on="0"/>
        <pt x="1244" y="279" on="1"/>
        <pt x="1244" y="326" on="0"/>
        <pt x="1201" y="405" on="1"/>
        <pt x="1142" y="503" on="1"/>
        <pt x="1296" y="610" on="1"/>
        <pt x="1363" y="526" on="1"/>
        <pt x="1450" y="437" on="0"/>
        <pt x="1450" y="260" on="1"/>
        <pt x="1450" y="170" on="0"/>
        <pt x="1360" y="82" on="1"/>
        <pt x="1276" y="0" on="0"/>
        <pt x="1189" y="0" on="1"/>
        <pt x="1091" y="0" on="0"/>
        <pt x="900" y="206" on="0"/>
        <pt x="900" y="400" on="1"/>
        <pt x="900" y="733" on="0"/>
        <pt x="1037" y="890" on="1"/>
        <pt x="900" y="957" on="0"/>
        <pt x="900" y="1100" on="1"/>
        <pt x="900" y="1500" on="0"/>
        <pt x="1400" y="1500" on="1"/>
        <pt x="1900" y="1500" on="0"/>
        <pt x="1900" y="1100" on="1"/>
      </contour>
      <contour>
        <pt x="150" y="1100" on="1"/>
        <pt x="150" y="1500" on="0"/>
        <pt x="650" y="1500" on="1"/>
        <pt x="650" y="1300" on="1"/>
        <pt x="350" y="1300" on="0"/>
        <pt x="350" y="1100" on="1"/>
        <pt x="350" y="400" on="1"/>
        <pt x="350" y="297" on="0"/>
        <pt x="392" y="244" on="1"/>
        <pt x="415" y="214" on="0"/>
        <pt x="439" y="214" on="1"/>
        <pt x="458" y="214" on="0"/>
        <pt x="477" y="234" on="1"/>
        <pt x="494" y="250" on="0"/>
        <pt x="494" y="279" on="1"/>
        <pt x="494" y="326" on="0"/>
        <pt x="451" y="405" on="1"/>
        <pt x="392" y="503" on="1"/>
        <pt x="546" y="610" on="1"/>
        <pt x="613" y="526" on="1"/>
        <pt x="700" y="437" on="0"/>
        <pt x="700" y="260" on="1"/>
        <pt x="700" y="170" on="0"/>
        <pt x="610" y="82" on="1"/>
        <pt x="526" y="0" on="0"/>
        <pt x="439" y="0" on="1"/>
        <pt x="341" y="0" on="0"/>
        <pt x="150" y="206" on="0"/>
        <pt x="150" y="400" on="1"/>
      </contour>
    </TTGlyph>
    <TTGlyph name="glyph263" xMin="150" yMin="-700" xMax="2550" yMax="1500">
      <contour>
        <pt x="900" y="-200" on="1"/>
        <pt x="1150" y="-200" on="1"/>
        <pt x="1498" y="-200" on="0"/>
        <pt x="1676" y="-350" on="1"/>
        <pt x="1854" y="-500" on="0"/>
        <pt x="2100" y="-500" on="1"/>
        <pt x="2350" y="-500" on="0"/>
        <pt x="2350" y="-400" on="1"/>
        <pt x="2350" y="-300" on="0"/>
        <pt x="2250" y="-300" on="1"/>
        <pt x="2050" y="-300" on="1"/>
        <pt x="2050" y="-100" on="1"/>
        <pt x="2250" y="-100" on="1"/>
        <pt x="2550" y="-100" on="0"/>
        <pt x="2550" y="-400" on="1"/>
        <pt x="2550" y="-700" on="0"/>
        <pt x="2100" y="-700" on="1"/>
        <pt x="1762" y="-700" on="0"/>
        <pt x="1534" y="-512" on="1"/>
        <pt x="1397" y="-400" on="0"/>
        <pt x="1150" y="-400" on="1"/>
        <pt x="900" y="-400" on="1"/>
      </contour>
      <contour>
        <pt x="1900" y="1300" on="1"/>
        <pt x="1900" y="0" on="1"/>
        <pt x="1700" y="0" on="1"/>
        <pt x="1700" y="1277" on="1"/>
        <pt x="1491" y="1075" on="1"/>
        <pt x="1309" y="1075" on="1"/>
        <pt x="1100" y="1277" on="1"/>
        <pt x="1100" y="1100" on="1"/>
        <pt x="1100" y="990" on="0"/>
        <pt x="1350" y="980" on="1"/>
        <pt x="1350" y="780" on="1"/>
        <pt x="1338" y="780" on="1"/>
        <pt x="1100" y="780" on="0"/>
        <pt x="1100" y="400" on="1"/>
        <pt x="1100" y="297" on="0"/>
        <pt x="1142" y="244" on="1"/>
        <pt x="1165" y="214" on="0"/>
        <pt x="1189" y="214" on="1"/>
        <pt x="1208" y="214" on="0"/>
        <pt x="1227" y="234" on="1"/>
        <pt x="1244" y="250" on="0"/>
        <pt x="1244" y="279" on="1"/>
        <pt x="1244" y="326" on="0"/>
        <pt x="1201" y="405" on="1"/>
        <pt x="1142" y="503" on="1"/>
        <pt x="1296" y="610" on="1"/>
        <pt x="1363" y="526" on="1"/>
        <pt x="1450" y="437" on="0"/>
        <pt x="1450" y="260" on="1"/>
        <pt x="1450" y="170" on="0"/>
        <pt x="1360" y="82" on="1"/>
        <pt x="1276" y="0" on="0"/>
        <pt x="1189" y="0" on="1"/>
        <pt x="1091" y="0" on="0"/>
        <pt x="900" y="206" on="0"/>
        <pt x="900" y="400" on="1"/>
        <pt x="900" y="733" on="0"/>
        <pt x="1037" y="850" on="1"/>
        <pt x="900" y="917" on="0"/>
        <pt x="900" y="1100" on="1"/>
        <pt x="900" y="1500" on="1"/>
        <pt x="1157" y="1500" on="1"/>
        <pt x="1400" y="1265" on="1"/>
        <pt x="1643" y="1500" on="1"/>
        <pt x="2200" y="1500" on="1"/>
        <pt x="2550" y="1500" on="0"/>
        <pt x="2550" y="1100" on="1"/>
        <pt x="2550" y="0" on="1"/>
        <pt x="2350" y="0" on="1"/>
        <pt x="2350" y="1100" on="1"/>
        <pt x="2350" y="1300" on="0"/>
        <pt x="2200" y="1300" on="1"/>
      </contour>
      <contour>
        <pt x="150" y="1100" on="1"/>
        <pt x="150" y="1500" on="0"/>
        <pt x="650" y="1500" on="1"/>
        <pt x="650" y="1300" on="1"/>
        <pt x="350" y="1300" on="0"/>
        <pt x="350" y="1100" on="1"/>
        <pt x="350" y="400" on="1"/>
        <pt x="350" y="297" on="0"/>
        <pt x="392" y="244" on="1"/>
        <pt x="415" y="214" on="0"/>
        <pt x="439" y="214" on="1"/>
        <pt x="458" y="214" on="0"/>
        <pt x="477" y="234" on="1"/>
        <pt x="494" y="250" on="0"/>
        <pt x="494" y="279" on="1"/>
        <pt x="494" y="326" on="0"/>
        <pt x="451" y="405" on="1"/>
        <pt x="392" y="503" on="1"/>
        <pt x="546" y="610" on="1"/>
        <pt x="613" y="526" on="1"/>
        <pt x="700" y="437" on="0"/>
        <pt x="700" y="260" on="1"/>
        <pt x="700" y="170" on="0"/>
        <pt x="610" y="82" on="1"/>
        <pt x="526" y="0" on="0"/>
        <pt x="439" y="0" on="1"/>
        <pt x="341" y="0" on="0"/>
        <pt x="150" y="206" on="0"/>
        <pt x="150" y="400" on="1"/>
      </contour>
    </TTGlyph>
    <TTGlyph name="glyph264" xMin="150" yMin="0" xMax="1900" yMax="1600">
      <contour>
        <pt x="900" y="1500" on="1"/>
        <pt x="1100" y="1500" on="1"/>
        <pt x="1100" y="1350" on="1"/>
        <pt x="1550" y="1350" on="1"/>
        <pt x="1700" y="1350" on="0"/>
        <pt x="1700" y="1500" on="1"/>
        <pt x="1700" y="1600" on="1"/>
        <pt x="1900" y="1600" on="1"/>
        <pt x="1900" y="1500" on="1"/>
        <pt x="1900" y="1150" on="0"/>
        <pt x="1550" y="1150" on="1"/>
        <pt x="900" y="1150" on="1"/>
      </contour>
      <contour>
        <pt x="1100" y="1000" on="1"/>
        <pt x="1100" y="287" on="1"/>
        <pt x="1400" y="596" on="1"/>
        <pt x="1700" y="287" on="1"/>
        <pt x="1700" y="1000" on="1"/>
        <pt x="1900" y="1000" on="1"/>
        <pt x="1900" y="0" on="1"/>
        <pt x="1700" y="0" on="1"/>
        <pt x="1400" y="309" on="1"/>
        <pt x="1100" y="0" on="1"/>
        <pt x="900" y="0" on="1"/>
        <pt x="900" y="1000" on="1"/>
      </contour>
      <contour>
        <pt x="150" y="1100" on="1"/>
        <pt x="150" y="1500" on="0"/>
        <pt x="650" y="1500" on="1"/>
        <pt x="650" y="1300" on="1"/>
        <pt x="350" y="1300" on="0"/>
        <pt x="350" y="1100" on="1"/>
        <pt x="350" y="400" on="1"/>
        <pt x="350" y="297" on="0"/>
        <pt x="392" y="244" on="1"/>
        <pt x="415" y="214" on="0"/>
        <pt x="439" y="214" on="1"/>
        <pt x="458" y="214" on="0"/>
        <pt x="477" y="234" on="1"/>
        <pt x="494" y="250" on="0"/>
        <pt x="494" y="279" on="1"/>
        <pt x="494" y="326" on="0"/>
        <pt x="451" y="405" on="1"/>
        <pt x="392" y="503" on="1"/>
        <pt x="546" y="610" on="1"/>
        <pt x="613" y="526" on="1"/>
        <pt x="700" y="437" on="0"/>
        <pt x="700" y="260" on="1"/>
        <pt x="700" y="170" on="0"/>
        <pt x="610" y="82" on="1"/>
        <pt x="526" y="0" on="0"/>
        <pt x="439" y="0" on="1"/>
        <pt x="341" y="0" on="0"/>
        <pt x="150" y="206" on="0"/>
        <pt x="150" y="400" on="1"/>
      </contour>
    </TTGlyph>
    <TTGlyph name="glyph265" xMin="150" yMin="0" xMax="1950" yMax="1600">
      <contour>
        <pt x="1900" y="400" on="1"/>
        <pt x="1900" y="0" on="0"/>
        <pt x="1400" y="0" on="1"/>
        <pt x="900" y="0" on="0"/>
        <pt x="900" y="400" on="1"/>
        <pt x="900" y="1300" on="1"/>
        <pt x="850" y="1300" on="1"/>
        <pt x="850" y="1500" on="1"/>
        <pt x="1100" y="1500" on="1"/>
        <pt x="1100" y="400" on="1"/>
        <pt x="1100" y="200" on="0"/>
        <pt x="1400" y="200" on="1"/>
        <pt x="1700" y="200" on="0"/>
        <pt x="1700" y="400" on="1"/>
        <pt x="1700" y="1300" on="0"/>
        <pt x="1360" y="1300" on="1"/>
        <pt x="1350" y="1300" on="1"/>
        <pt x="1350" y="1500" on="1"/>
        <pt x="1750" y="1500" on="1"/>
        <pt x="1750" y="1600" on="1"/>
        <pt x="1950" y="1600" on="1"/>
        <pt x="1950" y="1300" on="1"/>
        <pt x="1735" y="1300" on="1"/>
        <pt x="1900" y="1053" on="0"/>
      </contour>
      <contour>
        <pt x="150" y="1100" on="1"/>
        <pt x="150" y="1500" on="0"/>
        <pt x="650" y="1500" on="1"/>
        <pt x="650" y="1300" on="1"/>
        <pt x="350" y="1300" on="0"/>
        <pt x="350" y="1100" on="1"/>
        <pt x="350" y="400" on="1"/>
        <pt x="350" y="297" on="0"/>
        <pt x="392" y="244" on="1"/>
        <pt x="415" y="214" on="0"/>
        <pt x="439" y="214" on="1"/>
        <pt x="458" y="214" on="0"/>
        <pt x="477" y="234" on="1"/>
        <pt x="494" y="250" on="0"/>
        <pt x="494" y="279" on="1"/>
        <pt x="494" y="326" on="0"/>
        <pt x="451" y="405" on="1"/>
        <pt x="392" y="503" on="1"/>
        <pt x="546" y="610" on="1"/>
        <pt x="613" y="526" on="1"/>
        <pt x="700" y="437" on="0"/>
        <pt x="700" y="260" on="1"/>
        <pt x="700" y="170" on="0"/>
        <pt x="610" y="82" on="1"/>
        <pt x="526" y="0" on="0"/>
        <pt x="439" y="0" on="1"/>
        <pt x="341" y="0" on="0"/>
        <pt x="150" y="206" on="0"/>
        <pt x="150" y="400" on="1"/>
      </contour>
    </TTGlyph>
    <TTGlyph name="glyph266" xMin="150" yMin="0" xMax="1900" yMax="1500">
      <contour>
        <pt x="1100" y="1100" on="1"/>
        <pt x="1200" y="1100" on="1"/>
        <pt x="1200" y="900" on="1"/>
        <pt x="1050" y="900" on="1"/>
        <pt x="900" y="900" on="0"/>
        <pt x="900" y="1050" on="1"/>
        <pt x="900" y="1500" on="1"/>
        <pt x="1157" y="1500" on="1"/>
        <pt x="1400" y="1265" on="1"/>
        <pt x="1643" y="1500" on="1"/>
        <pt x="1900" y="1500" on="1"/>
        <pt x="1900" y="1100" on="1"/>
        <pt x="1900" y="707" on="0"/>
        <pt x="1200" y="536" on="1"/>
        <pt x="1100" y="511" on="1"/>
        <pt x="1100" y="400" on="1"/>
        <pt x="1100" y="200" on="0"/>
        <pt x="1200" y="200" on="1"/>
        <pt x="1620" y="340" on="0"/>
        <pt x="1700" y="510" on="1"/>
        <pt x="1700" y="600" on="1"/>
        <pt x="1900" y="600" on="1"/>
        <pt x="1900" y="0" on="1"/>
        <pt x="1700" y="0" on="1"/>
        <pt x="1700" y="225" on="1"/>
        <pt x="1520" y="77" on="0"/>
        <pt x="1200" y="0" on="1"/>
        <pt x="900" y="0" on="0"/>
        <pt x="900" y="400" on="1"/>
        <pt x="900" y="668" on="1"/>
        <pt x="1150" y="729" on="1"/>
        <pt x="1700" y="863" on="0"/>
        <pt x="1700" y="1100" on="1"/>
        <pt x="1700" y="1277" on="1"/>
        <pt x="1491" y="1075" on="1"/>
        <pt x="1309" y="1075" on="1"/>
        <pt x="1100" y="1277" on="1"/>
      </contour>
      <contour>
        <pt x="150" y="1100" on="1"/>
        <pt x="150" y="1500" on="0"/>
        <pt x="650" y="1500" on="1"/>
        <pt x="650" y="1300" on="1"/>
        <pt x="350" y="1300" on="0"/>
        <pt x="350" y="1100" on="1"/>
        <pt x="350" y="400" on="1"/>
        <pt x="350" y="297" on="0"/>
        <pt x="392" y="244" on="1"/>
        <pt x="415" y="214" on="0"/>
        <pt x="439" y="214" on="1"/>
        <pt x="458" y="214" on="0"/>
        <pt x="477" y="234" on="1"/>
        <pt x="494" y="250" on="0"/>
        <pt x="494" y="279" on="1"/>
        <pt x="494" y="326" on="0"/>
        <pt x="451" y="405" on="1"/>
        <pt x="392" y="503" on="1"/>
        <pt x="546" y="610" on="1"/>
        <pt x="613" y="526" on="1"/>
        <pt x="700" y="437" on="0"/>
        <pt x="700" y="260" on="1"/>
        <pt x="700" y="170" on="0"/>
        <pt x="610" y="82" on="1"/>
        <pt x="526" y="0" on="0"/>
        <pt x="439" y="0" on="1"/>
        <pt x="341" y="0" on="0"/>
        <pt x="150" y="206" on="0"/>
        <pt x="150" y="400" on="1"/>
      </contour>
    </TTGlyph>
    <TTGlyph name="glyph267" xMin="150" yMin="0" xMax="2550" yMax="1500">
      <contour>
        <pt x="1700" y="1277" on="1"/>
        <pt x="1491" y="1075" on="1"/>
        <pt x="1309" y="1075" on="1"/>
        <pt x="1100" y="1277" on="1"/>
        <pt x="1100" y="1100" on="1"/>
        <pt x="1100" y="990" on="0"/>
        <pt x="1350" y="980" on="1"/>
        <pt x="1350" y="780" on="1"/>
        <pt x="1338" y="780" on="1"/>
        <pt x="1100" y="780" on="0"/>
        <pt x="1100" y="400" on="1"/>
        <pt x="1100" y="297" on="0"/>
        <pt x="1142" y="244" on="1"/>
        <pt x="1165" y="214" on="0"/>
        <pt x="1189" y="214" on="1"/>
        <pt x="1208" y="214" on="0"/>
        <pt x="1227" y="234" on="1"/>
        <pt x="1244" y="250" on="0"/>
        <pt x="1244" y="279" on="1"/>
        <pt x="1244" y="326" on="0"/>
        <pt x="1201" y="405" on="1"/>
        <pt x="1142" y="503" on="1"/>
        <pt x="1296" y="610" on="1"/>
        <pt x="1363" y="526" on="1"/>
        <pt x="1450" y="437" on="0"/>
        <pt x="1450" y="260" on="1"/>
        <pt x="1450" y="170" on="0"/>
        <pt x="1360" y="82" on="1"/>
        <pt x="1276" y="0" on="0"/>
        <pt x="1189" y="0" on="1"/>
        <pt x="1091" y="0" on="0"/>
        <pt x="900" y="206" on="0"/>
        <pt x="900" y="400" on="1"/>
        <pt x="900" y="733" on="0"/>
        <pt x="1037" y="850" on="1"/>
        <pt x="900" y="917" on="0"/>
        <pt x="900" y="1100" on="1"/>
        <pt x="900" y="1500" on="1"/>
        <pt x="1157" y="1500" on="1"/>
        <pt x="1400" y="1265" on="1"/>
        <pt x="1643" y="1500" on="1"/>
        <pt x="1900" y="1500" on="1"/>
        <pt x="1900" y="500" on="1"/>
        <pt x="2000" y="500" on="1"/>
        <pt x="2186" y="500" on="0"/>
        <pt x="2350" y="365" on="1"/>
        <pt x="2350" y="1500" on="1"/>
        <pt x="2550" y="1500" on="1"/>
        <pt x="2550" y="0" on="1"/>
        <pt x="2350" y="0" on="1"/>
        <pt x="2250" y="300" on="0"/>
        <pt x="2000" y="300" on="1"/>
        <pt x="1900" y="300" on="1"/>
        <pt x="1900" y="0" on="1"/>
        <pt x="1700" y="0" on="1"/>
        <pt x="1600" y="114" on="0"/>
        <pt x="1600" y="270" on="1"/>
        <pt x="1600" y="422" on="0"/>
        <pt x="1700" y="472" on="1"/>
      </contour>
      <contour>
        <pt x="150" y="1100" on="1"/>
        <pt x="150" y="1500" on="0"/>
        <pt x="650" y="1500" on="1"/>
        <pt x="650" y="1300" on="1"/>
        <pt x="350" y="1300" on="0"/>
        <pt x="350" y="1100" on="1"/>
        <pt x="350" y="400" on="1"/>
        <pt x="350" y="297" on="0"/>
        <pt x="392" y="244" on="1"/>
        <pt x="415" y="214" on="0"/>
        <pt x="439" y="214" on="1"/>
        <pt x="458" y="214" on="0"/>
        <pt x="477" y="234" on="1"/>
        <pt x="494" y="250" on="0"/>
        <pt x="494" y="279" on="1"/>
        <pt x="494" y="326" on="0"/>
        <pt x="451" y="405" on="1"/>
        <pt x="392" y="503" on="1"/>
        <pt x="546" y="610" on="1"/>
        <pt x="613" y="526" on="1"/>
        <pt x="700" y="437" on="0"/>
        <pt x="700" y="260" on="1"/>
        <pt x="700" y="170" on="0"/>
        <pt x="610" y="82" on="1"/>
        <pt x="526" y="0" on="0"/>
        <pt x="439" y="0" on="1"/>
        <pt x="341" y="0" on="0"/>
        <pt x="150" y="206" on="0"/>
        <pt x="150" y="400" on="1"/>
      </contour>
    </TTGlyph>
    <TTGlyph name="glyph268" xMin="150" yMin="0" xMax="3300" yMax="1500">
      <contour>
        <pt x="2400" y="1100" on="1"/>
        <pt x="2400" y="1500" on="0"/>
        <pt x="2850" y="1500" on="1"/>
        <pt x="3300" y="1500" on="0"/>
        <pt x="3300" y="1100" on="1"/>
        <pt x="3300" y="0" on="1"/>
        <pt x="3100" y="0" on="1"/>
        <pt x="3100" y="1100" on="1"/>
        <pt x="3100" y="1300" on="0"/>
        <pt x="2850" y="1300" on="1"/>
        <pt x="2600" y="1300" on="0"/>
        <pt x="2600" y="1100" on="1"/>
        <pt x="2600" y="0" on="1"/>
        <pt x="2400" y="0" on="1"/>
        <pt x="2150" y="258" on="1"/>
        <pt x="1900" y="0" on="1"/>
        <pt x="1700" y="0" on="1"/>
        <pt x="1700" y="1100" on="1"/>
        <pt x="1700" y="1300" on="0"/>
        <pt x="1400" y="1300" on="1"/>
        <pt x="1100" y="1300" on="0"/>
        <pt x="1100" y="1100" on="1"/>
        <pt x="1100" y="1030" on="0"/>
        <pt x="1390" y="1030" on="1"/>
        <pt x="1390" y="830" on="1"/>
        <pt x="1100" y="830" on="0"/>
        <pt x="1100" y="400" on="1"/>
        <pt x="1100" y="297" on="0"/>
        <pt x="1142" y="244" on="1"/>
        <pt x="1165" y="214" on="0"/>
        <pt x="1189" y="214" on="1"/>
        <pt x="1208" y="214" on="0"/>
        <pt x="1227" y="234" on="1"/>
        <pt x="1244" y="250" on="0"/>
        <pt x="1244" y="279" on="1"/>
        <pt x="1244" y="326" on="0"/>
        <pt x="1201" y="405" on="1"/>
        <pt x="1142" y="503" on="1"/>
        <pt x="1296" y="610" on="1"/>
        <pt x="1363" y="526" on="1"/>
        <pt x="1450" y="437" on="0"/>
        <pt x="1450" y="260" on="1"/>
        <pt x="1450" y="170" on="0"/>
        <pt x="1360" y="82" on="1"/>
        <pt x="1276" y="0" on="0"/>
        <pt x="1189" y="0" on="1"/>
        <pt x="1091" y="0" on="0"/>
        <pt x="900" y="206" on="0"/>
        <pt x="900" y="400" on="1"/>
        <pt x="900" y="733" on="0"/>
        <pt x="1037" y="890" on="1"/>
        <pt x="900" y="957" on="0"/>
        <pt x="900" y="1100" on="1"/>
        <pt x="900" y="1500" on="0"/>
        <pt x="1400" y="1500" on="1"/>
        <pt x="1900" y="1500" on="0"/>
        <pt x="1900" y="1100" on="1"/>
        <pt x="1900" y="287" on="1"/>
        <pt x="2150" y="545" on="1"/>
        <pt x="2400" y="287" on="1"/>
      </contour>
      <contour>
        <pt x="150" y="1100" on="1"/>
        <pt x="150" y="1500" on="0"/>
        <pt x="650" y="1500" on="1"/>
        <pt x="650" y="1300" on="1"/>
        <pt x="350" y="1300" on="0"/>
        <pt x="350" y="1100" on="1"/>
        <pt x="350" y="400" on="1"/>
        <pt x="350" y="297" on="0"/>
        <pt x="392" y="244" on="1"/>
        <pt x="415" y="214" on="0"/>
        <pt x="439" y="214" on="1"/>
        <pt x="458" y="214" on="0"/>
        <pt x="477" y="234" on="1"/>
        <pt x="494" y="250" on="0"/>
        <pt x="494" y="279" on="1"/>
        <pt x="494" y="326" on="0"/>
        <pt x="451" y="405" on="1"/>
        <pt x="392" y="503" on="1"/>
        <pt x="546" y="610" on="1"/>
        <pt x="613" y="526" on="1"/>
        <pt x="700" y="437" on="0"/>
        <pt x="700" y="260" on="1"/>
        <pt x="700" y="170" on="0"/>
        <pt x="610" y="82" on="1"/>
        <pt x="526" y="0" on="0"/>
        <pt x="439" y="0" on="1"/>
        <pt x="341" y="0" on="0"/>
        <pt x="150" y="206" on="0"/>
        <pt x="150" y="400" on="1"/>
      </contour>
    </TTGlyph>
    <TTGlyph name="glyph269" xMin="150" yMin="0" xMax="1900" yMax="1500">
      <contour>
        <pt x="900" y="1300" on="1"/>
        <pt x="900" y="1500" on="1"/>
        <pt x="1900" y="1500" on="1"/>
        <pt x="1900" y="1300" on="1"/>
      </contour>
      <contour>
        <pt x="900" y="700" on="1"/>
        <pt x="900" y="1100" on="0"/>
        <pt x="1400" y="1100" on="1"/>
        <pt x="1900" y="1100" on="0"/>
        <pt x="1900" y="700" on="1"/>
        <pt x="1900" y="0" on="1"/>
        <pt x="1700" y="0" on="1"/>
        <pt x="1700" y="700" on="1"/>
        <pt x="1700" y="900" on="0"/>
        <pt x="1400" y="900" on="1"/>
        <pt x="1100" y="900" on="0"/>
        <pt x="1100" y="700" on="1"/>
        <pt x="1100" y="400" on="1"/>
        <pt x="1100" y="297" on="0"/>
        <pt x="1142" y="244" on="1"/>
        <pt x="1165" y="214" on="0"/>
        <pt x="1189" y="214" on="1"/>
        <pt x="1208" y="214" on="0"/>
        <pt x="1227" y="234" on="1"/>
        <pt x="1244" y="250" on="0"/>
        <pt x="1244" y="279" on="1"/>
        <pt x="1244" y="326" on="0"/>
        <pt x="1201" y="405" on="1"/>
        <pt x="1142" y="503" on="1"/>
        <pt x="1296" y="610" on="1"/>
        <pt x="1363" y="526" on="1"/>
        <pt x="1450" y="437" on="0"/>
        <pt x="1450" y="260" on="1"/>
        <pt x="1450" y="170" on="0"/>
        <pt x="1360" y="82" on="1"/>
        <pt x="1276" y="0" on="0"/>
        <pt x="1189" y="0" on="1"/>
        <pt x="1091" y="0" on="0"/>
        <pt x="900" y="206" on="0"/>
        <pt x="900" y="400" on="1"/>
      </contour>
      <contour>
        <pt x="150" y="1100" on="1"/>
        <pt x="150" y="1500" on="0"/>
        <pt x="650" y="1500" on="1"/>
        <pt x="650" y="1300" on="1"/>
        <pt x="350" y="1300" on="0"/>
        <pt x="350" y="1100" on="1"/>
        <pt x="350" y="400" on="1"/>
        <pt x="350" y="297" on="0"/>
        <pt x="392" y="244" on="1"/>
        <pt x="415" y="214" on="0"/>
        <pt x="439" y="214" on="1"/>
        <pt x="458" y="214" on="0"/>
        <pt x="477" y="234" on="1"/>
        <pt x="494" y="250" on="0"/>
        <pt x="494" y="279" on="1"/>
        <pt x="494" y="326" on="0"/>
        <pt x="451" y="405" on="1"/>
        <pt x="392" y="503" on="1"/>
        <pt x="546" y="610" on="1"/>
        <pt x="613" y="526" on="1"/>
        <pt x="700" y="437" on="0"/>
        <pt x="700" y="260" on="1"/>
        <pt x="700" y="170" on="0"/>
        <pt x="610" y="82" on="1"/>
        <pt x="526" y="0" on="0"/>
        <pt x="439" y="0" on="1"/>
        <pt x="341" y="0" on="0"/>
        <pt x="150" y="206" on="0"/>
        <pt x="150" y="400" on="1"/>
      </contour>
    </TTGlyph>
    <TTGlyph name="glyph270" xMin="150" yMin="0" xMax="1900" yMax="1600">
      <contour>
        <pt x="150" y="1100" on="1"/>
        <pt x="150" y="1500" on="0"/>
        <pt x="650" y="1500" on="1"/>
        <pt x="650" y="1300" on="1"/>
        <pt x="350" y="1300" on="0"/>
        <pt x="350" y="1100" on="1"/>
        <pt x="350" y="400" on="1"/>
        <pt x="350" y="297" on="0"/>
        <pt x="392" y="244" on="1"/>
        <pt x="415" y="214" on="0"/>
        <pt x="439" y="214" on="1"/>
        <pt x="458" y="214" on="0"/>
        <pt x="477" y="234" on="1"/>
        <pt x="494" y="250" on="0"/>
        <pt x="494" y="279" on="1"/>
        <pt x="494" y="326" on="0"/>
        <pt x="451" y="405" on="1"/>
        <pt x="392" y="503" on="1"/>
        <pt x="546" y="610" on="1"/>
        <pt x="613" y="526" on="1"/>
        <pt x="700" y="437" on="0"/>
        <pt x="700" y="260" on="1"/>
        <pt x="700" y="170" on="0"/>
        <pt x="610" y="82" on="1"/>
        <pt x="526" y="0" on="0"/>
        <pt x="439" y="0" on="1"/>
        <pt x="341" y="0" on="0"/>
        <pt x="150" y="206" on="0"/>
        <pt x="150" y="400" on="1"/>
      </contour>
      <contour>
        <pt x="1675" y="800" on="1"/>
        <pt x="1750" y="800" on="0"/>
        <pt x="1750" y="875" on="1"/>
        <pt x="1750" y="950" on="0"/>
        <pt x="1675" y="950" on="1"/>
        <pt x="1600" y="950" on="0"/>
        <pt x="1600" y="875" on="1"/>
        <pt x="1600" y="800" on="0"/>
      </contour>
      <contour>
        <pt x="1700" y="651" on="1"/>
        <pt x="1688" y="650" on="0"/>
        <pt x="1675" y="650" on="1"/>
        <pt x="1450" y="650" on="0"/>
        <pt x="1450" y="875" on="1"/>
        <pt x="1450" y="1100" on="0"/>
        <pt x="1675" y="1100" on="1"/>
        <pt x="1900" y="1100" on="0"/>
        <pt x="1900" y="875" on="1"/>
        <pt x="1900" y="400" on="1"/>
        <pt x="1900" y="0" on="0"/>
        <pt x="1400" y="0" on="1"/>
        <pt x="900" y="0" on="0"/>
        <pt x="900" y="400" on="1"/>
        <pt x="900" y="760" on="1"/>
        <pt x="900" y="878" on="0"/>
        <pt x="983" y="981" on="1"/>
        <pt x="850" y="1042" on="0"/>
        <pt x="850" y="1225" on="1"/>
        <pt x="850" y="1500" on="1"/>
        <pt x="1070" y="1500" on="1"/>
        <pt x="1125" y="1500" on="0"/>
        <pt x="1333" y="1450" on="0"/>
        <pt x="1500" y="1450" on="1"/>
        <pt x="1700" y="1450" on="0"/>
        <pt x="1700" y="1550" on="1"/>
        <pt x="1700" y="1600" on="1"/>
        <pt x="1900" y="1600" on="1"/>
        <pt x="1900" y="1550" on="1"/>
        <pt x="1900" y="1250" on="0"/>
        <pt x="1500" y="1250" on="1"/>
        <pt x="1383" y="1250" on="0"/>
        <pt x="1177" y="1279" on="0"/>
        <pt x="1110" y="1300" on="1"/>
        <pt x="1050" y="1300" on="1"/>
        <pt x="1050" y="1225" on="1"/>
        <pt x="1050" y="1150" on="0"/>
        <pt x="1150" y="1126" on="1"/>
        <pt x="1250" y="1100" on="1"/>
        <pt x="1250" y="990" on="1"/>
        <pt x="1100" y="899" on="0"/>
        <pt x="1100" y="760" on="1"/>
        <pt x="1100" y="400" on="1"/>
        <pt x="1100" y="200" on="0"/>
        <pt x="1400" y="200" on="1"/>
        <pt x="1700" y="200" on="0"/>
        <pt x="1700" y="400" on="1"/>
      </contour>
    </TTGlyph>
    <TTGlyph name="glyph271" xMin="150" yMin="0" xMax="1900" yMax="1500">
      <contour>
        <pt x="1800" y="518" on="1"/>
        <pt x="1800" y="400" on="1"/>
        <pt x="1800" y="0" on="0"/>
        <pt x="1375" y="0" on="1"/>
        <pt x="950" y="0" on="0"/>
        <pt x="950" y="400" on="1"/>
        <pt x="950" y="600" on="1"/>
        <pt x="1150" y="600" on="1"/>
        <pt x="1150" y="400" on="1"/>
        <pt x="1150" y="200" on="0"/>
        <pt x="1375" y="200" on="1"/>
        <pt x="1600" y="200" on="0"/>
        <pt x="1600" y="400" on="1"/>
        <pt x="1600" y="536" on="1"/>
        <pt x="900" y="707" on="0"/>
        <pt x="900" y="1100" on="1"/>
        <pt x="900" y="1500" on="0"/>
        <pt x="1400" y="1500" on="1"/>
        <pt x="1900" y="1500" on="0"/>
        <pt x="1900" y="1150" on="1"/>
        <pt x="1900" y="1100" on="1"/>
        <pt x="1900" y="950" on="0"/>
        <pt x="1750" y="950" on="1"/>
        <pt x="1600" y="950" on="1"/>
        <pt x="1600" y="1150" on="1"/>
        <pt x="1700" y="1150" on="1"/>
        <pt x="1700" y="1300" on="0"/>
        <pt x="1400" y="1300" on="1"/>
        <pt x="1100" y="1300" on="0"/>
        <pt x="1100" y="1100" on="1"/>
        <pt x="1100" y="863" on="0"/>
        <pt x="1650" y="729" on="1"/>
        <pt x="1697" y="831" on="0"/>
        <pt x="1792" y="831" on="1"/>
        <pt x="1800" y="831" on="1"/>
        <pt x="1900" y="827" on="0"/>
        <pt x="1900" y="718" on="1"/>
        <pt x="1900" y="641" on="1"/>
        <pt x="1900" y="552" on="0"/>
      </contour>
      <contour>
        <pt x="150" y="1100" on="1"/>
        <pt x="150" y="1500" on="0"/>
        <pt x="650" y="1500" on="1"/>
        <pt x="650" y="1300" on="1"/>
        <pt x="350" y="1300" on="0"/>
        <pt x="350" y="1100" on="1"/>
        <pt x="350" y="400" on="1"/>
        <pt x="350" y="297" on="0"/>
        <pt x="392" y="244" on="1"/>
        <pt x="415" y="214" on="0"/>
        <pt x="439" y="214" on="1"/>
        <pt x="458" y="214" on="0"/>
        <pt x="477" y="234" on="1"/>
        <pt x="494" y="250" on="0"/>
        <pt x="494" y="279" on="1"/>
        <pt x="494" y="326" on="0"/>
        <pt x="451" y="405" on="1"/>
        <pt x="392" y="503" on="1"/>
        <pt x="546" y="610" on="1"/>
        <pt x="613" y="526" on="1"/>
        <pt x="700" y="437" on="0"/>
        <pt x="700" y="260" on="1"/>
        <pt x="700" y="170" on="0"/>
        <pt x="610" y="82" on="1"/>
        <pt x="526" y="0" on="0"/>
        <pt x="439" y="0" on="1"/>
        <pt x="341" y="0" on="0"/>
        <pt x="150" y="206" on="0"/>
        <pt x="150" y="400" on="1"/>
      </contour>
    </TTGlyph>
    <TTGlyph name="glyph272" xMin="150" yMin="0" xMax="1900" yMax="1500">
      <contour>
        <pt x="150" y="1100" on="1"/>
        <pt x="150" y="1500" on="0"/>
        <pt x="650" y="1500" on="1"/>
        <pt x="650" y="1300" on="1"/>
        <pt x="350" y="1300" on="0"/>
        <pt x="350" y="1100" on="1"/>
        <pt x="350" y="400" on="1"/>
        <pt x="350" y="297" on="0"/>
        <pt x="392" y="244" on="1"/>
        <pt x="415" y="214" on="0"/>
        <pt x="439" y="214" on="1"/>
        <pt x="458" y="214" on="0"/>
        <pt x="477" y="234" on="1"/>
        <pt x="494" y="250" on="0"/>
        <pt x="494" y="279" on="1"/>
        <pt x="494" y="326" on="0"/>
        <pt x="451" y="405" on="1"/>
        <pt x="392" y="503" on="1"/>
        <pt x="546" y="610" on="1"/>
        <pt x="613" y="526" on="1"/>
        <pt x="700" y="437" on="0"/>
        <pt x="700" y="260" on="1"/>
        <pt x="700" y="170" on="0"/>
        <pt x="610" y="82" on="1"/>
        <pt x="526" y="0" on="0"/>
        <pt x="439" y="0" on="1"/>
        <pt x="341" y="0" on="0"/>
        <pt x="150" y="206" on="0"/>
        <pt x="150" y="400" on="1"/>
      </contour>
      <contour>
        <pt x="1675" y="800" on="1"/>
        <pt x="1750" y="800" on="0"/>
        <pt x="1750" y="875" on="1"/>
        <pt x="1750" y="950" on="0"/>
        <pt x="1675" y="950" on="1"/>
        <pt x="1600" y="950" on="0"/>
        <pt x="1600" y="875" on="1"/>
        <pt x="1600" y="800" on="0"/>
      </contour>
      <contour>
        <pt x="1100" y="287" on="1"/>
        <pt x="1400" y="596" on="1"/>
        <pt x="1700" y="287" on="1"/>
        <pt x="1700" y="651" on="1"/>
        <pt x="1688" y="650" on="0"/>
        <pt x="1675" y="650" on="1"/>
        <pt x="1450" y="650" on="0"/>
        <pt x="1450" y="875" on="1"/>
        <pt x="1450" y="1100" on="0"/>
        <pt x="1675" y="1100" on="1"/>
        <pt x="1900" y="1100" on="0"/>
        <pt x="1900" y="875" on="1"/>
        <pt x="1900" y="0" on="1"/>
        <pt x="1700" y="0" on="1"/>
        <pt x="1400" y="309" on="1"/>
        <pt x="1100" y="0" on="1"/>
        <pt x="900" y="0" on="1"/>
        <pt x="900" y="760" on="1"/>
        <pt x="900" y="878" on="0"/>
        <pt x="983" y="981" on="1"/>
        <pt x="850" y="1042" on="0"/>
        <pt x="850" y="1225" on="1"/>
        <pt x="850" y="1500" on="1"/>
        <pt x="1900" y="1500" on="1"/>
        <pt x="1900" y="1300" on="1"/>
        <pt x="1050" y="1300" on="1"/>
        <pt x="1050" y="1225" on="1"/>
        <pt x="1050" y="1150" on="0"/>
        <pt x="1150" y="1130" on="1"/>
        <pt x="1250" y="1110" on="1"/>
        <pt x="1250" y="990" on="1"/>
        <pt x="1100" y="899" on="0"/>
        <pt x="1100" y="760" on="1"/>
      </contour>
    </TTGlyph>
    <TTGlyph name="glyph273" xMin="150" yMin="0" xMax="1900" yMax="1500">
      <contour>
        <pt x="1700" y="629" on="1"/>
        <pt x="1612" y="644" on="1"/>
        <pt x="900" y="754" on="0"/>
        <pt x="900" y="1100" on="1"/>
        <pt x="900" y="1500" on="0"/>
        <pt x="1400" y="1500" on="1"/>
        <pt x="1900" y="1500" on="0"/>
        <pt x="1900" y="1150" on="1"/>
        <pt x="1900" y="1100" on="1"/>
        <pt x="1900" y="950" on="0"/>
        <pt x="1750" y="950" on="1"/>
        <pt x="1600" y="950" on="1"/>
        <pt x="1600" y="1150" on="1"/>
        <pt x="1700" y="1150" on="1"/>
        <pt x="1700" y="1300" on="0"/>
        <pt x="1400" y="1300" on="1"/>
        <pt x="1100" y="1300" on="0"/>
        <pt x="1100" y="1100" on="1"/>
        <pt x="1100" y="925" on="0"/>
        <pt x="1645" y="840" on="1"/>
        <pt x="1900" y="801" on="1"/>
        <pt x="1900" y="0" on="1"/>
        <pt x="1700" y="0" on="1"/>
        <pt x="1400" y="289" on="1"/>
        <pt x="1100" y="0" on="1"/>
        <pt x="900" y="0" on="1"/>
        <pt x="900" y="600" on="1"/>
        <pt x="1100" y="600" on="1"/>
        <pt x="1100" y="277" on="1"/>
        <pt x="1400" y="566" on="1"/>
        <pt x="1700" y="277" on="1"/>
      </contour>
      <contour>
        <pt x="150" y="1100" on="1"/>
        <pt x="150" y="1500" on="0"/>
        <pt x="650" y="1500" on="1"/>
        <pt x="650" y="1300" on="1"/>
        <pt x="350" y="1300" on="0"/>
        <pt x="350" y="1100" on="1"/>
        <pt x="350" y="400" on="1"/>
        <pt x="350" y="297" on="0"/>
        <pt x="392" y="244" on="1"/>
        <pt x="415" y="214" on="0"/>
        <pt x="439" y="214" on="1"/>
        <pt x="458" y="214" on="0"/>
        <pt x="477" y="234" on="1"/>
        <pt x="494" y="250" on="0"/>
        <pt x="494" y="279" on="1"/>
        <pt x="494" y="326" on="0"/>
        <pt x="451" y="405" on="1"/>
        <pt x="392" y="503" on="1"/>
        <pt x="546" y="610" on="1"/>
        <pt x="613" y="526" on="1"/>
        <pt x="700" y="437" on="0"/>
        <pt x="700" y="260" on="1"/>
        <pt x="700" y="170" on="0"/>
        <pt x="610" y="82" on="1"/>
        <pt x="526" y="0" on="0"/>
        <pt x="439" y="0" on="1"/>
        <pt x="341" y="0" on="0"/>
        <pt x="150" y="206" on="0"/>
        <pt x="150" y="400" on="1"/>
      </contour>
    </TTGlyph>
    <TTGlyph name="glyph274" xMin="150" yMin="0" xMax="1900" yMax="1500">
      <contour>
        <pt x="150" y="1100" on="1"/>
        <pt x="150" y="1500" on="0"/>
        <pt x="650" y="1500" on="1"/>
        <pt x="650" y="1300" on="1"/>
        <pt x="350" y="1300" on="0"/>
        <pt x="350" y="1100" on="1"/>
        <pt x="350" y="400" on="1"/>
        <pt x="350" y="297" on="0"/>
        <pt x="392" y="244" on="1"/>
        <pt x="415" y="214" on="0"/>
        <pt x="439" y="214" on="1"/>
        <pt x="458" y="214" on="0"/>
        <pt x="477" y="234" on="1"/>
        <pt x="494" y="250" on="0"/>
        <pt x="494" y="279" on="1"/>
        <pt x="494" y="326" on="0"/>
        <pt x="451" y="405" on="1"/>
        <pt x="392" y="503" on="1"/>
        <pt x="546" y="610" on="1"/>
        <pt x="613" y="526" on="1"/>
        <pt x="700" y="437" on="0"/>
        <pt x="700" y="260" on="1"/>
        <pt x="700" y="170" on="0"/>
        <pt x="610" y="82" on="1"/>
        <pt x="526" y="0" on="0"/>
        <pt x="439" y="0" on="1"/>
        <pt x="341" y="0" on="0"/>
        <pt x="150" y="206" on="0"/>
        <pt x="150" y="400" on="1"/>
      </contour>
      <contour>
        <pt x="1100" y="400" on="1"/>
        <pt x="1100" y="200" on="0"/>
        <pt x="1400" y="200" on="1"/>
        <pt x="1700" y="200" on="0"/>
        <pt x="1700" y="400" on="1"/>
        <pt x="1700" y="1500" on="1"/>
        <pt x="1900" y="1500" on="1"/>
        <pt x="1900" y="400" on="1"/>
        <pt x="1900" y="0" on="0"/>
        <pt x="1400" y="0" on="1"/>
        <pt x="900" y="0" on="0"/>
        <pt x="900" y="400" on="1"/>
        <pt x="900" y="760" on="1"/>
        <pt x="900" y="878" on="0"/>
        <pt x="983" y="981" on="1"/>
        <pt x="850" y="1042" on="0"/>
        <pt x="850" y="1225" on="1"/>
        <pt x="850" y="1500" on="0"/>
        <pt x="1110" y="1500" on="1"/>
        <pt x="1180" y="1500" on="0"/>
        <pt x="1250" y="1480" on="1"/>
        <pt x="1250" y="1280" on="1"/>
        <pt x="1200" y="1300" on="0"/>
        <pt x="1110" y="1300" on="1"/>
        <pt x="1050" y="1300" on="0"/>
        <pt x="1050" y="1225" on="1"/>
        <pt x="1050" y="1150" on="0"/>
        <pt x="1150" y="1130" on="1"/>
        <pt x="1250" y="1110" on="1"/>
        <pt x="1250" y="990" on="1"/>
        <pt x="1100" y="899" on="0"/>
        <pt x="1100" y="760" on="1"/>
      </contour>
    </TTGlyph>
    <TTGlyph name="glyph275" xMin="150" yMin="0" xMax="1900" yMax="1600">
      <contour>
        <pt x="150" y="1100" on="1"/>
        <pt x="150" y="1500" on="0"/>
        <pt x="650" y="1500" on="1"/>
        <pt x="650" y="1300" on="1"/>
        <pt x="350" y="1300" on="0"/>
        <pt x="350" y="1100" on="1"/>
        <pt x="350" y="400" on="1"/>
        <pt x="350" y="297" on="0"/>
        <pt x="392" y="244" on="1"/>
        <pt x="415" y="214" on="0"/>
        <pt x="439" y="214" on="1"/>
        <pt x="458" y="214" on="0"/>
        <pt x="477" y="234" on="1"/>
        <pt x="494" y="250" on="0"/>
        <pt x="494" y="279" on="1"/>
        <pt x="494" y="326" on="0"/>
        <pt x="451" y="405" on="1"/>
        <pt x="392" y="503" on="1"/>
        <pt x="546" y="610" on="1"/>
        <pt x="613" y="526" on="1"/>
        <pt x="700" y="437" on="0"/>
        <pt x="700" y="260" on="1"/>
        <pt x="700" y="170" on="0"/>
        <pt x="610" y="82" on="1"/>
        <pt x="526" y="0" on="0"/>
        <pt x="439" y="0" on="1"/>
        <pt x="341" y="0" on="0"/>
        <pt x="150" y="206" on="0"/>
        <pt x="150" y="400" on="1"/>
      </contour>
      <contour>
        <pt x="1675" y="800" on="1"/>
        <pt x="1750" y="800" on="0"/>
        <pt x="1750" y="875" on="1"/>
        <pt x="1750" y="950" on="0"/>
        <pt x="1675" y="950" on="1"/>
        <pt x="1600" y="950" on="0"/>
        <pt x="1600" y="875" on="1"/>
        <pt x="1600" y="800" on="0"/>
      </contour>
      <contour>
        <pt x="1700" y="651" on="1"/>
        <pt x="1688" y="650" on="0"/>
        <pt x="1675" y="650" on="1"/>
        <pt x="1450" y="650" on="0"/>
        <pt x="1450" y="875" on="1"/>
        <pt x="1450" y="1100" on="0"/>
        <pt x="1675" y="1100" on="1"/>
        <pt x="1900" y="1100" on="0"/>
        <pt x="1900" y="875" on="1"/>
        <pt x="1900" y="0" on="1"/>
        <pt x="1700" y="0" on="1"/>
        <pt x="1400" y="309" on="1"/>
        <pt x="1100" y="0" on="1"/>
        <pt x="900" y="0" on="1"/>
        <pt x="900" y="760" on="1"/>
        <pt x="900" y="878" on="0"/>
        <pt x="983" y="981" on="1"/>
        <pt x="850" y="1042" on="0"/>
        <pt x="850" y="1225" on="1"/>
        <pt x="850" y="1500" on="1"/>
        <pt x="1070" y="1500" on="1"/>
        <pt x="1125" y="1500" on="0"/>
        <pt x="1333" y="1450" on="0"/>
        <pt x="1500" y="1450" on="1"/>
        <pt x="1700" y="1450" on="0"/>
        <pt x="1700" y="1550" on="1"/>
        <pt x="1700" y="1600" on="1"/>
        <pt x="1900" y="1600" on="1"/>
        <pt x="1900" y="1550" on="1"/>
        <pt x="1900" y="1250" on="0"/>
        <pt x="1500" y="1250" on="1"/>
        <pt x="1383" y="1250" on="0"/>
        <pt x="1177" y="1279" on="0"/>
        <pt x="1110" y="1300" on="1"/>
        <pt x="1050" y="1300" on="1"/>
        <pt x="1050" y="1225" on="1"/>
        <pt x="1050" y="1150" on="0"/>
        <pt x="1150" y="1130" on="1"/>
        <pt x="1250" y="1110" on="1"/>
        <pt x="1250" y="990" on="1"/>
        <pt x="1100" y="899" on="0"/>
        <pt x="1100" y="760" on="1"/>
        <pt x="1100" y="287" on="1"/>
        <pt x="1400" y="596" on="1"/>
        <pt x="1700" y="287" on="1"/>
      </contour>
    </TTGlyph>
    <TTGlyph name="glyph276" xMin="150" yMin="0" xMax="1900" yMax="1500">
      <contour>
        <pt x="1900" y="0" on="1"/>
        <pt x="1700" y="0" on="1"/>
        <pt x="1700" y="1277" on="1"/>
        <pt x="1491" y="1075" on="1"/>
        <pt x="1309" y="1075" on="1"/>
        <pt x="1100" y="1277" on="1"/>
        <pt x="1100" y="1100" on="1"/>
        <pt x="1100" y="990" on="0"/>
        <pt x="1350" y="980" on="1"/>
        <pt x="1350" y="780" on="1"/>
        <pt x="1338" y="780" on="1"/>
        <pt x="1100" y="780" on="0"/>
        <pt x="1100" y="400" on="1"/>
        <pt x="1100" y="297" on="0"/>
        <pt x="1142" y="244" on="1"/>
        <pt x="1165" y="214" on="0"/>
        <pt x="1189" y="214" on="1"/>
        <pt x="1208" y="214" on="0"/>
        <pt x="1227" y="234" on="1"/>
        <pt x="1244" y="250" on="0"/>
        <pt x="1244" y="279" on="1"/>
        <pt x="1244" y="326" on="0"/>
        <pt x="1201" y="405" on="1"/>
        <pt x="1142" y="503" on="1"/>
        <pt x="1296" y="610" on="1"/>
        <pt x="1363" y="526" on="1"/>
        <pt x="1450" y="437" on="0"/>
        <pt x="1450" y="260" on="1"/>
        <pt x="1450" y="170" on="0"/>
        <pt x="1360" y="82" on="1"/>
        <pt x="1276" y="0" on="0"/>
        <pt x="1189" y="0" on="1"/>
        <pt x="1091" y="0" on="0"/>
        <pt x="900" y="206" on="0"/>
        <pt x="900" y="400" on="1"/>
        <pt x="900" y="733" on="0"/>
        <pt x="1037" y="850" on="1"/>
        <pt x="900" y="917" on="0"/>
        <pt x="900" y="1100" on="1"/>
        <pt x="900" y="1500" on="1"/>
        <pt x="1157" y="1500" on="1"/>
        <pt x="1400" y="1265" on="1"/>
        <pt x="1643" y="1500" on="1"/>
        <pt x="1900" y="1500" on="1"/>
      </contour>
      <contour>
        <pt x="150" y="1100" on="1"/>
        <pt x="150" y="1500" on="0"/>
        <pt x="650" y="1500" on="1"/>
        <pt x="650" y="1300" on="1"/>
        <pt x="350" y="1300" on="0"/>
        <pt x="350" y="1100" on="1"/>
        <pt x="350" y="400" on="1"/>
        <pt x="350" y="297" on="0"/>
        <pt x="392" y="244" on="1"/>
        <pt x="415" y="214" on="0"/>
        <pt x="439" y="214" on="1"/>
        <pt x="458" y="214" on="0"/>
        <pt x="477" y="234" on="1"/>
        <pt x="494" y="250" on="0"/>
        <pt x="494" y="279" on="1"/>
        <pt x="494" y="326" on="0"/>
        <pt x="451" y="405" on="1"/>
        <pt x="392" y="503" on="1"/>
        <pt x="546" y="610" on="1"/>
        <pt x="613" y="526" on="1"/>
        <pt x="700" y="437" on="0"/>
        <pt x="700" y="260" on="1"/>
        <pt x="700" y="170" on="0"/>
        <pt x="610" y="82" on="1"/>
        <pt x="526" y="0" on="0"/>
        <pt x="439" y="0" on="1"/>
        <pt x="341" y="0" on="0"/>
        <pt x="150" y="206" on="0"/>
        <pt x="150" y="400" on="1"/>
      </contour>
    </TTGlyph>
    <TTGlyph name="glyph277" xMin="150" yMin="0" xMax="1900" yMax="1500">
      <contour>
        <pt x="900" y="1300" on="1"/>
        <pt x="900" y="1500" on="1"/>
        <pt x="1900" y="1500" on="1"/>
        <pt x="1900" y="1300" on="1"/>
      </contour>
      <contour>
        <pt x="900" y="700" on="1"/>
        <pt x="900" y="1100" on="0"/>
        <pt x="1400" y="1100" on="1"/>
        <pt x="1900" y="1100" on="0"/>
        <pt x="1900" y="700" on="1"/>
        <pt x="1900" y="0" on="1"/>
        <pt x="1700" y="0" on="1"/>
        <pt x="1700" y="700" on="1"/>
        <pt x="1700" y="900" on="0"/>
        <pt x="1400" y="900" on="1"/>
        <pt x="1100" y="900" on="0"/>
        <pt x="1100" y="700" on="1"/>
        <pt x="1100" y="696" on="1"/>
        <pt x="1325" y="475" on="1"/>
        <pt x="1411" y="391" on="0"/>
        <pt x="1411" y="302" on="1"/>
        <pt x="1411" y="206" on="0"/>
        <pt x="1311" y="104" on="1"/>
        <pt x="1209" y="0" on="0"/>
        <pt x="1111" y="0" on="1"/>
        <pt x="1024" y="0" on="0"/>
        <pt x="940" y="82" on="1"/>
        <pt x="850" y="170" on="0"/>
        <pt x="850" y="260" on="1"/>
        <pt x="850" y="347" on="0"/>
        <pt x="937" y="436" on="1"/>
        <pt x="972" y="472" on="1"/>
        <pt x="1114" y="332" on="1"/>
        <pt x="1079" y="296" on="1"/>
        <pt x="1062" y="278" on="0"/>
        <pt x="1062" y="261" on="1"/>
        <pt x="1062" y="243" on="0"/>
        <pt x="1080" y="225" on="1"/>
        <pt x="1094" y="211" on="0"/>
        <pt x="1111" y="211" on="1"/>
        <pt x="1136" y="211" on="0"/>
        <pt x="1168" y="244" on="1"/>
        <pt x="1200" y="276" on="0"/>
        <pt x="1200" y="301" on="1"/>
        <pt x="1200" y="318" on="0"/>
        <pt x="1185" y="332" on="1"/>
        <pt x="900" y="612" on="1"/>
      </contour>
      <contour>
        <pt x="150" y="1100" on="1"/>
        <pt x="150" y="1500" on="0"/>
        <pt x="650" y="1500" on="1"/>
        <pt x="650" y="1300" on="1"/>
        <pt x="350" y="1300" on="0"/>
        <pt x="350" y="1100" on="1"/>
        <pt x="350" y="400" on="1"/>
        <pt x="350" y="297" on="0"/>
        <pt x="392" y="244" on="1"/>
        <pt x="415" y="214" on="0"/>
        <pt x="439" y="214" on="1"/>
        <pt x="458" y="214" on="0"/>
        <pt x="477" y="234" on="1"/>
        <pt x="494" y="250" on="0"/>
        <pt x="494" y="279" on="1"/>
        <pt x="494" y="326" on="0"/>
        <pt x="451" y="405" on="1"/>
        <pt x="392" y="503" on="1"/>
        <pt x="546" y="610" on="1"/>
        <pt x="613" y="526" on="1"/>
        <pt x="700" y="437" on="0"/>
        <pt x="700" y="260" on="1"/>
        <pt x="700" y="170" on="0"/>
        <pt x="610" y="82" on="1"/>
        <pt x="526" y="0" on="0"/>
        <pt x="439" y="0" on="1"/>
        <pt x="341" y="0" on="0"/>
        <pt x="150" y="206" on="0"/>
        <pt x="150" y="400" on="1"/>
      </contour>
    </TTGlyph>
    <TTGlyph name="glyph278" xMin="150" yMin="0" xMax="1900" yMax="1500">
      <contour>
        <pt x="150" y="1100" on="1"/>
        <pt x="150" y="1500" on="0"/>
        <pt x="650" y="1500" on="1"/>
        <pt x="650" y="1300" on="1"/>
        <pt x="350" y="1300" on="0"/>
        <pt x="350" y="1100" on="1"/>
        <pt x="350" y="400" on="1"/>
        <pt x="350" y="297" on="0"/>
        <pt x="392" y="244" on="1"/>
        <pt x="415" y="214" on="0"/>
        <pt x="439" y="214" on="1"/>
        <pt x="458" y="214" on="0"/>
        <pt x="477" y="234" on="1"/>
        <pt x="494" y="250" on="0"/>
        <pt x="494" y="279" on="1"/>
        <pt x="494" y="326" on="0"/>
        <pt x="451" y="405" on="1"/>
        <pt x="392" y="503" on="1"/>
        <pt x="546" y="610" on="1"/>
        <pt x="613" y="526" on="1"/>
        <pt x="700" y="437" on="0"/>
        <pt x="700" y="260" on="1"/>
        <pt x="700" y="170" on="0"/>
        <pt x="610" y="82" on="1"/>
        <pt x="526" y="0" on="0"/>
        <pt x="439" y="0" on="1"/>
        <pt x="341" y="0" on="0"/>
        <pt x="150" y="206" on="0"/>
        <pt x="150" y="400" on="1"/>
      </contour>
      <contour>
        <pt x="1100" y="400" on="1"/>
        <pt x="1100" y="200" on="0"/>
        <pt x="1400" y="200" on="1"/>
        <pt x="1700" y="200" on="0"/>
        <pt x="1700" y="400" on="1"/>
        <pt x="1700" y="700" on="1"/>
        <pt x="1200" y="700" on="1"/>
        <pt x="1200" y="900" on="1"/>
        <pt x="1700" y="900" on="1"/>
        <pt x="1700" y="1500" on="1"/>
        <pt x="1900" y="1500" on="1"/>
        <pt x="1900" y="400" on="1"/>
        <pt x="1900" y="0" on="0"/>
        <pt x="1400" y="0" on="1"/>
        <pt x="900" y="0" on="0"/>
        <pt x="900" y="400" on="1"/>
        <pt x="900" y="760" on="1"/>
        <pt x="900" y="878" on="0"/>
        <pt x="983" y="981" on="1"/>
        <pt x="850" y="1042" on="0"/>
        <pt x="850" y="1225" on="1"/>
        <pt x="850" y="1500" on="0"/>
        <pt x="1110" y="1500" on="1"/>
        <pt x="1180" y="1500" on="0"/>
        <pt x="1250" y="1480" on="1"/>
        <pt x="1250" y="1280" on="1"/>
        <pt x="1200" y="1300" on="0"/>
        <pt x="1110" y="1300" on="1"/>
        <pt x="1050" y="1300" on="0"/>
        <pt x="1050" y="1225" on="1"/>
        <pt x="1050" y="1150" on="0"/>
        <pt x="1150" y="1130" on="1"/>
        <pt x="1250" y="1110" on="1"/>
        <pt x="1250" y="990" on="1"/>
        <pt x="1100" y="899" on="0"/>
        <pt x="1100" y="760" on="1"/>
      </contour>
    </TTGlyph>
    <TTGlyph name="glyph279" xMin="150" yMin="0" xMax="2625" yMax="1500">
      <contour>
        <pt x="1100" y="400" on="1"/>
        <pt x="1100" y="200" on="0"/>
        <pt x="1400" y="200" on="1"/>
        <pt x="1700" y="200" on="0"/>
        <pt x="1700" y="400" on="1"/>
        <pt x="1700" y="1500" on="1"/>
        <pt x="1900" y="1500" on="1"/>
        <pt x="1900" y="400" on="1"/>
        <pt x="1900" y="200" on="0"/>
        <pt x="2163" y="200" on="1"/>
        <pt x="2425" y="200" on="0"/>
        <pt x="2425" y="400" on="1"/>
        <pt x="2425" y="1500" on="1"/>
        <pt x="2625" y="1500" on="1"/>
        <pt x="2625" y="400" on="1"/>
        <pt x="2625" y="0" on="0"/>
        <pt x="2163" y="0" on="1"/>
        <pt x="1911" y="0" on="0"/>
        <pt x="1796" y="118" on="1"/>
        <pt x="1672" y="0" on="0"/>
        <pt x="1400" y="0" on="1"/>
        <pt x="900" y="0" on="0"/>
        <pt x="900" y="400" on="1"/>
        <pt x="900" y="1100" on="1"/>
        <pt x="900" y="1294" on="0"/>
        <pt x="1091" y="1500" on="0"/>
        <pt x="1189" y="1500" on="1"/>
        <pt x="1276" y="1500" on="0"/>
        <pt x="1360" y="1418" on="1"/>
        <pt x="1450" y="1330" on="0"/>
        <pt x="1450" y="1240" on="1"/>
        <pt x="1450" y="1063" on="0"/>
        <pt x="1363" y="974" on="1"/>
        <pt x="1296" y="890" on="1"/>
        <pt x="1142" y="997" on="1"/>
        <pt x="1201" y="1095" on="1"/>
        <pt x="1244" y="1174" on="0"/>
        <pt x="1244" y="1221" on="1"/>
        <pt x="1244" y="1250" on="0"/>
        <pt x="1227" y="1267" on="1"/>
        <pt x="1208" y="1286" on="0"/>
        <pt x="1189" y="1286" on="1"/>
        <pt x="1165" y="1286" on="0"/>
        <pt x="1142" y="1257" on="1"/>
        <pt x="1100" y="1203" on="0"/>
        <pt x="1100" y="1100" on="1"/>
      </contour>
      <contour>
        <pt x="150" y="1100" on="1"/>
        <pt x="150" y="1500" on="0"/>
        <pt x="650" y="1500" on="1"/>
        <pt x="650" y="1300" on="1"/>
        <pt x="350" y="1300" on="0"/>
        <pt x="350" y="1100" on="1"/>
        <pt x="350" y="400" on="1"/>
        <pt x="350" y="297" on="0"/>
        <pt x="392" y="244" on="1"/>
        <pt x="415" y="214" on="0"/>
        <pt x="439" y="214" on="1"/>
        <pt x="458" y="214" on="0"/>
        <pt x="477" y="234" on="1"/>
        <pt x="494" y="250" on="0"/>
        <pt x="494" y="279" on="1"/>
        <pt x="494" y="326" on="0"/>
        <pt x="451" y="405" on="1"/>
        <pt x="392" y="503" on="1"/>
        <pt x="546" y="610" on="1"/>
        <pt x="613" y="526" on="1"/>
        <pt x="700" y="437" on="0"/>
        <pt x="700" y="260" on="1"/>
        <pt x="700" y="170" on="0"/>
        <pt x="610" y="82" on="1"/>
        <pt x="526" y="0" on="0"/>
        <pt x="439" y="0" on="1"/>
        <pt x="341" y="0" on="0"/>
        <pt x="150" y="206" on="0"/>
        <pt x="150" y="400" on="1"/>
      </contour>
    </TTGlyph>
    <TTGlyph name="glyph280" xMin="150" yMin="0" xMax="1400" yMax="1500">
      <contour>
        <pt x="1350" y="206" on="0"/>
        <pt x="1159" y="0" on="0"/>
        <pt x="1061" y="0" on="1"/>
        <pt x="974" y="0" on="0"/>
        <pt x="890" y="82" on="1"/>
        <pt x="800" y="170" on="0"/>
        <pt x="800" y="260" on="1"/>
        <pt x="800" y="437" on="0"/>
        <pt x="887" y="526" on="1"/>
        <pt x="954" y="610" on="1"/>
        <pt x="1108" y="503" on="1"/>
        <pt x="1049" y="405" on="1"/>
        <pt x="1006" y="326" on="0"/>
        <pt x="1006" y="279" on="1"/>
        <pt x="1006" y="250" on="0"/>
        <pt x="1023" y="234" on="1"/>
        <pt x="1042" y="214" on="0"/>
        <pt x="1061" y="214" on="1"/>
        <pt x="1085" y="214" on="0"/>
        <pt x="1108" y="244" on="1"/>
        <pt x="1150" y="297" on="0"/>
        <pt x="1150" y="400" on="1"/>
        <pt x="1150" y="1300" on="0"/>
        <pt x="810" y="1300" on="1"/>
        <pt x="800" y="1300" on="1"/>
        <pt x="800" y="1500" on="1"/>
        <pt x="1400" y="1500" on="1"/>
        <pt x="1400" y="1300" on="1"/>
        <pt x="1185" y="1300" on="1"/>
        <pt x="1350" y="1053" on="0"/>
        <pt x="1350" y="400" on="1"/>
      </contour>
      <contour>
        <pt x="150" y="1100" on="1"/>
        <pt x="150" y="1500" on="0"/>
        <pt x="650" y="1500" on="1"/>
        <pt x="650" y="1300" on="1"/>
        <pt x="350" y="1300" on="0"/>
        <pt x="350" y="1100" on="1"/>
        <pt x="350" y="400" on="1"/>
        <pt x="350" y="297" on="0"/>
        <pt x="392" y="244" on="1"/>
        <pt x="415" y="214" on="0"/>
        <pt x="439" y="214" on="1"/>
        <pt x="458" y="214" on="0"/>
        <pt x="477" y="234" on="1"/>
        <pt x="494" y="250" on="0"/>
        <pt x="494" y="279" on="1"/>
        <pt x="494" y="326" on="0"/>
        <pt x="451" y="405" on="1"/>
        <pt x="392" y="503" on="1"/>
        <pt x="546" y="610" on="1"/>
        <pt x="613" y="526" on="1"/>
        <pt x="700" y="437" on="0"/>
        <pt x="700" y="260" on="1"/>
        <pt x="700" y="170" on="0"/>
        <pt x="610" y="82" on="1"/>
        <pt x="526" y="0" on="0"/>
        <pt x="439" y="0" on="1"/>
        <pt x="341" y="0" on="0"/>
        <pt x="150" y="206" on="0"/>
        <pt x="150" y="400" on="1"/>
      </contour>
    </TTGlyph>
    <TTGlyph name="glyph281" xMin="150" yMin="0" xMax="2625" yMax="1500">
      <contour>
        <pt x="1900" y="400" on="1"/>
        <pt x="1900" y="200" on="0"/>
        <pt x="2163" y="200" on="1"/>
        <pt x="2425" y="200" on="0"/>
        <pt x="2425" y="400" on="1"/>
        <pt x="2425" y="1500" on="1"/>
        <pt x="2625" y="1500" on="1"/>
        <pt x="2625" y="400" on="1"/>
        <pt x="2625" y="0" on="0"/>
        <pt x="2163" y="0" on="1"/>
        <pt x="1700" y="0" on="0"/>
        <pt x="1700" y="400" on="1"/>
        <pt x="1700" y="1100" on="1"/>
        <pt x="1700" y="1300" on="0"/>
        <pt x="1400" y="1300" on="1"/>
        <pt x="1100" y="1300" on="0"/>
        <pt x="1100" y="1100" on="1"/>
        <pt x="1100" y="1030" on="0"/>
        <pt x="1390" y="1030" on="1"/>
        <pt x="1390" y="830" on="1"/>
        <pt x="1100" y="830" on="0"/>
        <pt x="1100" y="400" on="1"/>
        <pt x="1100" y="297" on="0"/>
        <pt x="1142" y="244" on="1"/>
        <pt x="1165" y="214" on="0"/>
        <pt x="1189" y="214" on="1"/>
        <pt x="1208" y="214" on="0"/>
        <pt x="1227" y="234" on="1"/>
        <pt x="1244" y="250" on="0"/>
        <pt x="1244" y="279" on="1"/>
        <pt x="1244" y="326" on="0"/>
        <pt x="1201" y="405" on="1"/>
        <pt x="1142" y="503" on="1"/>
        <pt x="1296" y="610" on="1"/>
        <pt x="1363" y="526" on="1"/>
        <pt x="1450" y="437" on="0"/>
        <pt x="1450" y="260" on="1"/>
        <pt x="1450" y="170" on="0"/>
        <pt x="1360" y="82" on="1"/>
        <pt x="1276" y="0" on="0"/>
        <pt x="1189" y="0" on="1"/>
        <pt x="1091" y="0" on="0"/>
        <pt x="900" y="206" on="0"/>
        <pt x="900" y="400" on="1"/>
        <pt x="900" y="733" on="0"/>
        <pt x="1037" y="890" on="1"/>
        <pt x="900" y="957" on="0"/>
        <pt x="900" y="1100" on="1"/>
        <pt x="900" y="1500" on="0"/>
        <pt x="1400" y="1500" on="1"/>
        <pt x="1900" y="1500" on="0"/>
        <pt x="1900" y="1100" on="1"/>
      </contour>
      <contour>
        <pt x="150" y="1100" on="1"/>
        <pt x="150" y="1500" on="0"/>
        <pt x="650" y="1500" on="1"/>
        <pt x="650" y="1300" on="1"/>
        <pt x="350" y="1300" on="0"/>
        <pt x="350" y="1100" on="1"/>
        <pt x="350" y="400" on="1"/>
        <pt x="350" y="297" on="0"/>
        <pt x="392" y="244" on="1"/>
        <pt x="415" y="214" on="0"/>
        <pt x="439" y="214" on="1"/>
        <pt x="458" y="214" on="0"/>
        <pt x="477" y="234" on="1"/>
        <pt x="494" y="250" on="0"/>
        <pt x="494" y="279" on="1"/>
        <pt x="494" y="326" on="0"/>
        <pt x="451" y="405" on="1"/>
        <pt x="392" y="503" on="1"/>
        <pt x="546" y="610" on="1"/>
        <pt x="613" y="526" on="1"/>
        <pt x="700" y="437" on="0"/>
        <pt x="700" y="260" on="1"/>
        <pt x="700" y="170" on="0"/>
        <pt x="610" y="82" on="1"/>
        <pt x="526" y="0" on="0"/>
        <pt x="439" y="0" on="1"/>
        <pt x="341" y="0" on="0"/>
        <pt x="150" y="206" on="0"/>
        <pt x="150" y="400" on="1"/>
      </contour>
    </TTGlyph>
    <TTGlyph name="glyph282" xMin="150" yMin="0" xMax="1400" yMax="1600">
      <contour>
        <pt x="1200" y="1500" on="1"/>
        <pt x="1200" y="1600" on="1"/>
        <pt x="1400" y="1600" on="1"/>
        <pt x="1400" y="1300" on="1"/>
        <pt x="1185" y="1300" on="1"/>
        <pt x="1350" y="1053" on="0"/>
        <pt x="1350" y="400" on="1"/>
        <pt x="1350" y="206" on="0"/>
        <pt x="1159" y="0" on="0"/>
        <pt x="1061" y="0" on="1"/>
        <pt x="974" y="0" on="0"/>
        <pt x="890" y="82" on="1"/>
        <pt x="800" y="170" on="0"/>
        <pt x="800" y="260" on="1"/>
        <pt x="800" y="437" on="0"/>
        <pt x="887" y="526" on="1"/>
        <pt x="954" y="610" on="1"/>
        <pt x="1108" y="503" on="1"/>
        <pt x="1049" y="405" on="1"/>
        <pt x="1006" y="326" on="0"/>
        <pt x="1006" y="279" on="1"/>
        <pt x="1006" y="250" on="0"/>
        <pt x="1023" y="234" on="1"/>
        <pt x="1042" y="214" on="0"/>
        <pt x="1061" y="214" on="1"/>
        <pt x="1085" y="214" on="0"/>
        <pt x="1108" y="244" on="1"/>
        <pt x="1150" y="297" on="0"/>
        <pt x="1150" y="400" on="1"/>
        <pt x="1150" y="1300" on="0"/>
        <pt x="810" y="1300" on="1"/>
        <pt x="800" y="1300" on="1"/>
        <pt x="800" y="1500" on="1"/>
      </contour>
      <contour>
        <pt x="150" y="1100" on="1"/>
        <pt x="150" y="1500" on="0"/>
        <pt x="650" y="1500" on="1"/>
        <pt x="650" y="1300" on="1"/>
        <pt x="350" y="1300" on="0"/>
        <pt x="350" y="1100" on="1"/>
        <pt x="350" y="400" on="1"/>
        <pt x="350" y="297" on="0"/>
        <pt x="392" y="244" on="1"/>
        <pt x="415" y="214" on="0"/>
        <pt x="439" y="214" on="1"/>
        <pt x="458" y="214" on="0"/>
        <pt x="477" y="234" on="1"/>
        <pt x="494" y="250" on="0"/>
        <pt x="494" y="279" on="1"/>
        <pt x="494" y="326" on="0"/>
        <pt x="451" y="405" on="1"/>
        <pt x="392" y="503" on="1"/>
        <pt x="546" y="610" on="1"/>
        <pt x="613" y="526" on="1"/>
        <pt x="700" y="437" on="0"/>
        <pt x="700" y="260" on="1"/>
        <pt x="700" y="170" on="0"/>
        <pt x="610" y="82" on="1"/>
        <pt x="526" y="0" on="0"/>
        <pt x="439" y="0" on="1"/>
        <pt x="341" y="0" on="0"/>
        <pt x="150" y="206" on="0"/>
        <pt x="150" y="400" on="1"/>
      </contour>
    </TTGlyph>
    <TTGlyph name="glyph283" xMin="150" yMin="0" xMax="2050" yMax="1500">
      <contour>
        <pt x="900" y="1300" on="1"/>
        <pt x="900" y="1500" on="1"/>
        <pt x="1900" y="1500" on="1"/>
        <pt x="1900" y="1300" on="1"/>
      </contour>
      <contour>
        <pt x="1900" y="650" on="1"/>
        <pt x="2050" y="650" on="1"/>
        <pt x="2050" y="450" on="1"/>
        <pt x="1900" y="450" on="1"/>
        <pt x="1900" y="0" on="1"/>
        <pt x="1700" y="0" on="1"/>
        <pt x="1700" y="450" on="1"/>
        <pt x="1500" y="450" on="1"/>
        <pt x="1500" y="650" on="1"/>
        <pt x="1700" y="650" on="1"/>
        <pt x="1700" y="700" on="1"/>
        <pt x="1700" y="900" on="0"/>
        <pt x="1400" y="900" on="1"/>
        <pt x="1100" y="900" on="0"/>
        <pt x="1100" y="700" on="1"/>
        <pt x="1100" y="354" on="1"/>
        <pt x="1293" y="600" on="1"/>
        <pt x="1450" y="476" on="1"/>
        <pt x="1100" y="30" on="1"/>
        <pt x="1100" y="0" on="1"/>
        <pt x="900" y="0" on="1"/>
        <pt x="900" y="700" on="1"/>
        <pt x="900" y="1100" on="0"/>
        <pt x="1400" y="1100" on="1"/>
        <pt x="1900" y="1100" on="0"/>
        <pt x="1900" y="700" on="1"/>
      </contour>
      <contour>
        <pt x="150" y="1100" on="1"/>
        <pt x="150" y="1500" on="0"/>
        <pt x="650" y="1500" on="1"/>
        <pt x="650" y="1300" on="1"/>
        <pt x="350" y="1300" on="0"/>
        <pt x="350" y="1100" on="1"/>
        <pt x="350" y="400" on="1"/>
        <pt x="350" y="297" on="0"/>
        <pt x="392" y="244" on="1"/>
        <pt x="415" y="214" on="0"/>
        <pt x="439" y="214" on="1"/>
        <pt x="458" y="214" on="0"/>
        <pt x="477" y="234" on="1"/>
        <pt x="494" y="250" on="0"/>
        <pt x="494" y="279" on="1"/>
        <pt x="494" y="326" on="0"/>
        <pt x="451" y="405" on="1"/>
        <pt x="392" y="503" on="1"/>
        <pt x="546" y="610" on="1"/>
        <pt x="613" y="526" on="1"/>
        <pt x="700" y="437" on="0"/>
        <pt x="700" y="260" on="1"/>
        <pt x="700" y="170" on="0"/>
        <pt x="610" y="82" on="1"/>
        <pt x="526" y="0" on="0"/>
        <pt x="439" y="0" on="1"/>
        <pt x="341" y="0" on="0"/>
        <pt x="150" y="206" on="0"/>
        <pt x="150" y="400" on="1"/>
      </contour>
    </TTGlyph>
    <TTGlyph name="glyph284" xMin="150" yMin="0" xMax="2050" yMax="1500">
      <contour>
        <pt x="1900" y="700" on="1"/>
        <pt x="1900" y="400" on="1"/>
        <pt x="1900" y="0" on="0"/>
        <pt x="1400" y="0" on="1"/>
        <pt x="900" y="0" on="0"/>
        <pt x="900" y="400" on="1"/>
        <pt x="900" y="850" on="1"/>
        <pt x="900" y="1009" on="0"/>
        <pt x="1050" y="1140" on="1"/>
        <pt x="1000" y="1250" on="0"/>
        <pt x="850" y="1300" on="1"/>
        <pt x="850" y="1500" on="1"/>
        <pt x="1350" y="1500" on="1"/>
        <pt x="1350" y="1300" on="1"/>
        <pt x="1163" y="1300" on="1"/>
        <pt x="1230" y="1207" on="0"/>
        <pt x="1250" y="1080" on="1"/>
        <pt x="1100" y="989" on="0"/>
        <pt x="1100" y="850" on="1"/>
        <pt x="1100" y="400" on="1"/>
        <pt x="1100" y="200" on="0"/>
        <pt x="1400" y="200" on="1"/>
        <pt x="1700" y="200" on="0"/>
        <pt x="1700" y="400" on="1"/>
        <pt x="1700" y="700" on="1"/>
        <pt x="1450" y="700" on="1"/>
        <pt x="1450" y="900" on="1"/>
        <pt x="1700" y="900" on="1"/>
        <pt x="1700" y="1500" on="1"/>
        <pt x="1900" y="1500" on="1"/>
        <pt x="1900" y="900" on="1"/>
        <pt x="2050" y="900" on="1"/>
        <pt x="2050" y="700" on="1"/>
      </contour>
      <contour>
        <pt x="150" y="1100" on="1"/>
        <pt x="150" y="1500" on="0"/>
        <pt x="650" y="1500" on="1"/>
        <pt x="650" y="1300" on="1"/>
        <pt x="350" y="1300" on="0"/>
        <pt x="350" y="1100" on="1"/>
        <pt x="350" y="400" on="1"/>
        <pt x="350" y="297" on="0"/>
        <pt x="392" y="244" on="1"/>
        <pt x="415" y="214" on="0"/>
        <pt x="439" y="214" on="1"/>
        <pt x="458" y="214" on="0"/>
        <pt x="477" y="234" on="1"/>
        <pt x="494" y="250" on="0"/>
        <pt x="494" y="279" on="1"/>
        <pt x="494" y="326" on="0"/>
        <pt x="451" y="405" on="1"/>
        <pt x="392" y="503" on="1"/>
        <pt x="546" y="610" on="1"/>
        <pt x="613" y="526" on="1"/>
        <pt x="700" y="437" on="0"/>
        <pt x="700" y="260" on="1"/>
        <pt x="700" y="170" on="0"/>
        <pt x="610" y="82" on="1"/>
        <pt x="526" y="0" on="0"/>
        <pt x="439" y="0" on="1"/>
        <pt x="341" y="0" on="0"/>
        <pt x="150" y="206" on="0"/>
        <pt x="150" y="400" on="1"/>
      </contour>
    </TTGlyph>
    <TTGlyph name="glyph285" xMin="150" yMin="0" xMax="2625" yMax="1500">
      <contour>
        <pt x="950" y="1300" on="1"/>
        <pt x="950" y="1500" on="1"/>
        <pt x="1800" y="1500" on="1"/>
        <pt x="1800" y="1300" on="1"/>
      </contour>
      <contour>
        <pt x="1100" y="700" on="1"/>
        <pt x="1100" y="400" on="1"/>
        <pt x="1100" y="297" on="0"/>
        <pt x="1142" y="244" on="1"/>
        <pt x="1165" y="214" on="0"/>
        <pt x="1189" y="214" on="1"/>
        <pt x="1208" y="214" on="0"/>
        <pt x="1227" y="234" on="1"/>
        <pt x="1244" y="250" on="0"/>
        <pt x="1244" y="279" on="1"/>
        <pt x="1244" y="326" on="0"/>
        <pt x="1201" y="405" on="1"/>
        <pt x="1142" y="503" on="1"/>
        <pt x="1296" y="610" on="1"/>
        <pt x="1363" y="526" on="1"/>
        <pt x="1450" y="437" on="0"/>
        <pt x="1450" y="260" on="1"/>
        <pt x="1450" y="170" on="0"/>
        <pt x="1360" y="82" on="1"/>
        <pt x="1276" y="0" on="0"/>
        <pt x="1189" y="0" on="1"/>
        <pt x="1091" y="0" on="0"/>
        <pt x="900" y="206" on="0"/>
        <pt x="900" y="400" on="1"/>
        <pt x="900" y="700" on="1"/>
        <pt x="900" y="1100" on="0"/>
        <pt x="1400" y="1100" on="1"/>
        <pt x="1900" y="1100" on="0"/>
        <pt x="1900" y="700" on="1"/>
        <pt x="1900" y="400" on="1"/>
        <pt x="1900" y="200" on="0"/>
        <pt x="2163" y="200" on="1"/>
        <pt x="2425" y="200" on="0"/>
        <pt x="2425" y="400" on="1"/>
        <pt x="2425" y="1500" on="1"/>
        <pt x="2625" y="1500" on="1"/>
        <pt x="2625" y="400" on="1"/>
        <pt x="2625" y="0" on="0"/>
        <pt x="2163" y="0" on="1"/>
        <pt x="1700" y="0" on="0"/>
        <pt x="1700" y="400" on="1"/>
        <pt x="1700" y="700" on="1"/>
        <pt x="1700" y="900" on="0"/>
        <pt x="1400" y="900" on="1"/>
        <pt x="1100" y="900" on="0"/>
      </contour>
      <contour>
        <pt x="150" y="1100" on="1"/>
        <pt x="150" y="1500" on="0"/>
        <pt x="650" y="1500" on="1"/>
        <pt x="650" y="1300" on="1"/>
        <pt x="350" y="1300" on="0"/>
        <pt x="350" y="1100" on="1"/>
        <pt x="350" y="400" on="1"/>
        <pt x="350" y="297" on="0"/>
        <pt x="392" y="244" on="1"/>
        <pt x="415" y="214" on="0"/>
        <pt x="439" y="214" on="1"/>
        <pt x="458" y="214" on="0"/>
        <pt x="477" y="234" on="1"/>
        <pt x="494" y="250" on="0"/>
        <pt x="494" y="279" on="1"/>
        <pt x="494" y="326" on="0"/>
        <pt x="451" y="405" on="1"/>
        <pt x="392" y="503" on="1"/>
        <pt x="546" y="610" on="1"/>
        <pt x="613" y="526" on="1"/>
        <pt x="700" y="437" on="0"/>
        <pt x="700" y="260" on="1"/>
        <pt x="700" y="170" on="0"/>
        <pt x="610" y="82" on="1"/>
        <pt x="526" y="0" on="0"/>
        <pt x="439" y="0" on="1"/>
        <pt x="341" y="0" on="0"/>
        <pt x="150" y="206" on="0"/>
        <pt x="150" y="400" on="1"/>
      </contour>
    </TTGlyph>
    <TTGlyph name="glyph286" xMin="150" yMin="0" xMax="2600" yMax="1500">
      <contour>
        <pt x="150" y="1100" on="1"/>
        <pt x="150" y="1500" on="0"/>
        <pt x="650" y="1500" on="1"/>
        <pt x="650" y="1300" on="1"/>
        <pt x="350" y="1300" on="0"/>
        <pt x="350" y="1100" on="1"/>
        <pt x="350" y="400" on="1"/>
        <pt x="350" y="297" on="0"/>
        <pt x="392" y="244" on="1"/>
        <pt x="415" y="214" on="0"/>
        <pt x="439" y="214" on="1"/>
        <pt x="458" y="214" on="0"/>
        <pt x="477" y="234" on="1"/>
        <pt x="494" y="250" on="0"/>
        <pt x="494" y="279" on="1"/>
        <pt x="494" y="326" on="0"/>
        <pt x="451" y="405" on="1"/>
        <pt x="392" y="503" on="1"/>
        <pt x="546" y="610" on="1"/>
        <pt x="613" y="526" on="1"/>
        <pt x="700" y="437" on="0"/>
        <pt x="700" y="260" on="1"/>
        <pt x="700" y="170" on="0"/>
        <pt x="610" y="82" on="1"/>
        <pt x="526" y="0" on="0"/>
        <pt x="439" y="0" on="1"/>
        <pt x="341" y="0" on="0"/>
        <pt x="150" y="206" on="0"/>
        <pt x="150" y="400" on="1"/>
      </contour>
      <contour>
        <pt x="1100" y="400" on="1"/>
        <pt x="1100" y="200" on="0"/>
        <pt x="1400" y="200" on="1"/>
        <pt x="1700" y="200" on="0"/>
        <pt x="1700" y="400" on="1"/>
        <pt x="1700" y="1100" on="1"/>
        <pt x="1700" y="1500" on="0"/>
        <pt x="2150" y="1500" on="1"/>
        <pt x="2600" y="1500" on="0"/>
        <pt x="2600" y="1100" on="1"/>
        <pt x="2600" y="0" on="1"/>
        <pt x="2400" y="0" on="1"/>
        <pt x="2400" y="1100" on="1"/>
        <pt x="2400" y="1300" on="0"/>
        <pt x="2150" y="1300" on="1"/>
        <pt x="1900" y="1300" on="0"/>
        <pt x="1900" y="1100" on="1"/>
        <pt x="1900" y="400" on="1"/>
        <pt x="1900" y="0" on="0"/>
        <pt x="1400" y="0" on="1"/>
        <pt x="900" y="0" on="0"/>
        <pt x="900" y="400" on="1"/>
        <pt x="900" y="760" on="1"/>
        <pt x="900" y="878" on="0"/>
        <pt x="983" y="981" on="1"/>
        <pt x="850" y="1042" on="0"/>
        <pt x="850" y="1225" on="1"/>
        <pt x="850" y="1500" on="0"/>
        <pt x="1110" y="1500" on="1"/>
        <pt x="1180" y="1500" on="0"/>
        <pt x="1250" y="1480" on="1"/>
        <pt x="1250" y="1280" on="1"/>
        <pt x="1200" y="1300" on="0"/>
        <pt x="1110" y="1300" on="1"/>
        <pt x="1050" y="1300" on="0"/>
        <pt x="1050" y="1225" on="1"/>
        <pt x="1050" y="1150" on="0"/>
        <pt x="1150" y="1130" on="1"/>
        <pt x="1250" y="1110" on="1"/>
        <pt x="1250" y="990" on="1"/>
        <pt x="1100" y="899" on="0"/>
        <pt x="1100" y="760" on="1"/>
      </contour>
    </TTGlyph>
</ttFont>
